<svg xmlns="http://www.w3.org/2000/svg" width="35" height="35" viewBox="0 0 35 35">
  <g id="Group_1" data-name="Group 1" transform="translate(-915 -154)">
    <rect id="Rectangle_1" data-name="Rectangle 1" width="35" height="35" rx="17.5" transform="translate(915 154)" fill="#4e4de6"/>
    <path id="Icon_feather-phone-call" data-name="Icon feather-phone-call" d="M14.317,4.94a4.3,4.3,0,0,1,3.4,3.4M14.317,1.5a7.748,7.748,0,0,1,6.851,6.829m-.862,6.863v2.58a1.722,1.722,0,0,1-1.879,1.72,17.075,17.075,0,0,1-7.437-2.64,16.788,16.788,0,0,1-5.17-5.161A17,17,0,0,1,3.175,4.235,1.721,1.721,0,0,1,4.89,2.36H7.475A1.722,1.722,0,0,1,9.2,3.839a11.026,11.026,0,0,0,.6,2.417,1.718,1.718,0,0,1-.388,1.815L8.319,9.163a13.775,13.775,0,0,0,5.17,5.161l1.094-1.092a1.726,1.726,0,0,1,1.818-.387,11.082,11.082,0,0,0,2.421.6A1.721,1.721,0,0,1,20.306,15.193Z" transform="translate(920.332 161)" fill="none" stroke="#fff" stroke-linecap="round" stroke-linejoin="round" stroke-width="1.5"/>
  </g>
</svg>
