<svg xmlns="http://www.w3.org/2000/svg" width="16.364" height="12" viewBox="0 0 16.364 12">
  <path id="Union_2" data-name="Union 2" d="M4629,2949a1,1,0,0,1-1-1v-8.285a.994.994,0,0,1,.909-1l.524-.861a1.352,1.352,0,0,1,1.292-.857h2.729c.541,0,.9.232,1.307.857l.51.858h8.092a1,1,0,0,1,1,1V2948a1,1,0,0,1-1,1Zm3.544-5.143a3.643,3.643,0,1,0,3.637-3.429A3.54,3.54,0,0,0,4632.546,2943.857Zm.909,0a2.732,2.732,0,1,1,2.728,2.571A2.653,2.653,0,0,1,4633.455,2943.857Z" transform="translate(-4628.001 -2937)" fill="#3c3c59"/>
</svg>
