<svg xmlns="http://www.w3.org/2000/svg" width="53" height="50" viewBox="0 0 53 50">
  <g id="Group_1" data-name="Group 1" transform="translate(-578.486 -151.566)">
    <path id="Path_1709" data-name="Path 1709" d="M624.122,154.825a8.568,8.568,0,0,1,.724-1.8,2.553,2.553,0,0,1,2.935-1.4,2.866,2.866,0,0,1,2.389,2.388,9.715,9.715,0,0,1-.027,2.335,95.653,95.653,0,0,1-1.132,9.756c-.52,3.512-1.011,7.029-1.5,10.546a7.228,7.228,0,0,1-1.68,3.645c-2.652,3.251-5.26,6.538-7.894,9.8a5.982,5.982,0,0,0-1.087,3.113c-.31,2.275-.639,4.547-.966,6.819-.078.541-.087.54.467.54.638,0,1.276,0,1.914,0,.359,0,.669.083.657.507s-.321.487-.68.487q-13.947-.006-27.895,0h-11.03c-.076,0-.152,0-.228,0-.346,0-.611-.1-.607-.507,0-.381.259-.482.586-.481.593,0,1.186-.021,1.777.009.394.02.54-.067.537-.514-.021-2.959-.007-5.917-.006-8.876a8.363,8.363,0,0,1,5.367-8.129c1.818-.768,3.634-1.542,5.459-2.291.276-.113.307-.245.273-.511a2.182,2.182,0,0,1,1.537-2.6c.208-.038.2-.189.2-.35q0-1.242,0-2.484a.9.9,0,0,0-.074-.4,15.851,15.851,0,0,1-.782-2.153c-.061-.2-.116-.277-.344-.2a1.038,1.038,0,0,1-1.248-.409,4.893,4.893,0,0,1-.824-3.574,2.142,2.142,0,0,1,.692-1.688c.492-.331.4-.65.259-1.056a7.067,7.067,0,0,1-.416-3.521,7.793,7.793,0,0,1,4.335-5.82,10.191,10.191,0,0,1,11.313,1.422,7.5,7.5,0,0,1,1.8,8.342c-.1.244-.11.371.124.563a2.393,2.393,0,0,1,.713,1.641,5.336,5.336,0,0,1-.533,3.3,1.213,1.213,0,0,1-1.708.717c-.2-.059-.2.051-.239.161a18.322,18.322,0,0,1-.959,2.328.654.654,0,0,0-.054.31c0,.828.006,1.656,0,2.484,0,.184.007.322.235.361a2.161,2.161,0,0,1,1.637,2.654c-.052.379.078.462.362.578,1.013.41,2.015.844,3.022,1.27a2.543,2.543,0,0,0,2.985-.51c1.613-1.556,3.234-3.1,4.831-4.677a5.92,5.92,0,0,0,1.445-3.256c.751-3.765,1.54-7.523,2.3-11.288a25.844,25.844,0,0,0,.542-2.885,1.026,1.026,0,0,0-.179-.685c-.38-.59-.759-1.182-1.112-1.789a1.944,1.944,0,0,1-.307-1.9,1.042,1.042,0,0,1,1.45-.605C623.7,154.617,623.9,154.722,624.122,154.825Z" transform="translate(0 0)" fill="#3a3a3a"/>
    <path id="Path_1710" data-name="Path 1710" d="M926.439,551.337h-1.412c-.332,0-.543-.134-.549-.493a.466.466,0,0,1,.528-.52q1.436-.011,2.872,0a.481.481,0,0,1,.535.524c-.007.341-.225.493-.561.491C927.381,551.334,926.91,551.337,926.439,551.337Z" transform="translate(-304.24 -349.773)" fill="#3c3c3c"/>
    <path id="Path_1711" data-name="Path 1711" d="M971.058,550.309c.3,0,.6-.015.893,0a.5.5,0,0,1-.015,1.009q-.869.009-1.739,0a.475.475,0,0,1-.518-.49c-.012-.341.205-.509.534-.522.282-.011.564,0,.846,0Z" transform="translate(-343.73 -349.761)" fill="#3d3d3d"/>
    <path id="Path_1712" data-name="Path 1712" d="M1006.609,550.947a.5.5,0,0,1-1-.039.461.461,0,0,1,.511-.488A.488.488,0,0,1,1006.609,550.947Z" transform="translate(-375.124 -349.863)" fill="#434343"/>
    <path id="Path_1713" data-name="Path 1713" d="M630.02,266.026c-3.9,0-7.807-.006-11.711.008-.4,0-.553-.084-.539-.539.034-1.086.011-2.174.01-3.262a.583.583,0,0,0-.345-.606.459.459,0,0,0-.53.16c-.139.137-.112.317-.112.489,0,1.1-.014,2.207.008,3.309.007.362-.106.45-.439.448q-3.064-.021-6.128,0c-.339,0-.437-.1-.436-.452.012-3.136-.045-6.273.022-9.408a7.58,7.58,0,0,1,4.566-6.859c1.853-.81,3.709-1.611,5.558-2.429a.541.541,0,0,1,.789.18,9.5,9.5,0,0,0,4.334,2.9,1.582,1.582,0,0,0,.385.135c.819.073,1.162.656,1.406,1.371.106.31.261.6.393.9a.485.485,0,0,0,.948.01c.249-.539.517-1.07.748-1.617a.881.881,0,0,1,.623-.537,10.556,10.556,0,0,0,4.923-2.874c.544-.6.547-.6,1.273-.285.962.417,1.916.855,2.884,1.258a3.349,3.349,0,0,0,3.862-.754c1.243-1.2,2.434-2.454,3.657-3.674a15.683,15.683,0,0,0,1.789-1.934,8.2,8.2,0,0,0,1.127-3.3c.666-3.3,1.316-6.613,1.971-9.919.2-1.015.407-2.029.592-3.047.061-.337.2-.454.541-.446,1.179.026,2.36.022,3.54.006.313,0,.4.1.355.41q-.486,3.377-.96,6.756c-.319,2.284-.626,4.569-.941,6.854-.128.932-.255,1.865-.4,2.8a7.331,7.331,0,0,1-1.845,3.355c-2.294,2.944-4.532,5.938-6.9,8.818a8.893,8.893,0,0,0-1.857,4.946c-.221,2.027-.543,4.043-.841,6.06-.116.784-.14.78-.935.78Z" transform="translate(-27.349 -65.765)" fill="#4d4ee4"/>
    <path id="Path_1714" data-name="Path 1714" d="M691.143,239.3c-.064-.657-.11-1.317-.194-1.972a2.417,2.417,0,0,1,1.406-2.808c.622-.346.8-.321,1.24.236a10.321,10.321,0,0,0,2.272,2.185,6.865,6.865,0,0,0,2,.946,1.733,1.733,0,0,0,2.306-1.863c-.024-.36-.111-.715-.149-1.074-.056-.525.1-.69.621-.692a3.146,3.146,0,0,1,2.723,3.369,16.919,16.919,0,0,0-.224,2.016c0,.813.466,1.091,1.21.727a3.258,3.258,0,0,0,.736-.509c.245-.219.448-.15.547.135a4.354,4.354,0,0,1-.312,3.731c-.188.333-.381.259-.52-.061-.006-.014-.015-.028-.021-.042-.128-.29-.147-.688-.61-.659-.507.033-.479.473-.575.8a15.1,15.1,0,0,1-3.231,6.128,5.084,5.084,0,0,1-3.236,1.876,4.2,4.2,0,0,1-3.65-1.727,14.533,14.533,0,0,1-3.007-6.287c-.074-.3-.11-.616-.483-.671s-.5.241-.619.527c-.052.123-.091.293-.256.313-.192.024-.274-.148-.343-.279a4.4,4.4,0,0,1-.316-3.476c.186-.594.4-.624.835-.182a1.653,1.653,0,0,0,.946.494.71.71,0,0,0,.89-.756c0-.142,0-.283,0-.425Z" transform="translate(-96.612 -72.672)" fill="#dfb69a"/>
    <path id="Path_1715" data-name="Path 1715" d="M707.94,197.6a2.09,2.09,0,0,1,.077-.992,4.142,4.142,0,0,0-.4-2.871,4.282,4.282,0,0,0-3.018-2.129c-1.314-.21-2.068.716-1.789,2.152a4.111,4.111,0,0,1,.07.842.708.708,0,0,1-.95.716,6.974,6.974,0,0,1-3.318-2.231c-.264-.311-.52-.631-.8-.928a1.459,1.459,0,0,0-1.727-.366,3.788,3.788,0,0,0-2.292,2.171,4.058,4.058,0,0,0-.057,2.087,6.985,6.985,0,0,0,.217,1.68,1.7,1.7,0,0,1-.815-1.145,14.641,14.641,0,0,1-.591-2.267,5.808,5.808,0,0,1,.848-3.781,8.03,8.03,0,0,1,6.4-3.87,9.287,9.287,0,0,1,6.172,1.359,6.649,6.649,0,0,1,3.266,4.978,6.386,6.386,0,0,1-.855,4.153A1.235,1.235,0,0,1,707.94,197.6Z" transform="translate(-100.354 -30.607)" fill="#765f4f"/>
    <path id="Path_1716" data-name="Path 1716" d="M946.79,166.694c-.568-.031-1.182.031-1.8-.036-.235-.026-.356-.084-.3-.337a1.051,1.051,0,0,0-.208-.8c-.459-.733-.92-1.465-1.362-2.209-.174-.293-.428-.672-.119-.944.237-.209.535.126.777.263,1.038.592,1.086.58,1.366-.58a6.115,6.115,0,0,1,.606-1.63,1.748,1.748,0,0,1,2.09-1.051,2.011,2.011,0,0,1,1.679,1.9,21.763,21.763,0,0,1-.131,2.73c-.034.753-.116,1.5-.156,2.257-.014.262-.071.375-.372.4C948.186,166.7,947.51,166.676,946.79,166.694Z" transform="translate(-320.298 -6.771)" fill="#dfb69a"/>
    <path id="Path_1717" data-name="Path 1717" d="M715.411,352.5c.5.564.934,1.123,1.441,1.623a4.907,4.907,0,0,0,7.118.287,12.715,12.715,0,0,0,2.009-2.245c0,.941-.063,1.755.018,2.554a1.328,1.328,0,0,1-.907,1.519,18.532,18.532,0,0,1-2.5.993.679.679,0,0,0-.527.533c-.252,1.007-.525,2.009-.774,3.018-.072.293-.126.523-.519.53s-.458-.255-.531-.526c-.248-.927-.521-1.849-.72-2.787a1,1,0,0,0-.808-.845,11.713,11.713,0,0,1-2.926-1.3.685.685,0,0,1-.385-.678C715.428,354.28,715.411,353.388,715.411,352.5Z" transform="translate(-120.383 -176.092)" fill="#dfb69b"/>
    <path id="Path_1718" data-name="Path 1718" d="M776.7,377.538a2.111,2.111,0,0,1-.8,2.251,10.565,10.565,0,0,1-4.565,2.537c.185-.685.343-1.283.509-1.88.058-.209.269-.2.423-.254a11.925,11.925,0,0,0,3.545-1.832C776.115,378.117,776.384,377.83,776.7,377.538Z" transform="translate(-169.448 -198.28)" fill="#4d4ee4"/>
    <path id="Path_1719" data-name="Path 1719" d="M701.278,377.052a10.3,10.3,0,0,0,4.507,2.737c.161.058.336.08.391.291.149.573.308,1.143.482,1.787a9.8,9.8,0,0,1-2.571-1.032,7.229,7.229,0,0,1-2.588-2.219A1.987,1.987,0,0,1,701.278,377.052Z" transform="translate(-107.843 -197.854)" fill="#4d4ee4"/>
    <path id="Union_42" data-name="Union 42" d="M.191,2.292A10.18,10.18,0,0,1,1.436.3c.311-.405.448-.4.735.019.312.451.634.9.913,1.369a2.389,2.389,0,0,1,.149,2.5,1.442,1.442,0,0,1-1.449.692,1.259,1.259,0,0,1-.19.014A1.773,1.773,0,0,1,.191,2.292Z" transform="translate(605.227 187.61)" fill="#3b3b3b" stroke="rgba(0,0,0,0)" stroke-miterlimit="10" stroke-width="1"/>
  </g>
</svg>
