<svg xmlns="http://www.w3.org/2000/svg" xmlns:xlink="http://www.w3.org/1999/xlink" width="39" height="54" viewBox="0 0 39 54">
  <defs>
    <clipPath id="clip-path">
      <rect id="Rectangle_8" data-name="Rectangle 8" width="39" height="54" transform="translate(-680.202 1497.244)" fill="#fff"/>
    </clipPath>
    <radialGradient id="radial-gradient" cx="0.5" cy="0.5" r="0.533" gradientTransform="matrix(-0.777, 0.934, 0.526, 0.092, 17.309, -14.827)" gradientUnits="objectBoundingBox">
      <stop offset="0" stop-color="#878787"/>
      <stop offset="0.28" stop-color="#b1b1b1"/>
      <stop offset="0.6" stop-color="#dbdbdb"/>
      <stop offset="0.85" stop-color="#f5f5f5"/>
      <stop offset="1" stop-color="#fff"/>
    </radialGradient>
    <radialGradient id="radial-gradient-3" cx="0.5" cy="0.5" r="0.601" gradientTransform="matrix(0.78, 0.819, -0.288, 0.148, 6.513, 21.843)" xlink:href="#radial-gradient"/>
  </defs>
  <g id="Mask_Group_1" data-name="Mask Group 1" transform="translate(680.202 -1497.244)" clip-path="url(#clip-path)">
    <g id="Group_21" data-name="Group 21" transform="translate(-686.054 1495.784)">
      <path id="Path_1" data-name="Path 1" d="M-829.364,274.185a.688.688,0,0,0,.192.065c.041.008.083.014.124.019s.079.009.117.012c.063.006.228.013.3.015a2.272,2.272,0,0,0,.238.024c.074,0,.175.005.277.011s.208.02.282.019c.127,0,.221,0,.321,0,.057,0,.14.011.239,0a3.266,3.266,0,0,1,.376-.054,1.719,1.719,0,0,0,.117-.336c.1-.371.208-.957.331-1.623.032-.17.065-.347.1-.526.041-.219.084-.443.13-.667a5.714,5.714,0,0,0,.217-.875,7.87,7.87,0,0,1,.158-1.247,16.615,16.615,0,0,1,.34-1.943c.418-.709.947-1.363,1.329-2.026.266-.462,1.175-1.5,1.38-1.881-.038-.02-.248-.213-.292-.247-.026-.02-.054-.041-.082-.065-.05-.041-.1-.087-.156-.136l-.134-.124-.145-.135c-.07-.066-.14-.13-.206-.187-.049-.043-.1-.082-.14-.116l-.039-.029-.039-.027c-.021-.014-.041-.026-.06-.036a8.4,8.4,0,0,0-1.709,1.675c-.444.641-.777,1.394-1.264,2.128-.2.3-.733,1.158-1.288,1.88-.243.316-.477.539-.673.785a2.219,2.219,0,0,0-.378.657,4.229,4.229,0,0,0-.1.914c-.027.25-.193.463-.159.728.136,1.044.194,2.09.241,2.755C-829.4,273.86-829.384,274.066-829.364,274.185Z" transform="translate(842.105 -241.939)" fill="#e8b290"/>
      <path id="Path_2" data-name="Path 2" d="M-810.835,266.3c.961.367,2.89-2.347,4.31-6.061s1.791-7.025.831-7.392-2.89,2.347-4.31,6.063S-811.8,265.934-810.835,266.3Z" transform="translate(825.49 -233.533)" opacity="0.33" fill="url(#radial-gradient)" style="mix-blend-mode: multiply;isolation: isolate"/>
      <path id="Path_3" data-name="Path 3" d="M-850.176,408.785l.1,0,.107,0,.159-.006.133-.005.245-.011.225-.011.27-.013.278-.015.318-.018.242-.014.343-.021.439-.027.173-.011.667-.042.345-.022.393-.024c.352-.021.7-.04,1.057-.058q.334-.017.665-.03l.422-.015a13.164,13.164,0,0,1,.405-2.424,22.683,22.683,0,0,1,.828-2.753,8.439,8.439,0,0,1,.972-2.041,3.769,3.769,0,0,0,.581-.972,4.827,4.827,0,0,0,.379-1.405,8.43,8.43,0,0,0-.044-1.784,15.321,15.321,0,0,0-.425-2.065c-.019-.075-.04-.15-.056-.226-.14,0-.282.006-.426,0-.225,0-.487-.108-.72-.125s-.48-.114-.728-.142c-.209-.023-.426-.083-.639-.112-.186-.025-.394-.026-.581-.053-.242-.035-.394-.066-.6-.1l-.172-.026c-.159-.023-.482-.124-.647-.154a1.936,1.936,0,0,0-.381-.038l-.291.006c-.116,0-.219,0-.321,0s-.179-.005-.277-.013-.189-.013-.282-.017c-.078,0-.161-.022-.238-.024s-.216-.013-.3-.015c-.046,0-.075-.012-.117-.012a.772.772,0,0,1-.124-.019.749.749,0,0,1-.1-.023.4.4,0,0,1-.093-.042c0,.072.007.144.013.216.032.43.115,1.372.131,2.227.011.547.013,1.157,0,1.8-.012.506-.035,1.03-.075,1.552-.031.414-.084.846-.158,1.267-.162.932-.261,1.112-.464,2-.244,1.068-.529,2.2-.8,3.194A22.242,22.242,0,0,1-850.176,408.785Z" transform="translate(860.731 -361.62)" fill="#e8b290"/>
      <path id="Path_4" data-name="Path 4" d="M-799.075,294.146c.006.022.012.044.019.068a3.555,3.555,0,0,1-.465-.051c-.1-.02-.589-.086-.705-.11-.4-.082-.446-.091-.761-.146l-.074-.013c-.141-.027-.327-.063-.526-.09-.229-.03-.421-.065-.564-.085h-.007c-.1-.014-.188-.028-.268-.042-.037-.007-.075-.014-.115-.02l-.023,0-.044-.007h0c-.1-.016-.207-.03-.312-.044a1.2,1.2,0,0,1-.151-.036h0l-.07-.018c-.049-.015-.1-.031-.161-.045-.037-.009-.077-.018-.119-.027l-.01,0c-.041-.009-.084-.018-.128-.024a3.1,3.1,0,0,0-.435-.036.247.247,0,0,1-.044,0s0,0,0,0c.07-.15.244-.47.346-.746.088-.24.188-.5.265-.77.082-.293.124-.444.185-.649a11.808,11.808,0,0,0,.426-1.8c.035-.257.056-.522.086-.781.05-.423.063-.837.121-1.254.007-.055.008-.112.015-.167s.028-.135.035-.191a1.584,1.584,0,0,1,.061-.253,1.472,1.472,0,0,1,.089-.258c.019-.036.03-.092.077-.182l.038-.073c.064-.121.134-.25.209-.383.021-.039.043-.077.065-.117.2-.345.414-.711.614-1.035.076-.122.149-.242.217-.356.012-.019.023-.037.034-.056.044-.073.088-.146.132-.221l.024-.04a.269.269,0,0,1,.018-.031c.063-.108.122-.209.174-.3l.04-.068a2.057,2.057,0,0,1,.17-.262h0a1,1,0,0,1,.2-.187,1.123,1.123,0,0,1,.2-.107l.034-.015a.332.332,0,0,1,.19-.033c.027,0,.047.013.069.015l.308.039h0l.045.007a.854.854,0,0,1,.172.043.5.5,0,0,1,.155.09.8.8,0,0,1,.151.188c.035.056.065.113.094.17l.059.127c.028.076.06.149.082.225a.641.641,0,0,1,.024.133c0,.028,0,.056,0,.084.009.155.013.311.011.466a7.036,7.036,0,0,1-.534,2.605c-.034.083-.06.144-.072.179a.655.655,0,0,1-.086.13.458.458,0,0,0-.092.162c-.008.056-.015.112-.023.166s-.015.107-.023.161c-.047.325-.1.684-.13,1.039,0,.018,0,.035,0,.052-.006.065-.012.13-.015.194-.009.134-.016.266-.019.394,0,.147,0,.287,0,.42.007.2.014.38.023.554a7.7,7.7,0,0,0,.141,1.166c.031.156.084.338.128.509.021.083.039.163.054.238a6.231,6.231,0,0,0,.17.847c.074.225.127.407.194.638C-799.083,294.12-799.079,294.132-799.075,294.146Z" transform="translate(818.839 -260.999)" fill="#e8b290"/>
      <path id="Path_5" data-name="Path 5" d="M-773.29,289.947a.5.5,0,0,1-.122.062,1,1,0,0,1-.379.045,2.038,2.038,0,0,1-.292-.036,1.794,1.794,0,0,1-.3-.083c-.073-.028-.159-.056-.245-.1a.787.787,0,0,1-.216-.15.776.776,0,0,1-.094-.11.905.905,0,0,1-.069-.114h0a.706.706,0,0,1-.027-.1.368.368,0,0,1-.018-.068.91.91,0,0,1-.006-.1,2.542,2.542,0,0,1,.177-.8c.041-.114.076-.221.127-.334a1.917,1.917,0,0,1,.115-.213c.023-.035.048-.072.077-.112s.076-.1.12-.152.1-.108.154-.168a.843.843,0,0,1,.13-.1.948.948,0,0,1,.172-.091,1.146,1.146,0,0,1,.376-.078.929.929,0,0,1,.351.046.915.915,0,0,1,.233.134,1.214,1.214,0,0,1,.177.171,1,1,0,0,1,.142.181,1.3,1.3,0,0,1,.1.325.513.513,0,0,1,.013.17q0,.1,0,.179c0,.044,0,.085-.007.125a.906.906,0,0,1-.048.211c-.042.129-.056.216-.1.332a1.933,1.933,0,0,1-.476.877c-.023.019-.045.035-.068.052Z" transform="translate(792.514 -264.706)" fill="#f1c2b1"/>
      <path id="Path_6" data-name="Path 6" d="M-829.364,274.185a.688.688,0,0,0,.192.065c.041.008.083.014.124.019s.079.009.117.012c.063.006.228.013.3.015a2.272,2.272,0,0,0,.238.024c.074,0,.175.005.277.011s.208.02.282.019c.127,0,.221,0,.321,0,.057,0,.14.011.239,0a3.266,3.266,0,0,1,.376-.054,1.719,1.719,0,0,0,.117-.336c.1-.371.208-.957.331-1.623.032-.17.065-.347.1-.526.041-.219.084-.443.13-.667a5.714,5.714,0,0,0,.217-.875,7.87,7.87,0,0,1,.158-1.247,16.615,16.615,0,0,1,.34-1.943c.418-.709.947-1.363,1.329-2.026.266-.462,1.175-1.5,1.38-1.881-.038-.02-.248-.213-.292-.247-.026-.02-.054-.041-.082-.065-.05-.041-.1-.087-.156-.136l-.134-.124-.145-.135c-.07-.066-.14-.13-.206-.187-.049-.043-.1-.082-.14-.116l-.039-.029-.039-.027c-.021-.014-.041-.026-.06-.036a8.4,8.4,0,0,0-1.709,1.675c-.444.641-.777,1.394-1.264,2.128-.2.3-.733,1.158-1.288,1.88-.243.316-.477.539-.673.785a2.219,2.219,0,0,0-.378.657,4.229,4.229,0,0,0-.1.914c-.027.25-.193.463-.159.728.136,1.044.194,2.09.241,2.755C-829.4,273.86-829.384,274.066-829.364,274.185Z" transform="translate(842.105 -241.939)" fill="#e8b290"/>
      <path id="Path_7" data-name="Path 7" d="M-810.835,266.3c.961.367,2.89-2.347,4.31-6.061s1.791-7.025.831-7.392-2.89,2.347-4.31,6.063S-811.8,265.934-810.835,266.3Z" transform="translate(825.49 -233.533)" opacity="0.33" fill="url(#radial-gradient)" style="mix-blend-mode: multiply;isolation: isolate"/>
      <rect id="Rectangle_1" data-name="Rectangle 1" width="0.12" height="1.749" transform="translate(30.246 13.34)" fill="#1d1d1b"/>
      <rect id="Rectangle_2" data-name="Rectangle 2" width="0.12" height="1.749" transform="translate(17.365 10.809)" fill="#1d1d1b"/>
      <rect id="Rectangle_3" data-name="Rectangle 3" width="0.12" height="1.75" transform="translate(17.365 13.182)" fill="#1d1d1b"/>
      <path id="Path_8" data-name="Path 8" d="M-762.471,94.934V118.8a1.436,1.436,0,0,1-1.439,1.435H-773.9a1.436,1.436,0,0,1-.9-.313,1.436,1.436,0,0,1-.5-.767,1.393,1.393,0,0,1-.046-.355V94.934A1.439,1.439,0,0,1-773.9,93.5h9.991a1.433,1.433,0,0,1,1.128.548,1.445,1.445,0,0,1,.255.508A1.362,1.362,0,0,1-762.471,94.934Z" transform="translate(792.773 -88.856)" fill="#575756"/>
      <path id="Path_9" data-name="Path 9" d="M-762.487,95.057h-9.993a1.29,1.29,0,0,0-1.024.505,1.282,1.282,0,0,0-.27.788v23.868a1.3,1.3,0,0,0,1.294,1.293h9.993a1.29,1.29,0,0,0,1.11-.632,1.283,1.283,0,0,0,.184-.661V96.351A1.3,1.3,0,0,0-762.487,95.057Z" transform="translate(791.35 -90.274)" fill="#282827"/>
      <g id="Group_2" data-name="Group 2" transform="translate(26.276 5.345)">
        <path id="Path_10" data-name="Path 10" d="M-678.527,103.643a.124.124,0,0,1,.12.128h0a.124.124,0,0,1-.12.128H-679a.124.124,0,0,1-.119-.128h0a.124.124,0,0,1,.119-.128Z" transform="translate(679.118 -103.416)"/>
        <g id="Group_1" data-name="Group 1" transform="translate(0.859)">
          <path id="Path_11" data-name="Path 11" d="M-669.061,101.526a.356.356,0,0,1-.355.356.356.356,0,0,1-.356-.356.356.356,0,0,1,.356-.356A.356.356,0,0,1-669.061,101.526Z" transform="translate(669.772 -101.17)" fill="#1d1d1b"/>
          <path id="Path_12" data-name="Path 12" d="M-667.943,102.77a.23.23,0,0,1-.23.23.23.23,0,0,1-.23-.23.23.23,0,0,1,.23-.23A.23.23,0,0,1-667.943,102.77Z" transform="translate(668.529 -102.414)" fill="#575756"/>
          <path id="Path_13" data-name="Path 13" d="M-666.931,103.889a.116.116,0,0,1-.115.116.116.116,0,0,1-.116-.116.116.116,0,0,1,.116-.116A.116.116,0,0,1-666.931,103.889Z" transform="translate(667.402 -103.534)" fill="#1d1d1b"/>
          <path id="Path_14" data-name="Path 14" d="M-666.055,104.872a.018.018,0,0,1-.017.017.017.017,0,0,1-.018-.017.017.017,0,0,1,.018-.017A.017.017,0,0,1-666.055,104.872Z" transform="translate(666.428 -104.516)" fill="#3c3c3b"/>
        </g>
      </g>
      <path id="Path_15" data-name="Path 15" d="M-760.245,114.873h-11.406a.431.431,0,0,0-.432.431v21.95a.432.432,0,0,0,.432.432h11.406a.4.4,0,0,0,.092-.011.431.431,0,0,0,.339-.421V115.3A.431.431,0,0,0-760.245,114.873Z" transform="translate(789.815 -108.269)" fill="#0a0806" opacity="0.7"/>
      <path id="Path_16" data-name="Path 16" d="M-769.443,119.823h-.03v21.9h11.79v-21.9Z" transform="translate(787.445 -112.764)" fill="#cbbba0"/>
      <g id="Group_3" data-name="Group 3" transform="translate(22.814 29.737)">
        <path id="Path_17" data-name="Path 17" d="M-715.125,366.571h-1.15a.51.51,0,0,0-.511.511.511.511,0,0,0,.511.511h1.15a.511.511,0,0,0,.51-.511A.509.509,0,0,0-715.125,366.571Zm0,.9h-1.15a.385.385,0,0,1-.384-.385.385.385,0,0,1,.384-.384h1.15a.385.385,0,0,1,.383.384A.385.385,0,0,1-715.125,367.467Z" transform="translate(716.786 -366.571)" fill="#575756"/>
        <path id="Path_18" data-name="Path 18" d="M-714.029,368.348h-1.094a.427.427,0,0,1-.426-.426h0a.426.426,0,0,1,.426-.425h1.094a.427.427,0,0,1,.425.425h0A.428.428,0,0,1-714.029,368.348Z" transform="translate(715.662 -367.412)" fill="#1d1d1b"/>
      </g>
      <path id="Path_19" data-name="Path 19" d="M-722.378,104.284a.123.123,0,0,1-.114.129H-726.1a.122.122,0,0,1-.114-.129h0a.122.122,0,0,1,.114-.129h3.611a.123.123,0,0,1,.114.129Z" transform="translate(748.164 -98.536)" fill="#414042"/>
      <path id="Path_20" data-name="Path 20" d="M-722.19,104.448a.113.113,0,0,1-.113.113h-3.572a.113.113,0,0,1-.113-.113h0a.113.113,0,0,1,.113-.113h3.572a.113.113,0,0,1,.113.113Z" transform="translate(747.955 -98.699)"/>
      <path id="Path_21" data-name="Path 21" d="M-698.383,221.8a.042.042,0,0,1-.01-.008h0s0,0,0,0S-698.385,221.8-698.383,221.8Z" transform="translate(722.897 -205.357)" fill="#993104"/>
      <g id="Group_11" data-name="Group 11" transform="translate(18.735 12.395)">
        <path id="Path_22" data-name="Path 22" d="M-752.484,211.5l1.579,2.17h-10.264l1.579-2.17Z" transform="translate(761.169 -208.406)" fill="#ce4a09"/>
        <rect id="Rectangle_4" data-name="Rectangle 4" width="10.264" height="8.135" transform="translate(0 5.26)" fill="#ea5b0c"/>
        <g id="Group_5" data-name="Group 5" transform="translate(1.54 8.02)">
          <path id="Rectangle_5" data-name="Rectangle 5" d="M1.291,0h4.6A1.291,1.291,0,0,1,7.184,1.291v0A1.291,1.291,0,0,1,5.893,2.582h-4.6A1.291,1.291,0,0,1,0,1.291v0A1.291,1.291,0,0,1,1.291,0Z" fill="#ededed"/>
          <g id="Group_4" data-name="Group 4" transform="translate(0.835 0.511)">
            <path id="Path_23" data-name="Path 23" d="M-735.336,271.035h.291a1.815,1.815,0,0,1,.382.026.292.292,0,0,1,.151.085.268.268,0,0,1,.065.132,2.009,2.009,0,0,1,.013.286v.525a1.222,1.222,0,0,1-.019.27.2.2,0,0,1-.066.106.276.276,0,0,1-.116.054,1.059,1.059,0,0,1-.209.015h-.491Zm.39.256v.985c.056,0,.091-.011.1-.034a.491.491,0,0,0,.019-.184v-.582a.792.792,0,0,0-.006-.13.063.063,0,0,0-.03-.042A.191.191,0,0,0-734.947,271.291Z" transform="translate(735.336 -271.004)" fill="#ea5b0c"/>
            <path id="Path_24" data-name="Path 24" d="M-723.16,271.6q0,.226-.011.319a.358.358,0,0,1-.067.172.359.359,0,0,1-.151.119.55.55,0,0,1-.222.042.563.563,0,0,1-.216-.04.354.354,0,0,1-.154-.118.354.354,0,0,1-.069-.171,3.154,3.154,0,0,1-.011-.324v-.256q0-.226.011-.32a.356.356,0,0,1,.067-.172.357.357,0,0,1,.151-.119.551.551,0,0,1,.222-.042.564.564,0,0,1,.216.039.355.355,0,0,1,.154.118.356.356,0,0,1,.069.171,3.129,3.129,0,0,1,.011.324Zm-.39-.492a.469.469,0,0,0-.012-.134.046.046,0,0,0-.048-.029.053.053,0,0,0-.047.023.336.336,0,0,0-.016.139v.7a.7.7,0,0,0,.011.161.046.046,0,0,0,.049.031.048.048,0,0,0,.051-.035.739.739,0,0,0,.011-.167Z" transform="translate(725.097 -270.692)" fill="#ea5b0c"/>
            <path id="Path_25" data-name="Path 25" d="M-711.805,271.035v1.5h-.341l-.2-.681v.681h-.326v-1.5h.326l.218.674v-.674Z" transform="translate(714.758 -271.004)" fill="#ea5b0c"/>
            <path id="Path_26" data-name="Path 26" d="M-701.711,271.035l.223,1.5h-.4l-.021-.269h-.139l-.023.269h-.4l.2-1.5Zm-.206.963q-.03-.255-.059-.629-.059.43-.075.629Z" transform="translate(705.493 -271.004)" fill="#ea5b0c"/>
            <path id="Path_27" data-name="Path 27" d="M-692.053,271.035v.3h-.231v1.2h-.39v-1.2h-.23v-.3Z" transform="translate(696.804 -271.004)" fill="#ea5b0c"/>
            <path id="Path_28" data-name="Path 28" d="M-682.677,271.035h.65v.3h-.26v.284h.243v.285h-.243v.329H-682v.3h-.675Z" transform="translate(687.517 -271.004)" fill="#ea5b0c"/>
          </g>
        </g>
        <g id="Group_10" data-name="Group 10" transform="translate(2.836 0)">
          <path id="Path_29" data-name="Path 29" d="M-725.721,180.168a2.292,2.292,0,0,1-.8,1.742h-.78s0,0,0,0,0,0,0,0a.039.039,0,0,1-.01-.008h-2.206a2.285,2.285,0,0,1-.766-1.338,2.256,2.256,0,0,1-.036-.4,2.291,2.291,0,0,1,.171-.867,2.3,2.3,0,0,1,2.125-1.427H-728a2.291,2.291,0,0,1,1.08.276,2.424,2.424,0,0,1,.382.259A2.3,2.3,0,0,1-725.721,180.168Z" transform="translate(730.313 -177.874)" fill="#f4dd77"/>
          <path id="Path_30" data-name="Path 30" d="M-723.759,182.354a2.069,2.069,0,0,1-.946,1.74h-.41s0,0,0,0,0,0,0,0a.039.039,0,0,1-.01-.008h-1.839a2.07,2.07,0,0,1-.947-1.74,2.074,2.074,0,0,1,2.075-2.075h.013A2.074,2.074,0,0,1-723.759,182.354Z" transform="translate(728.128 -180.058)" fill="#f7941e"/>
          <path id="Path_31" data-name="Path 31" d="M-723.028,183.166a1.99,1.99,0,0,1-1.022,1.74h-.254s0,0,0,0,0,0,0,0a.04.04,0,0,1-.01-.008h-1.683a1.989,1.989,0,0,1-1.022-1.74,1.993,1.993,0,0,1,1.993-1.993h.013A1.993,1.993,0,0,1-723.028,183.166Z" transform="translate(727.317 -180.87)" fill="#ebca27"/>
          <g id="Group_9" data-name="Group 9" transform="translate(0.335 0.335)">
            <g id="Group_6" data-name="Group 6" opacity="0.2">
              <path id="Path_32" data-name="Path 32" d="M-725,185.214h-.019a.054.054,0,0,0-.032,0h.058Zm1.146-.109-.013-.017a.006.006,0,0,0,0,0,.1.1,0,0,0-.111-.014.086.086,0,0,0-.043.117.061.061,0,0,0,.025.03.04.04,0,0,0,.01.008s0,0,0,0,0,0,0,0h.109A.082.082,0,0,0-723.853,185.106Zm-1.625-.016v0l0,0a.161.161,0,0,0-.013-.017s0,0-.006,0a.162.162,0,0,0-.019-.014.092.092,0,0,0-.118.039.088.088,0,0,0,.033.115s0,0,0,0l.017.009h.071a.1.1,0,0,0,.041-.044A.08.08,0,0,0-725.478,185.09Zm2.076-.3a.03.03,0,0,0-.008-.014s0,0,0,0l-.006,0h0a.091.091,0,0,0-.118.011.086.086,0,0,0-.01.123c.01.006.013.013.024.019a0,0,0,0,0,0,0h0l0,0a.105.105,0,0,0,.043.009.112.112,0,0,0,.054-.025l.013-.013A.073.073,0,0,0-723.4,184.791Zm-2.533-.024a.03.03,0,0,0-.013-.016h0s0,0,0,0a.091.091,0,0,0-.126,0,.089.089,0,0,0,0,.125l.014.013s0,0,.006,0a.017.017,0,0,0,.01,0,.059.059,0,0,0,.043.014.116.116,0,0,0,.062-.032A.1.1,0,0,0-725.934,184.768Zm2.888-.4a0,0,0,0,1,0,0,.08.08,0,0,0-.018-.02s0,0,0,0l-.016-.013a.1.1,0,0,0-.123.043.083.083,0,0,0,.027.118h0l0,0a.078.078,0,0,0,.049.013.084.084,0,0,0,.069-.041l.011-.017A.074.074,0,0,0-723.046,184.363Zm-3.227-.032s0,0,0,0a.045.045,0,0,0-.013-.019.086.086,0,0,0-.1-.013.09.09,0,0,0-.036.12l.011.016a.068.068,0,0,0,.032.032.063.063,0,0,0,.041.008.11.11,0,0,0,.043-.013A.1.1,0,0,0-726.273,184.332Zm3.434-.486h0l-.008-.013s0,0,0,0a.1.1,0,0,0-.047-.025.1.1,0,0,0-.107.076.085.085,0,0,0,.044.1v0s0,0,0,0a.057.057,0,0,0,.017.006.068.068,0,0,0,.027,0,.1.1,0,0,0,.079-.068l0-.019A.073.073,0,0,0-722.839,183.846Zm-3.622-.006a.055.055,0,0,0-.011-.024.038.038,0,0,0-.016-.02.086.086,0,0,0-.079-.025.091.091,0,0,0-.066.107l0,.019a.065.065,0,0,0,.039.044s0,0,0,0l0,0a.065.065,0,0,0,.043.011.036.036,0,0,0,.017,0A.1.1,0,0,0-726.461,183.839Zm3.674-.523a.066.066,0,0,0-.013-.036.037.037,0,0,0-.013-.019.086.086,0,0,0-.069-.025.09.09,0,0,0-.082.095l0,.024a.083.083,0,0,0,.042.068s0,0,0,0l0,0a.063.063,0,0,0,.047.011.086.086,0,0,0,.082-.093Zm-3.722-.058h0a.016.016,0,0,0-.009-.013s0-.006-.006-.006a.085.085,0,0,0-.051-.024.09.09,0,0,0-.095.084v.016a.07.07,0,0,0,.038.071h0s0,0,0,0v0a.019.019,0,0,0,.008,0l.031.006h.011a.1.1,0,0,0,.085-.092A.1.1,0,0,0-726.509,183.258Zm3.6-.489-.006-.017a.012.012,0,0,0,0-.006s0,0,0,0a.138.138,0,0,0-.013-.017.083.083,0,0,0-.095-.014.1.1,0,0,0-.047.122.081.081,0,0,0,.038.041s0,0,0,0,0,0,.006,0a.074.074,0,0,0,.041.009.065.065,0,0,0,.028-.006A.087.087,0,0,0-722.909,182.769Zm-3.471-.046a.038.038,0,0,0-.014-.021s0,0-.008,0a.037.037,0,0,0-.019-.014.087.087,0,0,0-.115.049l-.008.019a.088.088,0,0,0,.038.107.017.017,0,0,0,.01,0s0,0,0,0a.071.071,0,0,0,.04.006.091.091,0,0,0,.076-.057l.01-.016A.086.086,0,0,0-726.379,182.723Zm3.185-.46v0l-.01-.013,0,0a.009.009,0,0,0-.006,0,.081.081,0,0,0-.11,0,.093.093,0,0,0-.006.129.058.058,0,0,0,.025.022s0,0,0,0h0a.084.084,0,0,0,.043.009.091.091,0,0,0,.049-.021A.089.089,0,0,0-723.194,182.263Zm-2.9-.019a.031.031,0,0,0-.013-.016.026.026,0,0,0-.008-.011.1.1,0,0,0-.126.014l-.009.016a.085.085,0,0,0,.013.123l.009.006a.1.1,0,0,0,.052.014.1.1,0,0,0,.065-.033l.011-.013A.091.091,0,0,0-726.095,182.244Zm2.5-.354a.256.256,0,0,0-.021-.022s0,0-.006,0l-.013-.009a.09.09,0,0,0-.123.022.087.087,0,0,0,.022.123h0v0s.006,0,.011.009,0,0,0,0a.1.1,0,0,0,.054.013.093.093,0,0,0,.068-.04A.086.086,0,0,0-723.592,181.891Zm-2.1-.021a.01.01,0,0,0,0-.006.1.1,0,0,1-.013-.013,0,0,0,0,1,0,0,.086.086,0,0,0-.109-.006l-.012.008a.089.089,0,0,0-.026.123.076.076,0,0,0,.028.03h0a0,0,0,0,0,0,0,.092.092,0,0,0,.044.008.082.082,0,0,0,.043-.014l.019-.009A.087.087,0,0,0-725.688,181.87Zm1.6-.224a.078.078,0,0,0-.014-.019.065.065,0,0,0-.036-.02l-.014,0a.084.084,0,0,0-.11.057.085.085,0,0,0,.038.1l0,0s0,0,0,0v0a.039.039,0,0,0,.016.008l.018,0a.055.055,0,0,0,.032,0,.086.086,0,0,0,.077-.063A.078.078,0,0,0-724.089,181.646Zm-1.085.013a.069.069,0,0,0-.013-.024.036.036,0,0,0-.014-.017.08.08,0,0,0-.083-.021l-.017,0a.085.085,0,0,0-.052.111.084.084,0,0,0,.041.049h0a.135.135,0,0,0,.05.01.058.058,0,0,0,.022-.006A.084.084,0,0,0-725.174,181.659Zm.538-.1a.07.07,0,0,0-.013-.017s-.006,0-.008-.006a.079.079,0,0,0-.041-.016l-.013,0h-.02a.083.083,0,0,0-.081.09.1.1,0,0,0,.044.071,0,0,0,0,0,0,0l0,0a.118.118,0,0,0,.046.013h.01a.014.014,0,0,0,.008,0,.087.087,0,0,0,.074-.085A.084.084,0,0,0-724.636,181.558Z" transform="translate(726.671 -181.516)"/>
            </g>
            <g id="Group_7" data-name="Group 7" transform="translate(0.03 0.028)">
              <path id="Path_33" data-name="Path 33" d="M-723.522,185.418s-.006-.013-.013-.014v0s0,0,0,0a.063.063,0,0,0-.016-.013.1.1,0,0,0-.094-.006.091.091,0,0,0-.046.118h.171A.091.091,0,0,0-723.522,185.418Zm-1.63-.027a.045.045,0,0,0-.025-.021v0l0,0-.006,0a.089.089,0,0,0-.12.04.085.085,0,0,0,0,.082.026.026,0,0,0,.009.013h.147a.05.05,0,0,0,.01-.016A.086.086,0,0,0-725.151,185.391Zm2.081-.291a.014.014,0,0,0-.009-.014.042.042,0,0,0-.021-.014.1.1,0,0,0-.109.016.09.09,0,0,0-.024.1.016.016,0,0,0,0,.009l0,0,0,0a0,0,0,0,0,0,0s0,.008.008.011a.086.086,0,0,0,.073.028.1.1,0,0,0,.054-.024l.014-.011A.08.08,0,0,0-723.07,185.1Zm-2.541-.035-.006,0a.055.055,0,0,0-.016-.013.089.089,0,0,0-.109.016.084.084,0,0,0-.016.1.036.036,0,0,1,.006.011.059.059,0,0,1,.013.014l.014.014a.08.08,0,0,0,.057.019.092.092,0,0,0,.062-.03A.1.1,0,0,0-725.611,185.066Zm2.888-.4a.124.124,0,0,0-.022-.017,0,0,0,0,1,0,0l0,0a.094.094,0,0,0-.123.04.085.085,0,0,0,0,.088h0l0,0a.067.067,0,0,0,.028.032.088.088,0,0,0,.054.013.1.1,0,0,0,.068-.044l.01-.016A.076.076,0,0,0-722.723,184.662Zm-3.218-.017-.011-.016v0s0,0,0,0a.069.069,0,0,0-.017-.013s0,0,0,0a.083.083,0,0,0-.085,0,.088.088,0,0,0-.038.118.178.178,0,0,0,.013.017.072.072,0,0,0,.071.038.075.075,0,0,0,.044-.014A.1.1,0,0,0-725.941,184.644Zm3.42-.5-.018-.014h0c-.011,0-.019-.008-.027-.009a.1.1,0,0,0-.109.076.075.075,0,0,0,.01.062.006.006,0,0,0,0,0v0s0,0,0,0a.078.078,0,0,0,.047.038.165.165,0,0,0,.027,0,.087.087,0,0,0,.081-.068l0-.019A.072.072,0,0,0-722.52,184.141Zm-3.608.01a.052.052,0,0,0-.016-.027.038.038,0,0,0,0-.011s0-.006-.01-.009-.008-.006-.013-.006a.069.069,0,0,0-.063-.013.087.087,0,0,0-.068.1l0,.019a.033.033,0,0,0,.006.016s0,0,0,0a.075.075,0,0,0,.081.043l.016,0A.1.1,0,0,0-726.129,184.15Zm3.676-.521a.082.082,0,0,0-.022-.047.021.021,0,0,0-.006-.011.033.033,0,0,0-.017-.009.091.091,0,0,0-.052-.013.089.089,0,0,0-.08.093l0,.025a.06.06,0,0,0,.009.036s0,0,0,0l0,0a.087.087,0,0,0,.079.044.094.094,0,0,0,.084-.095Zm-3.728-.062a.017.017,0,0,0-.006-.013.091.091,0,0,0-.021-.016h0a.07.07,0,0,0-.036-.011.092.092,0,0,0-.093.08v.019a.057.057,0,0,0,.006.039h0s0,0,0,0v0a.087.087,0,0,0,.073.044h.01a.106.106,0,0,0,.085-.092A.074.074,0,0,0-726.181,183.568Zm3.6-.486-.006-.017a.033.033,0,0,0-.011-.019s0,0,0-.006a.046.046,0,0,0-.017-.013s0,0,0,0a.091.091,0,0,0-.076,0,.1.1,0,0,0-.046.126s0,0,0,.008,0,0,0,0a.084.084,0,0,0,.081.044.138.138,0,0,1,.025,0A.089.089,0,0,0-722.577,183.081Zm-3.479-.062a.021.021,0,0,0-.008-.009.036.036,0,0,0-.014-.006s-.006-.006-.009-.009a.089.089,0,0,0-.115.05l-.006.016a.074.074,0,0,0,0,.068s0,0,0,.008v0a.084.084,0,0,0,.044.036.067.067,0,0,0,.039.006.091.091,0,0,0,.076-.055l0-.017A.077.077,0,0,0-726.056,183.02Zm3.193-.444-.008-.013s0,0,0,0-.013-.011-.018-.016v0a.086.086,0,0,0-.1.009.106.106,0,0,0-.027.1s0,.006.006.009l0,0s0,.006,0,.008,0,0,0,0,0,0,0,0a.081.081,0,0,0,.077.033.078.078,0,0,0,.047-.016A.09.09,0,0,0-722.863,182.576Zm-2.909-.03s0,0,0,0-.006-.006-.011-.011,0-.006-.009-.006a.089.089,0,0,0-.114.021l-.011.013a.092.092,0,0,0-.01.1.052.052,0,0,0,.024.025.075.075,0,0,0,.062.019.081.081,0,0,0,.062-.033l.013-.013A.086.086,0,0,0-725.772,182.546Zm2.5-.355s0-.006-.006-.008-.008,0-.009-.006l-.005,0-.008,0a.085.085,0,0,0-.123.02.091.091,0,0,0-.006.092v0a.081.081,0,0,0,.027.03l.016.009a.072.072,0,0,0,.057.014.092.092,0,0,0,.068-.038A.089.089,0,0,0-723.271,182.191Zm-2.084-.014a.018.018,0,0,0-.011-.008c0-.009-.014-.013-.021-.017a.09.09,0,0,0-.095.006l-.013.008a.087.087,0,0,0-.027.115v0h0v0a.091.091,0,0,0,.08.04.122.122,0,0,0,.043-.014l.017-.013A.09.09,0,0,0-725.355,182.177Zm1.585-.234a.067.067,0,0,0-.019-.016c-.008,0-.011-.006-.019-.008l-.013,0a.088.088,0,0,0-.112.058.081.081,0,0,0,.006.068h0l0,0a0,0,0,0,0,0,0,.078.078,0,0,0,.046.038l.019.006a.081.081,0,0,0,.033,0,.094.094,0,0,0,.077-.065A.088.088,0,0,0-723.77,181.943Zm-1.074.025a.072.072,0,0,0-.017-.033.074.074,0,0,0-.025-.019.067.067,0,0,0-.065-.008l-.019.006a.081.081,0,0,0-.052.107.008.008,0,0,1,0,0s0,0,0,0l0,0a.014.014,0,0,0,0,.006.093.093,0,0,0,.087.041.051.051,0,0,0,.022,0A.09.09,0,0,0-724.843,181.968Zm.531-.109a.094.094,0,0,0-.022-.021.094.094,0,0,0-.042-.013h-.02a.085.085,0,0,0-.081.09.091.091,0,0,0,.01.036h0s0,0,0,0a0,0,0,0,0,0,0,0,0,0,0,0,0,0,.112.112,0,0,0,.068.043h.025a.088.088,0,0,0,.082-.087A.081.081,0,0,0-724.313,181.859Z" transform="translate(726.34 -181.826)" fill="#fff"/>
            </g>
            <g id="Group_8" data-name="Group 8" transform="translate(0.018 0.011)">
              <path id="Path_34" data-name="Path 34" d="M-723.653,185.232v0s0,0,0,0a.066.066,0,0,0-.029-.03.006.006,0,0,0,0,0,.1.1,0,0,0-.09,0,.089.089,0,0,0-.046.117.15.15,0,0,0,.013.017h.148A.081.081,0,0,0-723.653,185.232Zm-1.617-.013a.105.105,0,0,0-.039-.043s0,0-.006,0a.091.091,0,0,0-.12.04.1.1,0,0,0,.016.1s0,0,0,0a.025.025,0,0,0,.013.009h.112a.094.094,0,0,0,.024-.032A.085.085,0,0,0-725.27,185.22Zm2.081-.291a.014.014,0,0,0-.009-.014.028.028,0,0,0-.01-.017.128.128,0,0,0-.024-.016l-.006,0h0a.105.105,0,0,0-.1.024.085.085,0,0,0-.011.115.016.016,0,0,0,0,.009l0,0s0,0,0,0v0a.074.074,0,0,0,.062.02.105.105,0,0,0,.054-.022l.014-.014A.074.074,0,0,0-723.188,184.929Zm-2.541-.035-.006,0a.036.036,0,0,0-.013-.019.033.033,0,0,0-.016-.009h0a.088.088,0,0,0-.107.014.086.086,0,0,0,0,.118l.016.014.006.006a.063.063,0,0,0,.055.019.087.087,0,0,0,.062-.028A.1.1,0,0,0-725.729,184.894Zm2.888-.4a.1.1,0,0,0-.04-.04h0s0,0,0,0a.1.1,0,0,0-.12.041.092.092,0,0,0,.008.107h0l0,0a.029.029,0,0,0,.016.013.071.071,0,0,0,.054.013.08.08,0,0,0,.068-.041l.011-.019A.073.073,0,0,0-722.841,184.49Zm-3.229-.033v0s0,0,0,0a.074.074,0,0,0-.033-.033.1.1,0,0,0-.085,0,.089.089,0,0,0-.035.122l.009.016a.154.154,0,0,0,.013.017.089.089,0,0,0,.06.022.113.113,0,0,0,.044-.014A.1.1,0,0,0-726.07,184.457Zm3.431-.488a.064.064,0,0,0-.027-.027s0,0,0,0a.188.188,0,0,0-.027-.013.1.1,0,0,0-.109.079.08.08,0,0,0,.022.077.006.006,0,0,0,0,0v0l0,0a.063.063,0,0,0,.036.019.051.051,0,0,0,.027,0,.094.094,0,0,0,.081-.069l0-.016A.064.064,0,0,0-722.639,183.969Zm-3.621-.008s0-.008,0-.009a.033.033,0,0,0,0-.011s0-.006-.009-.009a.044.044,0,0,0-.028-.027.079.079,0,0,0-.06-.011.09.09,0,0,0-.068.106l0,.016a.051.051,0,0,0,.019.035s0,0,0,0l0,0a.083.083,0,0,0,.063.025.124.124,0,0,1,.017,0A.1.1,0,0,0-726.26,183.961Zm3.676-.521a.066.066,0,0,0-.009-.03.02.02,0,0,0-.006-.011.074.074,0,0,0-.03-.028.089.089,0,0,0-.052-.013.088.088,0,0,0-.079.095v.025a.075.075,0,0,0,.022.054s0,0,0,0l0,0a.083.083,0,0,0,.066.025.089.089,0,0,0,.084-.092Zm-3.715-.044a.017.017,0,0,0-.006-.013.052.052,0,0,0-.032-.029s0-.006-.006-.006a.056.056,0,0,0-.032-.008.087.087,0,0,0-.095.077v.02a.067.067,0,0,0,.019.057h0s0,0,0,0v0l.008,0a.092.092,0,0,0,.052.021h.011a.1.1,0,0,0,.084-.09A.084.084,0,0,0-726.3,183.4Zm3.592-.5-.006-.019s0,0,0-.006a.068.068,0,0,0-.033-.033.085.085,0,0,0-.076,0,.1.1,0,0,0-.046.123.043.043,0,0,0,.012.019s0,0,0,.008,0,0,0,0,0,0,.006,0a.088.088,0,0,0,.062.024l.027-.006A.09.09,0,0,0-722.707,182.892Zm-3.468-.044a.021.021,0,0,0-.008-.009.065.065,0,0,0-.028-.027s0,0-.008,0a.086.086,0,0,0-.115.049l-.006.017a.084.084,0,0,0,.013.084s0,0,0,.008,0,0,.01.006,0,0,0,0a.1.1,0,0,0,.02.014.16.16,0,0,0,.039.006.1.1,0,0,0,.076-.058l.006-.014A.093.093,0,0,0-726.174,182.848Zm3.185-.456s0,0,0,0v0l-.009-.016a.08.08,0,0,0-.024-.017.008.008,0,0,0-.006,0,.081.081,0,0,0-.092.014.091.091,0,0,0-.013.12s0,.006.006.009l0,0s0,.006,0,.008,0,0,0,0h0a.09.09,0,0,0,.063.024.091.091,0,0,0,.047-.02A.088.088,0,0,0-722.99,182.392Zm-2.9-.017s0,0,0,0a.176.176,0,0,0-.022-.03.028.028,0,0,0-.011,0,.083.083,0,0,0-.112.019l-.013.011a.091.091,0,0,0,0,.118.043.043,0,0,0,.011.008.088.088,0,0,0,.062.021.089.089,0,0,0,.062-.035l.012-.013A.09.09,0,0,0-725.89,182.374Zm2.5-.355s0-.006-.006-.008a.043.043,0,0,0-.022-.025l-.013-.008s0,0-.006,0a.089.089,0,0,0-.117.025.09.09,0,0,0,.006.111v0s.007,0,.011.009,0,0,0,0l.019.011a.083.083,0,0,0,.055.014.084.084,0,0,0,.068-.04A.092.092,0,0,0-723.389,182.019Zm-2.1-.022s0-.006,0-.011a.084.084,0,0,0-.033-.025,0,0,0,0,1,0,0,.091.091,0,0,0-.092.008l-.011.008a.092.092,0,0,0-.025.125s.006.008.009.009,0,0,0,0h0a0,0,0,0,0,0,0,.1.1,0,0,0,.063.022.1.1,0,0,0,.044-.014l.017-.013A.087.087,0,0,0-725.484,182Zm1.6-.226a.065.065,0,0,0-.033-.035.066.066,0,0,0-.017-.008l-.013,0a.088.088,0,0,0-.112.058.083.083,0,0,0,.019.087h0l0,0h0v0a.066.066,0,0,0,.033.02l.019,0a.078.078,0,0,0,.033,0,.092.092,0,0,0,.077-.063A.09.09,0,0,0-723.888,181.771Zm-1.086.009,0-.017a.072.072,0,0,0-.039-.036.078.078,0,0,0-.062-.01l-.022.006a.082.082,0,0,0-.051.107.056.056,0,0,0,.014.024s0,0,0,0l0,0a.013.013,0,0,0,0,.006h0a.1.1,0,0,0,.073.022l.021,0A.089.089,0,0,0-724.974,181.781Zm.543-.093a.075.075,0,0,0-.035-.038s-.006,0-.008-.006a.233.233,0,0,0-.035-.006h-.021a.088.088,0,0,0-.081.092.09.09,0,0,0,.022.052h0s0,0,0,0,0,0,0,.006a.093.093,0,0,0,.063.025h.013a.09.09,0,0,0,.082-.087A.1.1,0,0,0-724.431,181.688Z" transform="translate(726.47 -181.637)" fill="#f4dd77"/>
            </g>
          </g>
          <path id="Path_35" data-name="Path 35" d="M-728,177.874v4.036h-1.506a2.285,2.285,0,0,1-.766-1.338,2.256,2.256,0,0,1-.036-.4,2.291,2.291,0,0,1,.171-.867,2.3,2.3,0,0,1,2.125-1.427Z" transform="translate(730.313 -177.874)" fill="#fff" opacity="0.2"/>
        </g>
        <path id="Path_36" data-name="Path 36" d="M-725.84,221.934a.138.138,0,0,1-.138.138h-4.342a.138.138,0,0,1-.138-.138h0a.138.138,0,0,1,.138-.138h4.342a.138.138,0,0,1,.138.138Z" transform="translate(733.281 -217.759)" fill="#993104"/>
        <rect id="Rectangle_6" data-name="Rectangle 6" width="2.995" height="0.105" transform="translate(3.632 4.04)" fill="#751e00"/>
      </g>
      <path id="Path_37" data-name="Path 37" d="M-763.448,94.044l-.068.148-.59,1.27-.211.454-4.063,8.75-.1.211-1.849,3.982-.1.211-4.063,8.749-.211.457-.7,1.514-.063.136a1.436,1.436,0,0,1-.5-.767,1.4,1.4,0,0,1-.046-.355V103.788h-.067v-1.75h.067v-.624h-.067V99.666h.067V94.934a1.439,1.439,0,0,1,1.439-1.438h9.991A1.432,1.432,0,0,1-763.448,94.044Z" transform="translate(793.439 -88.856)" fill="#fff" opacity="0.1"/>
      <path id="Path_38" data-name="Path 38" d="M-790.432,292.736h-.768c.021.083.039.163.054.238a6.237,6.237,0,0,0,.17.847c.074.225.127.407.194.638-.115-.01-.22-.019-.266-.024-.4-.056-.451-.062-.769-.1-.147-.016-.367-.048-.6-.063h0c-.124-.008-.235-.019-.336-.027s-.165-.016-.233-.021c-.191-.014-.283-.027-.417-.041s-.241-.02-.361-.028-.358-.085-.651-.112a4.326,4.326,0,0,0-.48-.008c.014-.036.034-.083.056-.137v0c.035-.083.077-.182.119-.288s.089-.232.122-.344c.072-.246.156-.509.214-.787.062-.3.094-.451.142-.66a11.68,11.68,0,0,0,.307-1.826c.019-.258.022-.526.036-.786.021-.425.008-.839.038-1.259,0-.055,0-.113,0-.168s.019-.136.022-.193a1.455,1.455,0,0,1,.044-.256,1.462,1.462,0,0,1,.071-.264c.016-.037.025-.093.065-.185.161-.365.377-.808.593-1.228v0c.058-.113.115-.225.172-.332.018-.034.036-.068.054-.1.079-.149.155-.292.224-.428.039-.076.078-.153.118-.228a.347.347,0,0,1,.021-.042.03.03,0,0,1,0-.01l.01-.022.155-.311a.082.082,0,0,1,0-.009c.036-.074.066-.135.1-.19a1.648,1.648,0,0,1,.087-.145,1.058,1.058,0,0,1,.189-.2,1.222,1.222,0,0,1,.2-.119.367.367,0,0,1,.221-.063c.027,0,.048.009.07.011l.148.009h0c.078,0,.147.008.208.014a.781.781,0,0,1,.174.031.482.482,0,0,1,.161.079.825.825,0,0,1,.163.177c.038.054.072.108.1.164.022.037.044.078.069.122l0,.007c.03.071.067.141.091.212a.573.573,0,0,1,.034.132c0,.01,0,.022,0,.033,0,.028.007.055.011.083.016.143.028.288.036.432a7.022,7.022,0,0,1-.364,2.634c-.029.085-.05.148-.061.183a.659.659,0,0,1-.077.137.456.456,0,0,0-.082.168c0,.056-.008.112-.013.168s-.008.108-.013.162c-.026.327-.052.689-.062,1.046,0,.015,0,.029,0,.044,0,.065,0,.129,0,.194,0,.138,0,.273.008.4.007.146.015.286.028.418.02.195.038.374.059.546a7.753,7.753,0,0,0,.216,1.159C-790.554,292.378-790.487,292.562-790.432,292.736Z" transform="translate(810.536 -261.352)" opacity="0.2"/>
      <path id="Path_39" data-name="Path 39" d="M-799.075,294.146c.006.022.012.044.019.068a3.555,3.555,0,0,1-.465-.051c-.1-.02-.589-.086-.705-.11-.4-.082-.446-.091-.761-.146l-.074-.013c-.141-.027-.327-.063-.526-.09-.229-.03-.421-.065-.564-.085h-.007c-.1-.014-.188-.028-.268-.042-.037-.007-.075-.014-.115-.02l-.023,0-.044-.007h0c-.1-.016-.207-.03-.312-.044a1.2,1.2,0,0,1-.151-.036h0l-.07-.018c-.049-.015-.1-.031-.161-.045-.037-.009-.077-.018-.119-.027l-.01,0c-.041-.009-.084-.018-.128-.024a3.1,3.1,0,0,0-.435-.036.247.247,0,0,1-.044,0s0,0,0,0c.07-.15.244-.47.346-.746.088-.24.188-.5.265-.77.082-.293.124-.444.185-.649a11.808,11.808,0,0,0,.426-1.8c.035-.257.056-.522.086-.781.05-.423.063-.837.121-1.254.007-.055.008-.112.015-.167s.028-.135.035-.191a1.584,1.584,0,0,1,.061-.253,1.472,1.472,0,0,1,.089-.258c.019-.036.03-.092.077-.182l.038-.073c.064-.121.134-.25.209-.383.021-.039.043-.077.065-.117.2-.345.414-.711.614-1.035.076-.122.149-.242.217-.356.012-.019.023-.037.034-.056.044-.073.088-.146.132-.221l.024-.04a.269.269,0,0,1,.018-.031c.063-.108.122-.209.174-.3l.04-.068a2.057,2.057,0,0,1,.17-.262h0a1,1,0,0,1,.2-.187,1.123,1.123,0,0,1,.2-.107l.034-.015a.332.332,0,0,1,.19-.033c.027,0,.047.013.069.015l.308.039h0l.045.007a.854.854,0,0,1,.172.043.5.5,0,0,1,.155.09.8.8,0,0,1,.151.188c.035.056.065.113.094.17l.059.127c.028.076.06.149.082.225a.641.641,0,0,1,.024.133c0,.028,0,.056,0,.084.009.155.013.311.011.466a7.036,7.036,0,0,1-.534,2.605c-.034.083-.06.144-.072.179a.655.655,0,0,1-.086.13.458.458,0,0,0-.092.162c-.008.056-.015.112-.023.166s-.015.107-.023.161c-.047.325-.1.684-.13,1.039,0,.018,0,.035,0,.052-.006.065-.012.13-.015.194-.009.134-.016.266-.019.394,0,.147,0,.287,0,.42.007.2.014.38.023.554a7.7,7.7,0,0,0,.141,1.166c.031.156.084.338.128.509.021.083.039.163.054.238a6.231,6.231,0,0,0,.17.847c.074.225.127.407.194.638C-799.083,294.12-799.079,294.132-799.075,294.146Z" transform="translate(818.839 -260.999)" fill="#e8b290"/>
      <path id="Path_40" data-name="Path 40" d="M-773.29,289.947a.5.5,0,0,1-.122.062,1,1,0,0,1-.379.045,2.038,2.038,0,0,1-.292-.036,1.794,1.794,0,0,1-.3-.083c-.073-.028-.159-.056-.245-.1a.787.787,0,0,1-.216-.15.776.776,0,0,1-.094-.11.905.905,0,0,1-.069-.114h0a.706.706,0,0,1-.027-.1.368.368,0,0,1-.018-.068.91.91,0,0,1-.006-.1,2.542,2.542,0,0,1,.177-.8c.041-.114.076-.221.127-.334a1.917,1.917,0,0,1,.115-.213c.023-.035.048-.072.077-.112s.076-.1.12-.152.1-.108.154-.168a.843.843,0,0,1,.13-.1.948.948,0,0,1,.172-.091,1.146,1.146,0,0,1,.376-.078.929.929,0,0,1,.351.046.915.915,0,0,1,.233.134,1.214,1.214,0,0,1,.177.171,1,1,0,0,1,.142.181,1.3,1.3,0,0,1,.1.325.513.513,0,0,1,.013.17q0,.1,0,.179c0,.044,0,.085-.007.125a.906.906,0,0,1-.048.211c-.042.129-.056.216-.1.332a1.933,1.933,0,0,1-.476.877c-.023.019-.045.035-.068.052Z" transform="translate(792.514 -264.706)" fill="#f1c2b1"/>
      <path id="Path_41" data-name="Path 41" d="M-840.425,398.849a4.823,4.823,0,0,1-.379,1.4,3.857,3.857,0,0,1-.359.673,3.441,3.441,0,0,1-.223.3,8.411,8.411,0,0,0-.971,2.041,22.621,22.621,0,0,0-.829,2.753,13.058,13.058,0,0,0-.4,2.423l-.422.016q-.332.012-.666.029-.528.026-1.056.058l-.393.023-.345.022c-.222.013-.445.028-.667.042-.058,0-.115.006-.173.01l-.439.027-.343.021-.241.013-.319.019-.278.014c-.09.006-.18.009-.269.014l-.225.011-.246.011-.133.006-.159.006-.107,0-.1,0a22.566,22.566,0,0,0,.833-2.666c.268-.991.553-2.126.8-3.194.2-.891.3-1.071.464-2,.075-.421.127-.852.159-1.266.018-.24.033-.481.044-.72.014-.281.025-.559.031-.832.015-.639.013-1.25,0-1.8-.016-.854-.1-1.8-.132-2.226,0-.073-.011-.145-.013-.216a.438.438,0,0,0,.093.042.734.734,0,0,0,.1.023.788.788,0,0,0,.124.019c.042,0,.071.01.118.011.083,0,.214.013.3.016s.161.021.239.024.187.009.282.017.186.012.276.013.205,0,.322,0l.29-.007a1.922,1.922,0,0,1,.381.039c.166.03.487.132.647.154l.173.027c.2.032.356.064.6.1.186.027.4.028.581.052.212.029.43.089.639.112.247.028.487.125.728.142s.5.121.72.125q.217,0,.427,0c.016.076.036.15.056.226a15.277,15.277,0,0,1,.426,2.066A8.45,8.45,0,0,1-840.425,398.849Z" transform="translate(860.725 -361.626)" fill="#e8b290"/>
      <g id="Group_14" data-name="Group 14" transform="translate(1.753 37.317)">
        <path id="Path_42" data-name="Path 42" d="M-841.163,451.026a3.431,3.431,0,0,1-.223.3,8.413,8.413,0,0,0-.971,2.041,22.618,22.618,0,0,0-.829,2.753,13.058,13.058,0,0,0-.4,2.423l-.422.016q-.332.012-.666.029-.528.026-1.056.058l-.393.023-.345.022c-.222.013-.445.028-.667.042-.058,0-.115.006-.173.01l-.439.027-.343.021-.241.013-.319.019-.278.014c-.09.006-.18.009-.269.014l-.225.011-.246.01-.133.006-.159.006-.107,0-.1,0a22.571,22.571,0,0,0,.833-2.666c.268-.991.553-2.126.8-3.194.2-.891.3-1.071.464-2,.075-.421.127-.852.159-1.266.018-.24.033-.481.044-.72l3.488,1.032Z" transform="translate(858.972 -449.042)" opacity="0.2"/>
        <g id="Group_12" data-name="Group 12" transform="translate(1.49 0.387)">
          <path id="Path_43" data-name="Path 43" d="M-916.847,454.418l-.349,1.114-8.742,27.979-3.793-1.121,8.311-28.107.232-.784a.35.35,0,0,1,.435-.236Z" transform="translate(929.731 -453.248)" fill="#fff"/>
          <path id="Path_44" data-name="Path 44" d="M-875.842,467.382l-.232.785-8.311,28.106-4.076-1.205,8.742-27.979.349-1.114,3.292.973A.35.35,0,0,1-875.842,467.382Z" transform="translate(892.254 -464.804)" fill="#eaeaea"/>
        </g>
        <path id="Path_45" data-name="Path 45" d="M-913.551,466.829l-8.311,28.106-4.076-1.205-3.793-1.121,8.311-28.107,4.169,1.233.055.016Z" transform="translate(931.222 -463.08)" opacity="0.2"/>
        <g id="Group_13" data-name="Group 13" transform="translate(0 1.762)">
          <path id="Path_46" data-name="Path 46" d="M-937.4,468.459l-8.543,28.892,4.764,1.408,9.09-29.094-4.876-1.442A.35.35,0,0,0-937.4,468.459Z" transform="translate(945.946 -468.209)" fill="#485a66"/>
          <path id="Path_47" data-name="Path 47" d="M-880.907,485.274l-4.115-1.217-9.09,29.094,4.9,1.449,8.543-28.891A.35.35,0,0,0-880.907,485.274Z" transform="translate(898.876 -482.6)" fill="#405059"/>
        </g>
      </g>
      <path id="Path_48" data-name="Path 48" d="M-850.3,478.915c-.051.379-.289.66-.531.627s-.4-.366-.347-.745.289-.66.531-.627S-850.249,478.536-850.3,478.915Z" transform="translate(861.649 -438.173)" fill="#c4c4c4"/>
      <path id="Path_49" data-name="Path 49" d="M-857.909,496.957c-.051.379-.289.66-.531.627s-.4-.366-.346-.745.289-.66.531-.627S-857.858,496.579-857.909,496.957Z" transform="translate(868.559 -454.558)" fill="#c4c4c4"/>
      <g id="Group_20" data-name="Group 20" transform="translate(22.556 21.824)">
        <path id="Path_50" data-name="Path 50" d="M-644.108,312.4v3.845c-.085-.21-.17-.42-.264-.647-.073-.182-.152-.374-.239-.584-.066-.219-.177-.447-.2-.568-.016-.076-.06-.232-.1-.387a2.241,2.241,0,0,1-.047-.272,1.2,1.2,0,0,1-.036-.261.705.705,0,0,1-.008-.118,1.792,1.792,0,0,1,.05-.38.452.452,0,0,1,.153-.239,2.516,2.516,0,0,1,.526-.332C-644.21,312.432-644.156,312.415-644.108,312.4Z" transform="translate(651.853 -309.465)" fill="#1d1d1b" opacity="0.2"/>
        <path id="Path_51" data-name="Path 51" d="M-701.656,288.911l-1.3,2.22c-.1-.273-.2-.567-.224-.606-.1-.2-.218-.439-.319-.635l-.119-.227c-.03-.057-.059-.114-.088-.167-.07-.132-.139-.266-.211-.4-.05-.093-.1-.187-.161-.277-.04-.065-.081-.13-.123-.193l-.052-.078c-.091-.132-.179-.267-.269-.4-.029-.043-.058-.087-.088-.129-.069-.1-.138-.2-.208-.3-.221-.318-.446-.631-.66-.953-.027-.04-.052-.08-.08-.121s-.061-.093-.091-.141l-.053-.084c-.02-.033-.041-.065-.06-.1l-.07-.114c-.032-.056-.064-.111-.1-.168s-.06-.1-.09-.155-.068-.109-.1-.162c-.313-.482-.664-.88-1.011-1.373l-.042-.06c-.09-.127-.178-.255-.263-.382h0c-.052-.076-.1-.153-.153-.229-.1-.15-.194-.3-.288-.452l-.067-.11c-.046-.074-.091-.15-.135-.225s-.085-.147-.128-.221c-.053-.092-.1-.184-.155-.277-.012-.024-.025-.049-.038-.071s-.014-.026-.021-.04c-.016-.031-.031-.063-.048-.093l-.051-.1a3.129,3.129,0,0,1-.149-.321v0c0-.01-.008-.02-.012-.03a1.46,1.46,0,0,1-.088-.364c0-.023,0-.047,0-.069a.739.739,0,0,1,.008-.1l-.007-.025c-.009-.035-.013-.05-.023-.091a.947.947,0,0,1,0-.112.824.824,0,0,1,.063-.2.652.652,0,0,1,.07-.116.511.511,0,0,1,.091-.094l.014-.011a.489.489,0,0,1,.18-.072.615.615,0,0,1,.21-.008.489.489,0,0,1,.1.027.39.39,0,0,1,.082.039l.105.07a.2.2,0,0,0,.022.017l0,0a1.006,1.006,0,0,1,.166.06.88.88,0,0,1,.09.048,1.459,1.459,0,0,1,.138.093,1.71,1.71,0,0,1,.138.1.772.772,0,0,0,.071.058.4.4,0,0,1,.034.027l.005.005a.216.216,0,0,0,.049.041.108.108,0,0,0,.024.024.2.2,0,0,1,.025.023,1.048,1.048,0,0,1,.094.1c.076.082.1.1.169.184.058.068.1.134.158.2s.124.136.181.207c.028.036.067.082.094.115.109.139.2.248.314.4.175.225.408.489.591.7l.109.126.2.228c.129.148.258.291.387.435l.506.564c.045.049.089.1.133.151s.078.095.116.143l.119.155.081.108c.023.032.046.063.067.094l.058.082C-703.717,285.119-699.159,292.331-701.656,288.911Z" transform="translate(709.782 -280.471)" fill="#1d1d1b" opacity="0.2"/>
        <g id="Group_19" data-name="Group 19" transform="translate(0 0.04)">
          <path id="Path_52" data-name="Path 52" d="M-590.666,454.9c0,.374-.2.675-.439.673s-.43-.307-.427-.681.2-.676.44-.674S-590.663,454.523-590.666,454.9Z" transform="translate(603.302 -438.288)" fill="#fff"/>
          <g id="Group_15" data-name="Group 15">
            <path id="Path_53" data-name="Path 53" d="M-575.351,341.3c-.029,0-.057.06-.086.143-.058.175-.114.45-.17.473a.761.761,0,0,0-.188.1c-.029.019-.073.049-.126.08a.979.979,0,0,1-.449.155c-.058,0-.111,0-.142,0a.888.888,0,0,0-.245.1l-.017.009c-.06.03-.118.059-.167.082a.453.453,0,0,1-.137.007.825.825,0,0,0-.16.02,1.194,1.194,0,0,0-.213.062c-.036.015-.111-.007-.171.008-.107.026-.039.043-.2.059,0-.008-3.069-4.041-3.763-5.1-.119-.183-.234-.361-.34-.527a6.168,6.168,0,0,1-.515-.927c-.28-.817-.676-1.969-1.049-3.058-.056-.163-.113-.329-.169-.493-.339-.985-.823-1.9-1.086-2.658-.086-.246.035-.512-.014-.711a1.513,1.513,0,0,0-.209-.479,1.194,1.194,0,0,1-.084-.143c-.036-.084-.048-.125-.056-.135a1.368,1.368,0,0,1-.108-.178,1.81,1.81,0,0,0-.164-.229c-.022-.028-.042-.053-.055-.072-.089-.126-.124-.2-.179-.281a.461.461,0,0,1-.046-.079c-.039-.076-.078-.171-.119-.258l-.022-.044a2.33,2.33,0,0,0-.154-.328,1.926,1.926,0,0,1-.121-.217c-.018-.038-.033-.077-.052-.125l-.03-.078c-.038-.1-.106-.219-.152-.324s-.084-.189-.117-.284a1.656,1.656,0,0,1-.07-.293,1.36,1.36,0,0,1,.013-.263c.01-.039.018-.129.027-.157a1.2,1.2,0,0,1,.109-.243,1.036,1.036,0,0,1,.273-.27,1.215,1.215,0,0,1,.219-.094,1.109,1.109,0,0,1,.243-.064.965.965,0,0,1,.388.066,1.369,1.369,0,0,1,.273.167,2.512,2.512,0,0,1,.323.416c.063.09.066.111.12.2s.1.147.156.235.1.157.145.245c.057.1.118.218.19.347.03.055.058.128.1.2.03.048.073.117.136.223.021.035.041.071.061.1.042.075.074.128.1.171.072.124.083.142.164.285.061.109.339.508.4.622.04.07.081.142.116.213a1.65,1.65,0,0,1,.09.259c.022.076.044.158.071.244.043.138.1.329.189.594a25.421,25.421,0,0,1,.646,2.65c.038.181.064.363.095.548a23.876,23.876,0,0,0,.754,3.04,2.638,2.638,0,0,0,.378.655c.169.235.387.51.643.809.693.813,2.711,2.691,3.885,3.768h0C-575.765,340.92-575.451,341.2-575.351,341.3Z" transform="translate(598.733 -320.468)" fill="#e8b290"/>
            <path id="Path_54" data-name="Path 54" d="M-605.642,337.978a.544.544,0,0,1-.206.058c-.145.021-.322.026-.4.039s-.217-.06-.278.057c-.051.1-.209.065-.268.108a.741.741,0,0,1-.258.109l-.028.008-.153.044a3.846,3.846,0,0,0-.474.136,1.7,1.7,0,0,1-.342.129.372.372,0,0,1-.283-.03s-.05-.07-.137-.192c-.437-.613-1.823-2.567-2.756-4.009-.28-.435-.52-.822-.681-1.113l-.033-.06c-.8-1.486-1.735-3.269-2.175-4.315l-.66-1.563c-.218-.518-.428-1.014-.617-1.456-.087-.205-.17-.4-.246-.578-.118-.276-.222-.517-.308-.714a.182.182,0,0,1-.012-.027c-.13-.3-.216-.484-.238-.52l-.324-.5a3.41,3.41,0,0,1-.169-.336c-.054-.1-.113-.2-.16-.305a3.332,3.332,0,0,0-.164-.338c-.064-.1-.128-.276-.192-.414-.04-.084-.058-.128-.076-.163s-.068-.089-.125-.185a2.032,2.032,0,0,1-.216-.46.358.358,0,0,1-.016-.038c-.007-.017-.015-.036-.026-.056a.013.013,0,0,0,0-.008c-.058-.124-.149-.3-.192-.407a.02.02,0,0,1,0-.006l-.013-.038c-.053-.173-.064-.184-.1-.316a1.934,1.934,0,0,1-.028-.254c0-.049,0-.215.008-.268a.766.766,0,0,1,.052-.18.938.938,0,0,1,.092-.163.734.734,0,0,1,.09-.1c.021-.021.045-.043.072-.065a1.14,1.14,0,0,1,.307-.178.84.84,0,0,1,.473-.089c.043,0,.086.007.132.013a.571.571,0,0,1,.223.092c.047.031.1.064.136.091a2.618,2.618,0,0,1,.258.312c.07.105.136.167.2.263s.165.213.227.314c.118.193.2.345.35.555.064.087.149.239.2.328a2.632,2.632,0,0,0,.207.28c.081.1.159.2.237.306.055.076.111.151.168.222.114.145.23.291.344.436.075.1.266.367.469.661.035.051.132.254.276.567a.258.258,0,0,0,.012.028c.094.205.207.458.333.744.082.186.17.386.262.6.2.458.422.969.652,1.5s.462,1.071.693,1.608c.368.854,1.047,2.177,1.723,3.443.172.325.345.645.513.954.65,1.2,2.773,4.2,3.449,5.151C-605.721,337.867-605.644,337.974-605.642,337.978Z" transform="translate(627.342 -315.695)" fill="#e8b290"/>
            <path id="Path_55" data-name="Path 55" d="M-632.98,335.732c-.128.07-.369.05-.5.12-.078.044-.213.006-.32.04-.089.028-.23-.016-.3.024a1.937,1.937,0,0,1-.51.17,3.384,3.384,0,0,0-.537.23l-.02.011a3.931,3.931,0,0,1-.46.159.625.625,0,0,0-.091.035s-.084-.1-.231-.278c-.684-.821-2.716-3.256-3.767-4.531l-.387-.473a11.688,11.688,0,0,1-.977-1.35c-.019-.03-.036-.06-.051-.089l-.018-.033c-.149-.279-.313-.566-.482-.858a.224.224,0,0,1-.017-.028c-.266-.454-.548-.918-.813-1.375-.254-.437-.494-.866-.693-1.272-.466-.954-.891-1.9-1.219-2.653-.386-.883-.639-1.5-.669-1.556-.125-.224-.333-.454-.39-.563a3.109,3.109,0,0,0-.194-.3.374.374,0,0,0-.13.008c-.034-.1-.066-.2-.1-.3-.1-.312-.187-.585-.273-.854s-.175-.549-.271-.849c-.06-.186-.124-.384-.194-.6-.049-.224-.141-.459-.157-.582-.01-.078-.041-.236-.066-.393a2.267,2.267,0,0,1-.028-.275,1.331,1.331,0,0,1-.016-.262.8.8,0,0,1,0-.119,1.779,1.779,0,0,1,.08-.375.453.453,0,0,1,.17-.226,2.539,2.539,0,0,1,.551-.291c.093-.029.173-.048.247-.064a.849.849,0,0,1,.385.029,1.81,1.81,0,0,1,.484.368,4.74,4.74,0,0,1,.318.444c.02.041.048.091.076.145.065.12.139.256.178.338.06.13.128.244.185.369.037.081.076.166.116.25a.019.019,0,0,0,0,.006c.039.083.077.163.116.241.028.056.053.112.076.167a.015.015,0,0,1,0,.008c.009.019.018.038.026.056a.4.4,0,0,0,.016.038,1.872,1.872,0,0,0,.1.19,3.053,3.053,0,0,0,.188.354.984.984,0,0,1,.063.1c.055.091.13.227.232.415.04.072.088.14.127.213s.077.122.112.189c.011.021.074.13.085.152.09.175.159.267.251.448.1.2.206.4.311.6.025.05.315.643.735,1.505.361.737.815,1.669,1.282,2.631.2.407.422.85.652,1.3.4.787.835,1.607,1.227,2.339a8.974,8.974,0,0,0,.782,1.147c.088.115.182.232.277.35.541.671,1.823,2.218,2.87,3.477l.9,1.084.386.467C-633.082,335.6-632.983,335.725-632.98,335.732Z" transform="translate(653.54 -312.746)" fill="#e8b290"/>
            <path id="Path_56" data-name="Path 56" d="M-668.264,322.5c-.529.371-2.122-.987-3.557-3.033s-2.171-4.006-1.642-4.378,2.122.987,3.558,3.033S-667.735,322.129-668.264,322.5Z" transform="translate(677.859 -311.893)" opacity="0.33" fill="url(#radial-gradient-3)" style="mix-blend-mode: multiply;isolation: isolate"/>
            <path id="Path_57" data-name="Path 57" d="M-699.3,403.067c-.229.021-.514.047-.533.146-.006.03.011.034.026.058.214.381-.458.192-.511.3a.145.145,0,0,0-.014.061c-.009.089,0,.19-.29.092l-.006,0c-.337-.114-.183.183-.2.282a.162.162,0,0,0,0,.051,1.235,1.235,0,0,1-.263.024.418.418,0,0,0-.2.044c-.024.024.064.119-.042.162s-.2.072-.276.1a.777.777,0,0,0-.184.065c-.023.031-.243.206-.462.381a3.948,3.948,0,0,0-.433.38c-.578-.418-2.593-3.254-3.9-4.348a2.625,2.625,0,0,0-.484-.337c-.216-.109-.432-.2-.64-.286-.743-.295-1.39-.432-1.59-.532-.776-.391-1.805-1.008-2.347-1.3a14.322,14.322,0,0,1-2.07-1.638,4.245,4.245,0,0,1-.529-.4c-.175-.168-.344-.363-.581-.6a7.239,7.239,0,0,0-.62-.673,1.75,1.75,0,0,0-.188-.122c-.034-.019-.19-.358-.222-.378a.192.192,0,0,0-.055-.023.164.164,0,0,1-.108-.065c-.034-.058-.025-.031-.078-.07-.037-.028-.074-.057-.109-.087l-.066-.058c-.086-.078-.167-.161-.246-.246-.213-.229-.416-.487-.619-.707a2.657,2.657,0,0,0-.4-.366c-.053-.038-.106-.074-.158-.109-.118-.078-.232-.148-.342-.214l-.213-.12c-.144-.08-.283-.155-.414-.226a2.536,2.536,0,0,1-.231-.138.874.874,0,0,1-.239-.247c-.007-.041-.015-.073-.019-.1l-.006-.05a.356.356,0,0,1,.042-.149.879.879,0,0,1,.068-.122.721.721,0,0,1,.109-.131.631.631,0,0,1,.154-.108,1.707,1.707,0,0,1,.35-.176,1.212,1.212,0,0,1,.372-.077,2.027,2.027,0,0,1,.525.034c.1.02.227.05.395.1a1.437,1.437,0,0,1,.216.079c.038.015.091.035.175.064.161.056.324.113.484.178a3.7,3.7,0,0,1,.709.36c.055.036.109.077.165.119.014.01.028.021.042.032q.11.086.225.194c.052.049.105.1.156.147l.043.04c.046.045.088.091.136.136.081.073.147.155.21.205a2.311,2.311,0,0,1,.379.372c.239.225.4.334.658.541.185.146.344.239.5.349l.021.014a2.448,2.448,0,0,1,.3.242,3.071,3.071,0,0,0,.745.5c.167.093.369.2.959.467.464.214,2.213,1.08,3.684,1.848l.028.015.026.013c.142.075.331.18.557.306.053.029.107.06.164.092.378.214.834.475,1.317.753l.774.45c.1.055.2.121.312.2.309.2.68.476,1.08.782.952.731,2.067,1.661,2.888,2.363.672.574,1.148.994,1.179,1.024S-699.127,403.053-699.3,403.067Z" transform="translate(719.205 -380.879)" fill="#e8b290"/>
            <path id="Path_58" data-name="Path 58" d="M-700.12,300.271a3.266,3.266,0,0,1,.429-.033h.027c.078,0,.17,0,.234-.006l.043,0a.345.345,0,0,0,.151-.057.741.741,0,0,1,.379-.153,2.652,2.652,0,0,0,.461-.253c.076-.036.156-.064.231-.1a2.029,2.029,0,0,0,.221-.143.769.769,0,0,1,.137-.1c.058-.022.121-.035.181-.057a1.109,1.109,0,0,1,.109-.033l.1-.022a.633.633,0,0,0,.153-.05c.055-.027.048-.048.069-.063-.012-.019-.183-.014-.57-.77-.229-.447-.418-.276-.713-.855-.262-.514-.348-1.136-.63-1.687-.212-.414-.436-.821-.651-1.218-.118-.22-.234-.438-.344-.652-.126-.247-.253-.485-.377-.71-.629-1.143-1.187-1.967-1.246-2.073-.143-.256-.237-.319-.312-.447a.539.539,0,0,0-.1-.116.178.178,0,0,1-.034-.055c-.024-.053-.043-.127-.067-.174,0-.007-.014.011-.029.013a.426.426,0,0,1-.24-.105,1.062,1.062,0,0,1-.193-.319c-.081-.158-.235-.413-.27-.473-.052-.089-.093-.161-.115-.2-.034-.056-.077-.124-.13-.206-.036-.058-.075-.114-.1-.168s-.075-.128-.11-.187c-.25-.41-.427-.663-.61-1q-.1-.184-.2-.365c-.027-.049-.056-.1-.085-.146-.017-.029-.034-.057-.052-.085s-.04-.066-.06-.1l-.072-.115c-.035-.055-.071-.109-.107-.164s-.069-.1-.105-.152-.079-.108-.12-.162c-.372-.485-.726-.937-1.094-1.439-.167-.228-.379-.508-.535-.746-.1-.158-.186-.275-.284-.421-.024-.035-.06-.084-.085-.121-.052-.077-.112-.146-.164-.221s-.09-.142-.143-.215c-.066-.09-.085-.109-.154-.2a1.068,1.068,0,0,0-.085-.1.224.224,0,0,0-.023-.025.1.1,0,0,1-.023-.026.2.2,0,0,1-.045-.045l0-.006c-.011-.011-.025-.023-.032-.03a.773.773,0,0,1-.065-.063c-.024-.029-.1-.085-.129-.114a1.272,1.272,0,0,0-.218-.159,1.153,1.153,0,0,0-.16-.073.717.717,0,0,0-.123-.037.674.674,0,0,0-.141-.014.437.437,0,0,0-.058,0,.562.562,0,0,0-.083.016.654.654,0,0,0-.191.095.92.92,0,0,0-.3.26.59.59,0,0,0-.085.275c0,.022,0,.045,0,.069a1.406,1.406,0,0,0,.06.369c0,.011.006.022.01.033a3.036,3.036,0,0,0,.123.332c.015.034.029.069.044.1l.042.1c.006.014.013.027.018.041l.033.075h0c.043.1.087.192.132.288.036.077.073.154.111.23s.077.157.117.235c.02.039.039.077.059.115q.123.238.253.473c.13.235.265.468.406.7.309.518.628.942.9,1.447.03.055.059.111.089.169s.052.107.078.162.055.116.083.174l.061.12c.017.034.035.068.053.1l.046.088.079.148c.024.042.047.084.07.127.275.488.572.964.848,1.452.08.14.158.28.237.419.054.093.105.188.155.284s.095.192.139.289c.062.136.121.274.181.412l.074.172.1.236c.086.2.182.449.271.657.024.055.161.578.256.888a4.073,4.073,0,0,1,.3,1.2c0,.093,0,.2-.006.311-.013.232-.367.339-.67.288-.419-.07.936,1.243,1.122,1.673a9.433,9.433,0,0,0,.944,1.65,3.079,3.079,0,0,0,1.136,1.053A2.8,2.8,0,0,0-700.12,300.271Z" transform="translate(710.04 -282.314)" fill="#e8b290"/>
            <path id="Path_59" data-name="Path 59" d="M-719.061,396.765l-.057.013-.058.018a.787.787,0,0,0-.12.051.909.909,0,0,0-.1.061.772.772,0,0,0-.192.2l.021.027c.029.034.059.067.09.1l.03.029c.043.039.087.074.133.109.1.076.211.143.32.213a4.524,4.524,0,0,0,.446.252l.106.05.1.044c.06.026.1.056.159.08.014.005.033.015.047.021a.513.513,0,0,0,.23-.214.352.352,0,0,0,.029-.107.27.27,0,0,0,0-.038.113.113,0,0,0,0-.017s0-.01,0-.015v0c0-.006,0-.013,0-.02a.657.657,0,0,0-.032-.112c-.018-.04-.04-.072-.048-.09a.369.369,0,0,0-.034-.036,1.775,1.775,0,0,0-.469-.364,2.651,2.651,0,0,0-.5-.225l-.039-.012c-.04-.011-.017,0-.036-.006Z" transform="translate(719.588 -386.117)" fill="#f1c2b1"/>
            <path id="Path_60" data-name="Path 60" d="M-708.544,282.5a.224.224,0,0,0,.071.023.556.556,0,0,0,.209-.01,1.1,1.1,0,0,0,.156-.047,1.133,1.133,0,0,0,.152-.073,1.4,1.4,0,0,0,.123-.078.433.433,0,0,0,.1-.1.435.435,0,0,0,.04-.069.568.568,0,0,0,.027-.07h0c0-.012,0-.041.005-.057a.176.176,0,0,0,0-.04.4.4,0,0,0-.006-.056,1.444,1.444,0,0,0-.172-.425c-.034-.06-.062-.116-.1-.173a.944.944,0,0,0-.082-.108c-.016-.018-.033-.036-.052-.055s-.05-.047-.08-.073-.062-.051-.1-.078a.424.424,0,0,0-.08-.046.509.509,0,0,0-.1-.034.6.6,0,0,0-.21-.008.484.484,0,0,0-.186.058.52.52,0,0,0-.113.1.693.693,0,0,0-.079.111.777.777,0,0,0-.078.195.764.764,0,0,0-.013.112c.006.041.009.056.015.092s.013.068.019.1a.541.541,0,0,0,.016.069c.023.062.037.092.05.13a.942.942,0,0,0,.08.156,1.075,1.075,0,0,0,.341.44.326.326,0,0,0,.042.022Z" transform="translate(710.071 -280.911)" fill="#f1c2b1"/>
          </g>
          <g id="Group_18" data-name="Group 18" transform="translate(12.613 15.485)">
            <path id="Path_61" data-name="Path 61" d="M-571.671,454.886c-.058.175-.114.45-.171.473a.761.761,0,0,0-.188.1c-.029.019-.073.049-.126.08a.978.978,0,0,1-.449.155c-.057,0-.111,0-.142,0a.882.882,0,0,0-.245.1l-.018.009c-.06.03-.118.059-.167.082a.453.453,0,0,1-.137.007.831.831,0,0,0-.16.02c.127.181.2.288.207.292a.546.546,0,0,1-.207.058c-.145.021-.322.026-.4.039s-.218-.06-.278.057c-.051.1-.209.065-.268.108a.738.738,0,0,1-.258.109c.168.2.266.325.27.332-.128.07-.369.05-.5.12-.078.044-.213.006-.32.04-.089.028-.23-.016-.3.024a1.933,1.933,0,0,1-.51.17,3.391,3.391,0,0,0-.536.23l-.02.011a3.936,3.936,0,0,1-.46.159.622.622,0,0,0-.091.035s-.084-.1-.231-.278a.783.783,0,0,0-.184.065c-.023.031-.243.206-.462.381a3.929,3.929,0,0,0-.433.38c-.578-.418-2.593-3.254-3.9-4.348l1.215-1.01,1.209-1.006,0,0,.395-.328.424-.352.944-.783.729-.606.483-.4c.169.235.387.51.643.809.693.813,2.711,2.691,3.885,3.768h0Z" transform="translate(582.355 -449.4)" opacity="0.2"/>
            <g id="Group_16" data-name="Group 16" transform="translate(0.187 0.387)">
              <path id="Path_62" data-name="Path 62" d="M-527.338,476.908l-3.042,2.529-19.108-22.295-.728-.85,3.134-2.6a.349.349,0,0,1,.492.046l.491.59Z" transform="translate(552.984 -453.608)" fill="#fff"/>
              <path id="Path_63" data-name="Path 63" d="M-557.716,505.953l-3.269,2.715-18.763-22.582-.49-.591a.348.348,0,0,1,.045-.492l2.64-2.195.728.85Z" transform="translate(580.32 -480.125)" fill="#eaeaea"/>
            </g>
            <path id="Path_64" data-name="Path 64" d="M-549.029,483.993l-3.042,2.529-3.269,2.715L-574.1,466.654l2.924-2.428.06-.051,3.329-2.765Z" transform="translate(574.862 -460.306)" fill="#405059" opacity="0.2"/>
            <g id="Group_17" data-name="Group 17" transform="translate(0.661 1.063)">
              <path id="Path_65" data-name="Path 65" d="M-533.476,461.088l19.253,23.174-3.821,3.175-19.836-23.144,3.911-3.25A.35.35,0,0,1-533.476,461.088Z" transform="translate(541.307 -460.962)" fill="#485a66"/>
              <path id="Path_66" data-name="Path 66" d="M-575.036,499.943l3.3-2.742,19.836,23.144-3.929,3.264-19.253-23.174A.349.349,0,0,1-575.036,499.943Z" transform="translate(575.162 -493.87)" fill="#405059"/>
            </g>
          </g>
          <path id="Path_67" data-name="Path 67" d="M-495.815,472.442c.2.328.526.492.735.366s.221-.493.025-.821-.526-.492-.736-.367S-496.011,472.114-495.815,472.442Z" transform="translate(516.509 -454.054)" fill="#c4c4c4"/>
          <path id="Path_68" data-name="Path 68" d="M-481.7,486.017c.2.328.526.492.736.366s.221-.493.024-.821-.526-.493-.736-.367S-481.9,485.689-481.7,486.017Z" transform="translate(503.691 -466.382)" fill="#c4c4c4"/>
        </g>
      </g>
      <rect id="Rectangle_7" data-name="Rectangle 7" width="47" height="45" transform="translate(-0.148 0.46)" fill="none"/>
    </g>
  </g>
</svg>
