<svg xmlns="http://www.w3.org/2000/svg" width="20.238" height="61" viewBox="0 0 20.238 61">
  <g id="Group_1" data-name="Group 1" transform="translate(309.988 -45.764)">
    <path id="Path_1893" data-name="Path 1893" d="M-287.244,188.18a20.612,20.612,0,0,1,9.682,0s-1.4-9.28-4.687-9.279S-287.244,188.18-287.244,188.18Z" transform="translate(-16.566 -96.969)" fill="#b26225"/>
    <path id="Path_1894" data-name="Path 1894" d="M-260.516,264.312s-.039.186.343.653,1.15.357,1.207.8h-2.008s.058-1.056.057-1.507S-260.516,264.312-260.516,264.312Z" transform="translate(-35.7 -159.004)" fill="#562b0d"/>
    <path id="Path_1895" data-name="Path 1895" d="M-285.986,264.312s.176.253-.277.653-1.858.252-1.908.8h2.709s-.124-1.056-.123-1.507S-285.986,264.312-285.986,264.312Z" transform="translate(-15.89 -159.004)" fill="#562b0d"/>
    <path id="Path_1896" data-name="Path 1896" d="M-287.471,159.325h10.332s-1.133,11.211-1.56,18.334-.568,10.558-.568,10.558h-1.362s-.429-5.166-.538-10.684-.413-11.609-.661-12.089c-.142-.275-1.369-.2-1.459,0-.219.483-.515,9.433-.6,12.441s-.632,10.332-.632,10.332h-1.473s-.183-6.721-.362-10.534S-287.471,159.325-287.471,159.325Z" transform="translate(-16.4 -82.711)" fill="#414044"/>
    <path id="Path_1897" data-name="Path 1897" d="M-277.212,160.061c.045-.457.073-.736.073-.736h-10.332s.023.352.059.913a14.152,14.152,0,0,0,4.491.869A16.35,16.35,0,0,0-277.212,160.061Z" transform="translate(-16.4 -82.711)" fill="#414044" opacity="0.3" style="mix-blend-mode: multiply;isolation: isolate"/>
    <path id="Path_1898" data-name="Path 1898" d="M-276.786,192.207c-1.695-.24-1.015-7.434-1.58-12.288,0,0,.59-.457.523-.656-.021-.038-.72.017-1.795.017a7.636,7.636,0,0,0-1.849.068c0,.3.626.629.626.629-.433,5.476.19,12.255-1.378,12.538-.682.123-.957-.538-1.2-.81.009.168.018.351.025.491.179,3.812.362,10.534.362,10.534h1.473s.551-7.323.632-10.332.377-11.958.6-12.442c.09-.2,1.317-.275,1.459,0,.248.481.553,6.572.661,12.09s.538,10.684.538,10.684h1.362s.142-3.434.568-10.557c.01-.175.023-.363.035-.543A.87.87,0,0,1-276.786,192.207Z" transform="translate(-19.339 -97.223)" fill="#414044" opacity="0.3" style="mix-blend-mode: multiply;isolation: isolate"/>
    <path id="Path_1899" data-name="Path 1899" d="M-291.6,63.011a5.319,5.319,0,0,1-.449,2.585,1.021,1.021,0,0,0,.638-.274,3.673,3.673,0,0,0,1.086,2.194c.023.017,4.448,2.324,4.448,2.324l.394-.4.172.253a3.5,3.5,0,0,0,1.529-2.378s.434.338.46.536a2.794,2.794,0,0,0,.445-2.8c-.509-1.926-3.085-3.2-4.984-3.344A6.327,6.327,0,0,0-291.6,63.011Z" transform="translate(-13.067 -11.606)" fill="#8e3d0f"/>
    <path id="Path_1900" data-name="Path 1900" d="M-267.843,73.8A2.794,2.794,0,0,0-267.4,71a2.96,2.96,0,0,0-.282-.689l-.624-.445s-2.049,4.9-2.494,5.714l.4.209.394-.4.172.253a3.5,3.5,0,0,0,1.529-2.378S-267.87,73.6-267.843,73.8Z" transform="translate(-28.544 -17.554)" fill="#7c2f0a"/>
    <path id="Path_1901" data-name="Path 1901" d="M-282.993,94.79a12.266,12.266,0,0,1,2.224-.271c.957-.02,1.919.084,2.564.13,1.19.084-.143,1.7-2.805,1.785S-282.993,94.79-282.993,94.79Z" transform="translate(-19.605 -35.509)" fill="#b26225"/>
    <path id="Path_1902" data-name="Path 1902" d="M-279.121,112.765c-.3-2.858-.7-12.288-2.507-15.1a5.255,5.255,0,0,0-4.9-2.2c-6.032.188-4.008,6.562-3.824,11.375.1,2.607.15,6.143.15,6.143s1.009.573,4.262.628A20.22,20.22,0,0,0-279.121,112.765Z" transform="translate(-13.955 -36.202)" fill="#ffb43b"/>
    <path id="Path_1903" data-name="Path 1903" d="M-288.725,139.595a70.19,70.19,0,0,0,11.057-.294c-.124-1.316-.27-3.589-.523-6.013l-.086-.091-10.512,3.23C-288.755,137.833-288.733,139.078-288.725,139.595Z" transform="translate(-15.44 -63.681)" fill="#ffb43b" opacity="0.3" style="mix-blend-mode: multiply;isolation: isolate"/>
    <path id="Path_1904" data-name="Path 1904" d="M-281.944,95.682s-.036,1.192,1.971,1.192a2.435,2.435,0,0,0,2.332-1.134S-279.183,94.732-281.944,95.682Z" transform="translate(-20.426 -36.06)" fill="#ffb298"/>
    <path id="Path_1905" data-name="Path 1905" d="M-309.945,132.147c.214,1.246,1.086,3.78,2.815,3.879s1.078-3.623-.967-4.978S-309.945,132.147-309.945,132.147Z" transform="translate(-0.028 -61.819)" fill="#c4742d"/>
    <path id="Path_1906" data-name="Path 1906" d="M-302.779,102.348c-.79,3.451-2.193,8.484-1.152,9.4,1.942,1.716,3.529-.905,4.162-3.16.474-1.687,1.706-9.38.352-10.434C-301.057,97.112-302.223,99.922-302.779,102.348Z" transform="translate(-4.142 -37.997)" fill="#c4742d"/>
    <path id="Path_1907" data-name="Path 1907" d="M-290.857,110.844c-1.8-13.519.065-14.986-.247-15.325a4.329,4.329,0,0,0-3.157,1.354c-1.129,2.289.392,7.966.617,11.317.3,4.5-.659,12.4-.5,15.821a7.55,7.55,0,0,0,1.411,4.676,6.019,6.019,0,0,0,.2-.839l.12,1.2a13.719,13.719,0,0,0,2.055,1.81C-290.294,128.223-290.435,117.741-290.857,110.844Z" transform="translate(-11.154 -36.211)" fill="#c4742d"/>
    <path id="Path_1908" data-name="Path 1908" d="M-262.556,96.564c1.888.75,4.479,5.3,5.311,9.364.455,2.222-.171,4.492-1.08,4.915C-261.892,112.5-268.98,94.013-262.556,96.564Z" transform="translate(-32.657 -36.824)" fill="#c4742d"/>
    <path id="Path_1909" data-name="Path 1909" d="M-265.735,130.518c3.044-1.884,4.185-2.831,4.657-5.871.462-2.971.127-9.423-.289-13.583-.183-1.833-.018-14.02-2.513-15.4-.51-.284-2.925-.862-3.062-.566C-267.706,96.754-264.439,120.959-265.735,130.518Z" transform="translate(-31.267 -35.869)" fill="#c4742d"/>
    <path id="Path_1910" data-name="Path 1910" d="M-250.164,131.918c-1.29.121-.94,3.488.7,3.291C-247.624,134.987-248.3,131.742-250.164,131.918Z" transform="translate(-43.002 -62.744)" fill="#b26225"/>
    <path id="Path_1911" data-name="Path 1911" d="M-248.822,133.217c-.725.068-.529,1.962.394,1.851C-247.394,134.943-247.772,133.118-248.822,133.217Z" transform="translate(-44.229 -63.693)" fill="#ffb298"/>
    <path id="Path_1912" data-name="Path 1912" d="M-290.374,91.265a7.628,7.628,0,0,0-2.372,3.461l2.48,2.049a24.914,24.914,0,0,1,.62-4.77l.7-.3.151-1.255A10.584,10.584,0,0,0-290.374,91.265Z" transform="translate(-12.558 -32.546)" fill="#b26225"/>
    <path id="Path_1913" data-name="Path 1913" d="M-269.891,90.638a8.917,8.917,0,0,1,1.011.5,8.526,8.526,0,0,1,2.664,3.723l-2.721,2.049s-.187-2.836-.3-4.836l-.641-.208Z" transform="translate(-29.204 -32.684)" fill="#b26225"/>
    <path id="Path_1914" data-name="Path 1914" d="M-276.961,89.067h-3a10.622,10.622,0,0,0,.2-2.817h2.628S-277.356,88.556-276.961,89.067Z" transform="translate(-21.87 -29.488)" fill="#ffb298"/>
    <path id="Path_1915" data-name="Path 1915" d="M-276.216,90a3.887,3.887,0,0,0-.5-.141,7.553,7.553,0,0,1-.1-2.2l-2.591-.017a14.712,14.712,0,0,1-.081,1.893,3.656,3.656,0,0,0,3.376,2.329C-276.144,91.244-276.183,90.581-276.216,90Z" transform="translate(-22.219 -30.503)" fill="#c11313" opacity="0.3" style="mix-blend-mode: multiply;isolation: isolate"/>
    <path id="Path_1916" data-name="Path 1916" d="M-287.7,58.071c-.435,1.215.067,2.553.059,3.842-.013,2.277-.08,3.879,1.782,4.384a4.148,4.148,0,0,0,1.864,0,3.167,3.167,0,0,0,2.337-2.829c.2-1.474.326-4.379-.108-5.281C-282.751,56.144-286.908,55.849-287.7,58.071Z" transform="translate(-16.101 -7.838)" fill="#ffb298"/>
    <path id="Path_1917" data-name="Path 1917" d="M-276.375,80.661a6.754,6.754,0,0,0,.757-.086,3.168,3.168,0,0,0,2.337-2.829c.059-.439.109-1.008.142-1.61l-.5.222S-273.3,80.156-276.375,80.661Z" transform="translate(-24.482 -22.122)" fill="#cc8e7a"/>
    <path id="Path_1918" data-name="Path 1918" d="M-284.609,58.623a6.536,6.536,0,0,1,3.156,1.391,5.325,5.325,0,0,0-.28-1.833c-.981-2.038-5.138-2.334-5.934-.111a3.33,3.33,0,0,0-.164,1.144A4.714,4.714,0,0,1-284.609,58.623Z" transform="translate(-16.139 -7.838)" fill="#cc8e7a"/>
    <path id="Path_1919" data-name="Path 1919" d="M-282.525,70a1.713,1.713,0,0,1,.414.626c.481,1.531-.884,1.642-.808,2.014.111.542,1.176.371,1.176.371-.121.365-1.287.251-1.386-.3-.117-.647,1.252-.579.892-2.028A4.36,4.36,0,0,0-282.525,70Z" transform="translate(-19.558 -17.654)" fill="#cc8e7a"/>
    <path id="Path_1920" data-name="Path 1920" d="M-274.329,73.493a.357.357,0,0,1-.3.394.357.357,0,0,1-.3-.394.357.357,0,0,1,.3-.394A.357.357,0,0,1-274.329,73.493Z" transform="translate(-25.534 -19.909)" fill="#562a12"/>
    <path id="Path_1921" data-name="Path 1921" d="M-284.537,73.687a.33.33,0,0,1-.278.364.33.33,0,0,1-.278-.364.33.33,0,0,1,.278-.364A.33.33,0,0,1-284.537,73.687Z" transform="translate(-18.132 -20.073)" fill="#562a12"/>
    <path id="Path_1922" data-name="Path 1922" d="M-264.545,73.82c-.04.591-.718,1.192-1.244,1.023-.328-.105-.2-.523-.16-1.113s.35-1.049.692-1.024A1.031,1.031,0,0,1-264.545,73.82Z" transform="translate(-32.033 -19.623)" fill="#cc8e7a"/>
    <path id="Path_1923" data-name="Path 1923" d="M-282.223,55c-.859-2.107-3.174-2.523-4.974-2.156-3.148.641-1.627,4.249-1.627,4.249a2.33,2.33,0,0,1,1.737-2.494,3.251,3.251,0,0,1,3.04.388l.021,0A2.262,2.262,0,0,1-283,57.278c-.148,1.386-.2,2.527.326,2.708C-282.85,58.676-281.325,57.2-282.223,55Z" transform="translate(-15.147 -5.067)" fill="#8e3d0f"/>
    <path id="Path_1924" data-name="Path 1924" d="M-282.894,84.356a1.688,1.688,0,0,1,.352-.245,2.827,2.827,0,0,1,.891-.287,4.219,4.219,0,0,1,1.36.029.112.112,0,0,1,.1.127.113.113,0,0,1-.127.1l-.011,0a4.045,4.045,0,0,0-1.3-.1,2.294,2.294,0,0,0-1.206.441.042.042,0,0,1-.059,0A.042.042,0,0,1-282.894,84.356Z" transform="translate(-19.724 -27.689)" fill="#cc8e7a"/>
    <path id="Path_1925" data-name="Path 1925" d="M-279.449,86.648c-.078-.064.143-.312.4-.382s.608.128.608.241S-279.364,86.718-279.449,86.648Z" transform="translate(-22.231 -29.489)" fill="#cc8e7a"/>
    <path id="Path_1926" data-name="Path 1926" d="M-275.916,68.121a.849.849,0,0,0-.088.661,3.379,3.379,0,0,0,1.847.508c.117-.01.19-.452.138-.53a5.219,5.219,0,0,0-.867-.334A4.913,4.913,0,0,0-275.916,68.121Z" transform="translate(-24.725 -16.282)" fill="#8e3d0f"/>
    <path id="Path_1927" data-name="Path 1927" d="M-286.842,68.264a.971.971,0,0,1,.1.64,2.381,2.381,0,0,1-1.477.525c-.095-.008-.171-.435-.131-.511a3.779,3.779,0,0,1,.69-.339A3.442,3.442,0,0,1-286.842,68.264Z" transform="translate(-15.749 -16.386)" fill="#8e3d0f"/>
    <path id="Path_1928" data-name="Path 1928" d="M-263.9,75.836c-.016.24-.292.485-.506.416-.133-.043-.081-.213-.065-.453s.142-.427.281-.416A.419.419,0,0,1-263.9,75.836Z" transform="translate(-33.137 -21.573)" fill="#a76f5c"/>
    <path id="Path_1929" data-name="Path 1929" d="M-289.727,64.772l.351-.617a7.541,7.541,0,0,0-1.049.645c.007.2,0,.383-.01.568A4.514,4.514,0,0,1-289.727,64.772Z" transform="translate(-14.241 -13.395)" fill="#7c2f0a"/>
    <path id="Path_1930" data-name="Path 1930" d="M-266.455,66.555a21.6,21.6,0,0,1,2.239,1.977c-.02-.106-.03-.2-.06-.316a3.486,3.486,0,0,0-1.006-1.585l-1.23-.588Z" transform="translate(-31.666 -14.77)" fill="#7c2f0a"/>
    <g id="Group_4189" data-name="Group 4189" transform="translate(-304.96 45.764)">
      <path id="Path_1931" data-name="Path 1931" d="M-286.947,47.1a5.4,5.4,0,0,1,2.221-.867c.754-.151.978-.714,2.479-.337a2.343,2.343,0,0,1,1.643,2.114c.1,1.238.886,2.331.512,3.5-2.9-2.788-7.864-3.4-8.411-2.37A3.942,3.942,0,0,1-286.947,47.1Z" transform="translate(289.311 -45.764)" fill="#abaaaf"/>
      <path id="Path_1932" data-name="Path 1932" d="M-278.779,46.341a1.408,1.408,0,0,1,.543,1.136,1.671,1.671,0,0,1-.379,1.093,8.06,8.06,0,0,0-5.213.141c-.012.095,4.608,1.413,4.664,1.521a9.771,9.771,0,0,1,2.477,1.7c.373-1.172-.415-2.265-.513-3.5A2.35,2.35,0,0,0-278.779,46.341Z" transform="translate(285.906 -46.184)" fill="#94939b"/>
      <path id="Path_1933" data-name="Path 1933" d="M-291.17,57.644c-.014.112-.018.259-.018.259a1.014,1.014,0,0,1-.265-.542,3.642,3.642,0,0,1,.532-2.456,5.543,5.543,0,0,1,3.952-.9,6.37,6.37,0,0,1,5.077,3.235c.34.6-.187,2.408-.589,2.155-.708-.446-1.907-2.455-4.824-2.9C-290.221,56.185-291.075,57.592-291.17,57.644Z" transform="translate(291.479 -51.732)" fill="#abaaaf"/>
      <path id="Path_1934" data-name="Path 1934" d="M-267.989,56.737c.509.4-.086,2.35-.824,2.412a15.04,15.04,0,0,1,2.841,2.268c.4.253.877-1.526.589-2.155A5.032,5.032,0,0,0-267.989,56.737Z" transform="translate(274.97 -53.756)" fill="#94939b"/>
      <path id="Path_1935" data-name="Path 1935" d="M-269.25,55.847s.005,1.727-1.018,2.373a3.745,3.745,0,0,0,.823-2.48Z" transform="translate(276.03 -53.03)" fill="#94939b"/>
      <path id="Path_1936" data-name="Path 1936" d="M-271.224,55.167a3.535,3.535,0,0,1-.927,2.388,4.057,4.057,0,0,0,.737-2.492Z" transform="translate(277.402 -52.537)" fill="#94939b"/>
    </g>
    <path id="Path_1937" data-name="Path 1937" d="M-276.028,69.9a.288.288,0,0,0,.035.18,3.376,3.376,0,0,0,1.847.508c.04,0,.072-.064.1-.138A3.8,3.8,0,0,1-276.028,69.9Z" transform="translate(-24.734 -17.579)" fill="#7c2f0a"/>
    <path id="Path_1938" data-name="Path 1938" d="M-288.2,70.678c-.035,0-.065-.068-.091-.145.024.129.069.259.121.263a2.381,2.381,0,0,0,1.477-.525.25.25,0,0,0,.024-.132A2.492,2.492,0,0,1-288.2,70.678Z" transform="translate(-15.806 -17.754)" fill="#7c2f0a"/>
    <path id="Path_1939" data-name="Path 1939" d="M-265.923,92.462c-.04-.016-.065-.01-.1-.024a10.606,10.606,0,0,0-1.951-.51,5.14,5.14,0,0,0-.816-.75,8.363,8.363,0,0,0-.979-.488,6.8,6.8,0,0,0,.112,1.37l.509.161c.035.619.077,1.2.118,1.863a5.662,5.662,0,0,0,3.682-1.273A2.888,2.888,0,0,0-265.923,92.462Z" transform="translate(-29.29 -32.722)" fill="#b26225" opacity="0.3" style="mix-blend-mode: multiply;isolation: isolate"/>
    <path id="Path_1940" data-name="Path 1940" d="M-246.365,121.755a2.1,2.1,0,0,0-2.695-1.736c-.192.044-.867-3.209-1.2-3.16-.263.038,0,4.364,0,4.364l.939-.19s.3-.677,1.58-.527A1.989,1.989,0,0,1-246.365,121.755Z" transform="translate(-43.415 -51.782)" fill="#b26225"/>
    <path id="Path_1941" data-name="Path 1941" d="M-251.1,142.534a8.65,8.65,0,0,1-1.76-2.067l.039,1.749a23.173,23.173,0,0,0,1.8,2.022c0-.021,0-.046-.006-.067C-251.056,143.873-251.077,143.291-251.1,142.534Z" transform="translate(-41.607 -68.976)" fill="#b26225"/>
    <path id="Path_1942" data-name="Path 1942" d="M-308.309,126.913c-1.509-.311-2.566,3.211-.628,3.563C-306.763,130.871-306.124,127.364-308.309,126.913Z" transform="translate(0 -59.09)" fill="#b26225"/>
    <path id="Path_1943" data-name="Path 1943" d="M-298.658,124.2c0-.277.008-7.738-.34-7.763-.525-.037-.337,7.9-2.538,9.032C-300.383,126.174-299.381,125.42-298.658,124.2Z" transform="translate(-6.156 -51.475)" fill="#b26225"/>
    <g id="Group_4190" data-name="Group 4190" transform="translate(-309.042 64.419)">
      <path id="Path_1944" data-name="Path 1944" d="M-306.058,114.946c.581-.724,13.375-.591,13.931-.131s.792,8.962.242,9.53-13.592.7-14.187.066S-306.639,115.67-306.058,114.946Z" transform="translate(306.506 -114.437)" fill="#ffdfa7"/>
      <path id="Path_1945" data-name="Path 1945" d="M-290.961,115.828c.556.459.792,8.962.242,9.53s-13.592.7-14.187.066c0,0,2.495-1.37,6.954-4.5C-293.663,117.913-290.961,115.828-290.961,115.828Z" transform="translate(305.341 -115.45)" fill="#ffdfa7" opacity="0.2" style="mix-blend-mode: multiply;isolation: isolate"/>
      <path id="Path_1946" data-name="Path 1946" d="M-292.126,115.8s-.023-.006-.027-.01c.49,1.156.675,8.85.16,9.391-.542.569-13.384.7-13.969.066-.565-.614-.559-8.158-.044-9.341-.011.009-.043.017-.05.026-.581.724-.608,8.828-.013,9.465s13.637.5,14.187-.066S-291.57,116.262-292.126,115.8Z" transform="translate(306.506 -115.425)" fill="#f4ca86" opacity="0.6" style="mix-blend-mode: multiply;isolation: isolate"/>
    </g>
    <path id="Path_1947" data-name="Path 1947" d="M-257.425,128.384c0,.049-.465.053-.976.257s-1.126.529-1.078.74.639-.18,1.179-.327c.469-.127.867-.186.876-.084s-.418.167-.83.367c-.438.213-.924.476-.854.636s.557-.132,1-.286c.347-.121.67-.15.695-.076.012.037-.273.111-.539.254s-.523.363-.5.464c.043.2.743-.336,1.09-.242.563.152,1.14.4,1.475.158.625-.444-.5-1.942-.851-2.237a1.735,1.735,0,0,0-1.465-.128c-.576.166-1.092.529-1.077.656.028.221.574-.076,1.089-.168C-257.794,128.3-257.434,128.284-257.425,128.384Z" transform="translate(-36.786 -59.739)" fill="#ffb298"/>
    <path id="Path_1948" data-name="Path 1948" d="M-307.29,127.716c0-.084-.329-.194-.654-.246a3.063,3.063,0,0,1-.659-.1c-.015-.1.537-.18.864-.192.457-.017,1.094.124,1.137-.12.026-.144-.5-.306-1.093-.327-.525-.019-.943.057-.945-.03s.631-.239.973-.24c.48,0,1.179.054,1.19-.143s-.58-.3-1.2-.363c-.566-.06-1.054.074-1.061.024-.014-.105.206-.276.607-.47.345-.167.984-.2.959-.443-.014-.124-.549-.125-1.132.008a2.311,2.311,0,0,0-.971.6c-.335.305-.314.607-.206,1.184.105.562.287,1.043.752,1.011.217-.015.468-.056.713-.054C-307.639,127.824-307.3,127.859-307.29,127.716Z" transform="translate(-0.318 -57.696)" fill="#ffb298"/>
    <path id="Path_1949" data-name="Path 1949" d="M-290.1,165.754l-2.558-.978-.494,1.5,2.676,1.059Z" transform="translate(-12.26 -86.681)" fill="#b26225"/>
    <path id="Path_1950" data-name="Path 1950" d="M-245.371,112.706l-.978.527a1.623,1.623,0,0,0,1.432.442Z" transform="translate(-46.351 -48.757)" fill="#f99b2b"/>
    <path id="Path_1951" data-name="Path 1951" d="M-246.349,113.233s1.574-.068,1.574-.211-.6-.316-.6-.316A1.382,1.382,0,0,0-246.349,113.233Z" transform="translate(-46.351 -48.757)" fill="#c4742d"/>
    <path id="Path_1952" data-name="Path 1952" d="M-293.3,97.3a4.713,4.713,0,0,0-1.487.963c.029.112.2.111.2.111s-.37.227-.4.4.852-.31.852-.31Z" transform="translate(-10.927 -37.533)" fill="#c4742d"/>
    <path id="Path_1953" data-name="Path 1953" d="M-259.787,259.967h.683s.031-.73.1-2.131h-.784Z" transform="translate(-36.564 -154.461)" fill="#605f63"/>
    <path id="Path_1954" data-name="Path 1954" d="M-251.606,166.274l-.494-1.5-2.558.978.376,1.58Z" transform="translate(-40.299 -86.681)" fill="#b26225"/>
    <path id="Path_1955" data-name="Path 1955" d="M-281.69,231.776a1.645,1.645,0,0,0,1.4.092.982.982,0,0,1-.8.374A.933.933,0,0,1-281.69,231.776Z" transform="translate(-20.611 -135.48)" fill="#f4863d"/>
    <g id="Group_4191" data-name="Group 4191" transform="translate(-305.677 67.853)">
      <path id="Path_1956" data-name="Path 1956" d="M-293.995,127.367c-.037.554-.04,1.11-.059,1.665a11.234,11.234,0,0,0-.042,1.663c.017.142.222.194.265.036a10.368,10.368,0,0,0,.112-3.363.138.138,0,0,0-.275,0Z" transform="translate(294.118 -127.192)" fill="#664039"/>
      <path id="Path_1957" data-name="Path 1957" d="M-293.515,133.409a2.068,2.068,0,0,0,1.168.005.13.13,0,0,0,0-.247,2.07,2.07,0,0,0-1.168,0,.124.124,0,0,0,0,.237Z" transform="translate(293.743 -131.451)" fill="#664039"/>
      <path id="Path_1958" data-name="Path 1958" d="M-289.34,127.253a13.639,13.639,0,0,0-.016,3.37.162.162,0,0,0,.31,0,13.628,13.628,0,0,0,.07-3.37.182.182,0,0,0-.364,0Z" transform="translate(290.724 -127.077)" fill="#664039"/>
      <path id="Path_1959" data-name="Path 1959" d="M-285.564,127.584a6.019,6.019,0,0,0-.086,1.5,14.4,14.4,0,0,0,.044,1.681.185.185,0,0,0,.37,0,16.129,16.129,0,0,0-.009-1.681,8.754,8.754,0,0,0-.059-1.5.136.136,0,0,0-.26,0Z" transform="translate(287.955 -127.376)" fill="#664039"/>
      <path id="Path_1960" data-name="Path 1960" d="M-283.871,138.765a4.9,4.9,0,0,0-1.468-.053.213.213,0,0,0,0,.409,4.88,4.88,0,0,0,1.468-.053.158.158,0,0,0,0-.3Z" transform="translate(287.835 -135.526)" fill="#664039"/>
      <path id="Path_1961" data-name="Path 1961" d="M-284,133.709a2.788,2.788,0,0,0-1.337-.019.2.2,0,0,0,0,.38,2.784,2.784,0,0,0,1.337-.036.17.17,0,0,0,0-.325Z" transform="translate(287.826 -131.84)" fill="#664039"/>
      <path id="Path_1962" data-name="Path 1962" d="M-284.062,127.376a3.675,3.675,0,0,0-1.284-.04.209.209,0,0,0,0,.4,3.67,3.67,0,0,0,1.284-.045.164.164,0,0,0,0-.315Z" transform="translate(287.837 -127.234)" fill="#664039"/>
      <path id="Path_1963" data-name="Path 1963" d="M-277.426,127.348a30.53,30.53,0,0,0,.026,3.2.2.2,0,0,0,.4,0,30.753,30.753,0,0,0-.1-3.2.166.166,0,0,0-.333,0Z" transform="translate(281.987 -127.158)" fill="#664039"/>
      <path id="Path_1964" data-name="Path 1964" d="M-277.173,139.078a2.883,2.883,0,0,0,1.466,0,.167.167,0,0,0,0-.287,2.869,2.869,0,0,0-1.466,0,.152.152,0,0,0,0,.29Z" transform="translate(281.855 -135.535)" fill="#664039"/>
      <path id="Path_1965" data-name="Path 1965" d="M-270.48,127.3c-.023.577-.019,1.154-.021,1.732a6.5,6.5,0,0,0,.063,1.51.155.155,0,0,0,.3,0,12.6,12.6,0,0,0,.03-3.241.184.184,0,0,0-.368,0Z" transform="translate(276.925 -127.11)" fill="#664039"/>
      <path id="Path_1966" data-name="Path 1966" d="M-270.121,127.642c.405-.019.912-.1,1.121.329.361.747-.567,1.143-1.137,1.074-.206-.025-.226.287-.047.347a1.278,1.278,0,0,0,1.636-1.4c-.135-.744-1.055-.886-1.648-.628-.137.06-.066.284.075.278Z" transform="translate(276.775 -127.2)" fill="#664039"/>
    </g>
  </g>
</svg>
