<svg id="google-icon" xmlns="http://www.w3.org/2000/svg" width="20.58" height="21" viewBox="0 0 20.58 21">
  <path id="Path_11" data-name="Path 11" d="M140.63,108.908a9,9,0,0,0-.222-2.147H130.55v3.9h5.787a5.131,5.131,0,0,1-2.147,3.407l-.02.13,3.117,2.415.216.022a10.266,10.266,0,0,0,3.127-7.723" transform="translate(-120.05 -98.174)" fill="#4285f4"/>
  <path id="Path_12" data-name="Path 12" d="M23.305,164.793a10.008,10.008,0,0,0,6.953-2.543l-3.313-2.567a6.214,6.214,0,0,1-3.64,1.05,6.321,6.321,0,0,1-5.973-4.363l-.123.01-3.241,2.508-.042.118a10.492,10.492,0,0,0,9.38,5.787" transform="translate(-12.805 -143.793)" fill="#34a853"/>
  <path id="Path_13" data-name="Path 13" d="M4.527,78.153a6.464,6.464,0,0,1-.35-2.077A6.793,6.793,0,0,1,4.515,74l-.006-.139L1.227,71.312l-.107.051a10.478,10.478,0,0,0,0,9.427l3.407-2.637" transform="translate(0 -65.576)" fill="#fbbc05"/>
  <path id="Path_14" data-name="Path 14" d="M23.305,4.06a5.819,5.819,0,0,1,4.06,1.563L30.328,2.73A10.088,10.088,0,0,0,23.305,0a10.492,10.492,0,0,0-9.38,5.787L17.32,8.423A6.347,6.347,0,0,1,23.305,4.06" transform="translate(-12.805)" fill="#eb4335"/>
</svg>
