<svg xmlns="http://www.w3.org/2000/svg" xmlns:xlink="http://www.w3.org/1999/xlink" width="70" height="70" viewBox="0 0 70 70">
  <defs>
    <clipPath id="clip-path">
      <path id="Path_147" data-name="Path 147" d="M221.734,139.037a35,35,0,1,1-35-35A35,35,0,0,1,221.734,139.037Z" transform="translate(340.266 38.963)" fill="#f3735e"/>
    </clipPath>
  </defs>
  <g id="Mask_Group_1" data-name="Mask Group 1" transform="translate(-492 -143)" clip-path="url(#clip-path)">
    <path id="Path_1" data-name="Path 1" d="M221.734,139.037a35,35,0,1,1-35-35A35,35,0,0,1,221.734,139.037Z" transform="translate(340.266 38.963)" fill="#ffc958"/>
    <g id="Group_27" data-name="Group 27" transform="translate(498.698 153.585)">
      <g id="Group_1" data-name="Group 1" transform="translate(17.489 7.972)">
        <ellipse id="Ellipse_1" data-name="Ellipse 1" cx="5.065" cy="3.283" rx="5.065" ry="3.283" transform="translate(0 3.68) rotate(-21.302)" fill="#875441"/>
        <path id="Path_2" data-name="Path 2" d="M185.264,182.834c.056.159.067.3.024.315s-.124-.1-.18-.259-.067-.3-.024-.315S185.208,182.675,185.264,182.834Z" transform="translate(-182.136 -178.044)" fill="#5e4237"/>
        <path id="Path_3" data-name="Path 3" d="M200.813,189.031c.046.129.038.25-.018.269s-.138-.069-.183-.2-.038-.25.018-.269S200.767,188.9,200.813,189.031Z" transform="translate(-194.752 -183.13)" fill="#5e4237"/>
        <path id="Path_4" data-name="Path 4" d="M203.028,176.561c.07.2.066.378-.008.4s-.191-.112-.26-.309-.066-.378.008-.4S202.958,176.364,203.028,176.561Z" transform="translate(-196.481 -172.905)" fill="#5e4237"/>
        <path id="Path_5" data-name="Path 5" d="M212.218,187.115c.068.191.068.366,0,.39s-.178-.111-.245-.3-.068-.366,0-.39S212.151,186.924,212.218,187.115Z" transform="translate(-203.967 -181.487)" fill="#5e4237"/>
        <path id="Path_6" data-name="Path 6" d="M216.81,178.521c.082.231.083.441,0,.47s-.212-.136-.293-.367-.083-.442,0-.47S216.728,178.29,216.81,178.521Z" transform="translate(-207.653 -174.451)" fill="#5e4237"/>
        <path id="Path_7" data-name="Path 7" d="M212.977,168.071a.193.193,0,0,1-.073.254c-.08.029-.177-.04-.217-.152a.193.193,0,0,1,.073-.254C212.84,167.891,212.938,167.959,212.977,168.071Z" transform="translate(-204.575 -166.131)" fill="#5e4237"/>
        <path id="Path_8" data-name="Path 8" d="M194.007,193.658c.085.24.089.458.009.487s-.214-.143-.3-.384-.089-.458-.009-.487S193.922,193.417,194.007,193.658Z" transform="translate(-189.119 -186.738)" fill="#5e4237"/>
        <path id="Path_9" data-name="Path 9" d="M179.909,193.5c.069.195.08.369.025.388s-.156-.122-.225-.317-.08-.369-.025-.388S179.84,193.307,179.909,193.5Z" transform="translate(-177.74 -186.667)" fill="#5e4237"/>
        <path id="Path_10" data-name="Path 10" d="M187.2,195.126c.071.2.068.383-.006.409s-.191-.114-.262-.314-.068-.383.006-.409S187.134,194.926,187.2,195.126Z" transform="translate(-183.621 -187.987)" fill="#5e4237"/>
        <path id="Path_11" data-name="Path 11" d="M193.346,184.32c.072.2.081.386.019.408s-.17-.125-.242-.329-.081-.386-.019-.408S193.274,184.117,193.346,184.32Z" transform="translate(-188.641 -179.196)" fill="#5e4237"/>
        <path id="Path_12" data-name="Path 12" d="M208.2,195.559c.055.154.044.3-.024.323s-.167-.081-.222-.236-.044-.3.024-.323S208.146,195.4,208.2,195.559Z" transform="translate(-200.715 -188.403)" fill="#5e4237"/>
        <path id="Path_13" data-name="Path 13" d="M195.847,175.628c.085.241.069.466-.036.5s-.259-.128-.344-.368-.069-.466.036-.5S195.762,175.387,195.847,175.628Z" transform="translate(-190.551 -172.097)" fill="#5e4237"/>
        <path id="Path_14" data-name="Path 14" d="M198,168.228c.054.153.056.292,0,.311s-.139-.09-.193-.244-.056-.292,0-.311S197.946,168.075,198,168.228Z" transform="translate(-192.466 -166.187)" fill="#5e4237"/>
        <path id="Path_15" data-name="Path 15" d="M188.636,174.4c.06.169.068.319.019.337s-.138-.105-.2-.274-.068-.32-.019-.337S188.576,174.228,188.636,174.4Z" transform="translate(-184.857 -171.176)" fill="#5e4237"/>
        <path id="Path_16" data-name="Path 16" d="M180.192,182.408c.072.2.081.387.019.408s-.17-.126-.242-.329-.081-.387-.019-.408S180.119,182.2,180.192,182.408Z" transform="translate(-177.951 -177.641)" fill="#5e4237"/>
        <path id="Path_17" data-name="Path 17" d="M211.314,175.136c.028.079.016.156-.027.171s-.1-.037-.129-.116-.016-.156.027-.171S211.286,175.056,211.314,175.136Z" transform="translate(-203.334 -171.904)" fill="#5e4237"/>
        <path id="Path_18" data-name="Path 18" d="M220.168,172.682c.088.25.075.482-.03.519s-.262-.135-.35-.385-.075-.482.03-.519S220.08,172.432,220.168,172.682Z" transform="translate(-210.313 -169.69)" fill="#5e4237"/>
      </g>
      <g id="Group_2" data-name="Group 2" transform="translate(8.662 9.166)">
        <ellipse id="Ellipse_2" data-name="Ellipse 2" cx="3.283" cy="5.065" rx="3.283" ry="5.065" transform="matrix(0.256, -0.967, 0.967, 0.256, 0, 6.347)" fill="#875441"/>
        <path id="Path_19" data-name="Path 19" d="M164.459,196.7c.048-.161.123-.281.167-.268s.04.154-.008.316-.123.281-.167.268S164.411,196.86,164.459,196.7Z" transform="translate(-156.539 -190.499)" fill="#5e4237"/>
        <path id="Path_20" data-name="Path 20" d="M155.388,182.932c.039-.131.117-.224.173-.207s.07.137.031.268-.117.224-.173.207S155.349,183.063,155.388,182.932Z" transform="translate(-149.18 -179.36)" fill="#5e4237"/>
        <path id="Path_21" data-name="Path 21" d="M146.157,190.584c.06-.2.169-.344.244-.322s.088.2.028.4-.169.344-.245.322S146.1,190.784,146.157,190.584Z" transform="translate(-141.666 -185.485)" fill="#5e4237"/>
        <path id="Path_22" data-name="Path 22" d="M145.014,176.754c.058-.194.161-.335.23-.315s.078.195.02.389-.161.335-.23.315S144.956,176.948,145.014,176.754Z" transform="translate(-140.737 -174.252)" fill="#5e4237"/>
        <path id="Path_23" data-name="Path 23" d="M136.169,180.324c.07-.235.193-.406.275-.381s.091.235.021.47-.193.406-.275.381S136.1,180.559,136.169,180.324Z" transform="translate(-133.542 -177.099)" fill="#5e4237"/>
        <path id="Path_24" data-name="Path 24" d="M132.869,192.825c.034-.114.128-.187.209-.162a.193.193,0,0,1,.086.25c-.034.114-.128.187-.209.162A.193.193,0,0,1,132.869,192.825Z" transform="translate(-130.888 -187.434)" fill="#5e4237"/>
        <path id="Path_25" data-name="Path 25" d="M163.524,181.4c.073-.245.2-.423.28-.4s.088.242.015.487-.2.423-.28.4S163.451,181.647,163.524,181.4Z" transform="translate(-155.768 -177.961)" fill="#5e4237"/>
        <path id="Path_26" data-name="Path 26" d="M175,190.636c.059-.2.153-.345.209-.328s.054.191,0,.389-.153.345-.209.328S174.942,190.834,175,190.636Z" transform="translate(-165.1 -185.524)" fill="#5e4237"/>
        <path id="Path_27" data-name="Path 27" d="M169.888,184.877c.061-.2.171-.35.246-.327s.087.205.026.408-.171.35-.246.327S169.828,185.081,169.888,184.877Z" transform="translate(-160.95 -180.843)" fill="#5e4237"/>
        <path id="Path_28" data-name="Path 28" d="M158.687,189.972c.062-.207.163-.359.225-.341s.064.2,0,.408-.163.359-.225.341S158.625,190.179,158.687,189.972Z" transform="translate(-151.842 -184.973)" fill="#5e4237"/>
        <path id="Path_29" data-name="Path 29" d="M153.177,172.87c.047-.157.141-.267.21-.247s.087.164.04.321-.141.267-.21.247S153.13,173.026,153.177,172.87Z" transform="translate(-147.38 -171.151)" fill="#5e4237"/>
        <path id="Path_30" data-name="Path 30" d="M151.141,194.781c.073-.245.218-.417.325-.385s.134.256.061.5-.219.417-.325.385S151.068,195.025,151.141,194.781Z" transform="translate(-145.714 -188.843)" fill="#5e4237"/>
        <ellipse id="Ellipse_3" data-name="Ellipse 3" cx="0.294" cy="0.101" rx="0.294" ry="0.101" transform="translate(4.272 7.282) rotate(-73.378)" fill="#5e4237"/>
        <path id="Path_31" data-name="Path 31" d="M156.715,201.346c.051-.171.133-.3.183-.283s.049.166,0,.338-.133.3-.183.283S156.664,201.518,156.715,201.346Z" transform="translate(-150.245 -194.263)" fill="#5e4237"/>
        <path id="Path_32" data-name="Path 32" d="M168.183,199.27c.062-.207.163-.36.225-.341s.064.2,0,.409-.163.36-.225.341S168.121,199.477,168.183,199.27Z" transform="translate(-159.559 -192.528)" fill="#5e4237"/>
        <path id="Path_33" data-name="Path 33" d="M138.758,188.772c.024-.081.079-.135.123-.122s.06.089.036.17-.079.135-.123.122S138.734,188.852,138.758,188.772Z" transform="translate(-135.675 -184.175)" fill="#5e4237"/>
        <path id="Path_34" data-name="Path 34" d="M129.778,182.679c.076-.254.224-.434.33-.4s.132.263.056.517-.224.434-.33.4S129.7,182.933,129.778,182.679Z" transform="translate(-128.351 -178.995)" fill="#5e4237"/>
      </g>
      <g id="Group_3" data-name="Group 3" transform="translate(3.648 14.016)">
        <ellipse id="Ellipse_4" data-name="Ellipse 4" cx="3.283" cy="5.065" rx="3.283" ry="5.065" transform="matrix(0.28, -0.96, 0.96, 0.28, 0, 6.302)" fill="#875441"/>
        <path id="Path_35" data-name="Path 35" d="M114.152,204.164c-.052.16-.13.278-.173.264s-.037-.155.016-.315.13-.278.173-.264S114.2,204,114.152,204.164Z" transform="translate(-110.51 -201.378)" fill="#5e4237"/>
        <path id="Path_36" data-name="Path 36" d="M122.824,218.612c-.042.13-.122.221-.178.2s-.067-.139-.025-.269.122-.221.178-.2S122.866,218.482,122.824,218.612Z" transform="translate(-117.535 -213.155)" fill="#5e4237"/>
        <path id="Path_37" data-name="Path 37" d="M131.818,210.1c-.065.2-.178.34-.252.316s-.083-.205-.018-.4.178-.34.252-.316S131.883,209.906,131.818,210.1Z" transform="translate(-124.775 -206.132)" fill="#5e4237"/>
        <path id="Path_38" data-name="Path 38" d="M132.706,224.056c-.063.193-.169.331-.238.309s-.073-.2-.01-.39.169-.331.238-.309S132.769,223.863,132.706,224.056Z" transform="translate(-125.514 -217.482)" fill="#5e4237"/>
        <path id="Path_39" data-name="Path 39" d="M141.367,220.066c-.076.233-.2.4-.284.375s-.085-.237-.009-.47.2-.4.284-.374S141.443,219.833,141.367,220.066Z" transform="translate(-132.508 -214.173)" fill="#5e4237"/>
        <path id="Path_40" data-name="Path 40" d="M145.281,209.527c-.037.113-.132.183-.213.157a.193.193,0,0,1-.08-.253c.037-.113.132-.183.213-.157A.193.193,0,0,1,145.281,209.527Z" transform="translate(-135.721 -205.783)" fill="#5e4237"/>
        <path id="Path_41" data-name="Path 41" d="M114.019,218.156c-.079.243-.209.418-.29.392s-.082-.245,0-.487.209-.418.29-.392S114.1,217.913,114.019,218.156Z" transform="translate(-110.28 -212.607)" fill="#5e4237"/>
        <path id="Path_42" data-name="Path 42" d="M103.2,209.378c-.064.2-.161.341-.217.323s-.049-.192.015-.389.161-.341.217-.323S103.268,209.181,103.2,209.378Z" transform="translate(-101.57 -205.555)" fill="#5e4237"/>
        <path id="Path_43" data-name="Path 43" d="M107.942,215.17c-.066.2-.179.345-.254.321s-.082-.208-.016-.409.179-.345.254-.321S108.008,214.969,107.942,215.17Z" transform="translate(-105.372 -210.245)" fill="#5e4237"/>
        <path id="Path_44" data-name="Path 44" d="M119.4,210.309c-.067.205-.171.355-.234.335s-.058-.2.008-.408.172-.355.234-.335S119.468,210.1,119.4,210.309Z" transform="translate(-114.713 -206.295)" fill="#5e4237"/>
        <path id="Path_45" data-name="Path 45" d="M124.556,228.32c-.051.156-.147.263-.216.241s-.083-.166-.032-.322.147-.264.216-.241S124.606,228.165,124.556,228.32Z" transform="translate(-118.902 -221.001)" fill="#5e4237"/>
        <path id="Path_46" data-name="Path 46" d="M126.428,205.072c-.079.243-.229.411-.335.377s-.127-.259-.048-.5.229-.411.335-.377S126.507,204.83,126.428,205.072Z" transform="translate(-120.3 -201.962)" fill="#5e4237"/>
        <path id="Path_47" data-name="Path 47" d="M133.166,200.383c-.05.155-.134.266-.187.248s-.055-.156,0-.311.134-.266.187-.248S133.217,200.229,133.166,200.383Z" transform="translate(-125.941 -198.308)" fill="#5e4237"/>
        <path id="Path_48" data-name="Path 48" d="M121.91,199.547c-.055.17-.141.295-.191.279s-.045-.167.01-.337.141-.295.191-.279S121.965,199.377,121.91,199.547Z" transform="translate(-116.795 -197.608)" fill="#5e4237"/>
        <path id="Path_49" data-name="Path 49" d="M110.139,200.773c-.067.206-.172.356-.234.335s-.058-.2.009-.409.172-.355.234-.335S110.206,200.567,110.139,200.773Z" transform="translate(-107.187 -198.545)" fill="#5e4237"/>
        <path id="Path_50" data-name="Path 50" d="M139.884,213.987c-.026.08-.082.133-.126.119s-.058-.09-.032-.17.083-.133.126-.119S139.91,213.907,139.884,213.987Z" transform="translate(-131.446 -209.477)" fill="#5e4237"/>
        <path id="Path_51" data-name="Path 51" d="M147.457,217.562c-.082.252-.234.428-.34.393s-.125-.266-.043-.518.234-.428.34-.393S147.539,217.31,147.457,217.562Z" transform="translate(-137.387 -212.098)" fill="#5e4237"/>
      </g>
      <g id="Group_4" data-name="Group 4" transform="translate(27.447)">
        <path id="Path_52" data-name="Path 52" d="M229.575,146.369l3.232-22.445c.152-1.053-1.265-2.129-3.164-2.4l-.07-.01c-1.9-.274-3.561.359-3.713,1.412l-3.232,22.445c-.152,1.053,1.265,2.129,3.164,2.4l.07.01C227.761,148.055,229.424,147.423,229.575,146.369Z" transform="translate(-222.618 -120.4)" fill="#a12c20"/>
        <path id="Path_53" data-name="Path 53" d="M234.822,260.594l1.282,1.089-2.464-.355Z" transform="translate(-231.575 -233.476)" fill="#a12c20"/>
        <path id="Path_54" data-name="Path 54" d="M253.364,116.944l-1.282-1.089,2.464.355Z" transform="translate(-246.562 -115.855)" fill="#a12c20"/>
        <rect id="Rectangle_1" data-name="Rectangle 1" width="13.135" height="7.018" transform="translate(0.651 20.524) rotate(-81.806)" fill="#66241e"/>
        <rect id="Rectangle_2" data-name="Rectangle 2" width="0.933" height="5.011" transform="translate(3.31 10.011) rotate(-81.806)" fill="#381410"/>
        <rect id="Rectangle_3" data-name="Rectangle 3" width="0.933" height="5.011" transform="translate(2.017 18.986) rotate(-81.806)" fill="#381410"/>
        <path id="Path_55" data-name="Path 55" d="M236.466,184.5l.043-.3a2.48,2.48,0,0,1,2.809-2.1l.05.007a2.481,2.481,0,0,1,2.1,2.808l-.043.3a2.48,2.48,0,0,1-2.809,2.1l-.049-.007A2.48,2.48,0,0,1,236.466,184.5Z" transform="translate(-233.85 -169.671)" fill="#d1be6f"/>
      </g>
      <path id="Path_56" data-name="Path 56" d="M121.194,260.817l1.7,17.683c.173,1.807,3.135,3.246,4.885,3.246h26.5c1.75,0,4.992-1.439,5.168-3.246l1.371-17.683Zm8.71,16.8a.761.761,0,0,1-.756.828h-2.438a.9.9,0,0,1-.871-.828l-.341-4.255a.777.777,0,0,1,.76-.874h2.515a.917.917,0,0,1,.882.874Zm-.492-8.4a.814.814,0,0,1-.787.9h-2.546a.963.963,0,0,1-.913-.9l-.372-4.645a.833.833,0,0,1,.792-.955h2.63a.983.983,0,0,1,.924.955Zm5.755,8.4a.787.787,0,0,1-.779.828h-2.438a.87.87,0,0,1-.848-.828l-.223-4.255a.8.8,0,0,1,.785-.874h2.515a.886.886,0,0,1,.857.874Zm-.26-8.4a.841.841,0,0,1-.813.9h-2.546a.93.93,0,0,1-.888-.9l-.243-4.645a.86.86,0,0,1,.818-.955h2.63a.95.95,0,0,1,.9.955Zm5.521,8.4a.813.813,0,0,1-.8.828h-2.438a.841.841,0,0,1-.825-.828l-.1-4.255a.829.829,0,0,1,.809-.874h2.515a.857.857,0,0,1,.833.874Zm-.026-8.4a.87.87,0,0,1-.838.9h-2.546a.9.9,0,0,1-.863-.9l-.114-4.645a.889.889,0,0,1,.845-.955h2.63a.919.919,0,0,1,.871.955Zm5.288,8.4a.841.841,0,0,1-.825.828h-2.438a.813.813,0,0,1-.8-.828l.014-4.255a.857.857,0,0,1,.833-.874h2.515a.829.829,0,0,1,.809.874Zm.206-8.4a.9.9,0,0,1-.863.9h-2.546a.87.87,0,0,1-.838-.9l.015-4.645a.919.919,0,0,1,.871-.955h2.63a.889.889,0,0,1,.845.955Zm5.055,8.4a.87.87,0,0,1-.848.828h-2.438a.787.787,0,0,1-.779-.828l.132-4.255a.886.886,0,0,1,.857-.874h2.515a.8.8,0,0,1,.785.874Zm.44-8.4a.931.931,0,0,1-.888.9h-2.546a.841.841,0,0,1-.813-.9l.144-4.645a.95.95,0,0,1,.9-.955h2.63a.86.86,0,0,1,.818.955Zm4.823,8.4a.9.9,0,0,1-.871.828H152.9a.761.761,0,0,1-.756-.828l.249-4.255a.917.917,0,0,1,.882-.874h2.515a.776.776,0,0,1,.76.874Zm.672-8.4a.963.963,0,0,1-.913.9h-2.546a.814.814,0,0,1-.787-.9l.272-4.645a.983.983,0,0,1,.924-.955h2.63a.833.833,0,0,1,.792.955Z" transform="translate(-112.749 -233.657)" fill="#911515"/>
      <g id="Group_6" data-name="Group 6" transform="translate(12.377 8.328)">
        <rect id="Rectangle_4" data-name="Rectangle 4" width="3.98" height="1.681" transform="translate(3.925 2.741)" fill="#507ca8"/>
        <rect id="Rectangle_5" data-name="Rectangle 5" width="5.022" height="0.38" transform="translate(3.404 2.361)" fill="#7abcff"/>
        <path id="Path_57" data-name="Path 57" d="M148.153,181.558h-.118a5.856,5.856,0,0,0-5.856,5.856v27.938a1.3,1.3,0,0,0,1.3,1.3h.369a1.3,1.3,0,0,0,1.207-.82,5.821,5.821,0,0,0,2.978.82h.118a5.821,5.821,0,0,0,2.978-.82,1.3,1.3,0,0,0,1.207.82h.369a1.3,1.3,0,0,0,1.3-1.3V187.414A5.856,5.856,0,0,0,148.153,181.558Z" transform="translate(-142.179 -177.576)" fill="#7abcff"/>
        <path id="Path_58" data-name="Path 58" d="M166.57,160.306h-2.9a.538.538,0,0,0-.538.538v1.823h3.98v-1.823A.538.538,0,0,0,166.57,160.306Z" transform="translate(-159.203 -160.306)" fill="#eb2d2d"/>
        <g id="Group_5" data-name="Group 5" transform="translate(0 15.682)">
          <rect id="Rectangle_6" data-name="Rectangle 6" width="11.83" height="11.535" fill="#2c447a"/>
          <ellipse id="Ellipse_5" data-name="Ellipse 5" cx="5.162" cy="3.677" rx="5.162" ry="3.677" transform="translate(0.728 1.384)" fill="#fff"/>
          <path id="Path_59" data-name="Path 59" d="M158.95,259.728v-1.352h-2.021v.8h-.82v-2.921h-1.121v2.581h-1.08v.892h-1.861v1.009h2.941v.28h1.121v-.44h.82v.26h3.442v-1.109Z" transform="translate(-150.198 -253.96)" fill="#adadad"/>
          <rect id="Rectangle_7" data-name="Rectangle 7" width="9.935" height="1.531" transform="translate(0.909 6.426)" fill="#eb2d2d"/>
          <rect id="Rectangle_8" data-name="Rectangle 8" width="7.323" height="1.02" rx="0.51" transform="translate(1.269 9.848)" fill="#fff"/>
        </g>
        <path id="Path_60" data-name="Path 60" d="M191.917,194.454c.336.439.388.963.116,1.172s-.765.021-1.1-.417-.388-.963-.116-1.171S191.581,194.015,191.917,194.454Z" transform="translate(-181.562 -187.648)" fill="#fff"/>
      </g>
      <g id="Group_7" data-name="Group 7" transform="translate(4.718 1.633)">
        <path id="Path_61" data-name="Path 61" d="M132.759,204.8l-6.7-12.887a3.185,3.185,0,0,1,1.987-4.627l.064-.017a3.186,3.186,0,0,1,4.029,3.019Z" transform="translate(-121.11 -175.435)" fill="#ff8513"/>
        <path id="Path_62" data-name="Path 62" d="M149.972,207.849l1.935-.744.019.449Z" transform="translate(-140.853 -191.642)" fill="#ab590d"/>
        <path id="Path_63" data-name="Path 63" d="M132.068,218.28l2.276-.608-2.144.863Z" transform="translate(-126.304 -200.229)" fill="#ab590d"/>
        <path id="Path_64" data-name="Path 64" d="M148.21,220.3l2.364-.9.023.529Z" transform="translate(-139.422 -201.628)" fill="#ab590d"/>
        <path id="Path_65" data-name="Path 65" d="M142.154,237.067l2.012-.748-1.792,1.172Z" transform="translate(-134.501 -215.382)" fill="#ab590d"/>
        <path id="Path_66" data-name="Path 66" d="M153.591,242.582l1.539-.411.017.4Z" transform="translate(-143.794 -220.138)" fill="#ab590d"/>
        <path id="Path_67" data-name="Path 67" d="M148.965,251.1l1.449-.532-1.26.9Z" transform="translate(-140.035 -226.964)" fill="#ab590d"/>
        <path id="Path_68" data-name="Path 68" d="M158.08,259.657l.835-.35.02.466Z" transform="translate(-147.443 -234.063)" fill="#ab590d"/>
        <path id="Path_69" data-name="Path 69" d="M156.462,266.846l.847-.226-.617.67Z" transform="translate(-146.128 -240.006)" fill="#ab590d"/>
        <path id="Path_70" data-name="Path 70" d="M136.917,186.772c.035.132-.183.306-.489.387s-.581.04-.617-.092.183-.306.489-.388S136.882,186.64,136.917,186.772Z" transform="translate(-129.343 -175.009)" fill="#3a9600"/>
        <path id="Path_71" data-name="Path 71" d="M117.942,136.409c-2.364-1.961-3.923-5.241-3.369-5.979.318-.424.5-.067.7-.253s-2.535-2.437-2.047-3.2.846-.012,1.06-.047-1.7-2.026.094-2.327.8,1.841,1.078,1.947.524-.2,1.319.369-.62,2.507-.479,2.648.311-.433.861-.133C118.244,129.89,117.106,132.443,117.942,136.409Z" transform="translate(-110.944 -124.571)" fill="#44b000"/>
        <path id="Path_72" data-name="Path 72" d="M137,147.245c-.166.02-.831-6.08.384-6.429.463-.158.443.265.443.265s.895-2.349,1.933-2.523c.3-.019.076.359.194.388s1.491-1.527,2.171-.46-1.685,1.528-1.683,1.64.359-.076.357.3-2.255,1.218-2.186,1.336.22-.037.339.186C139.492,142.857,137.738,144.266,137,147.245Z" transform="translate(-130.042 -135.574)" fill="#3b9c00"/>
        <path id="Path_73" data-name="Path 73" d="M108.3,161.941s-2.54-4.127-3-4.271-.218.438-.457.547-.98-3.671-3-1.612,2.3,2.447,2.365,2.631-.712-.123-.593.4S108.3,161.941,108.3,161.941Z" transform="translate(-101.304 -150.103)" fill="#3b9c00"/>
      </g>
      <g id="Group_8" data-name="Group 8" transform="translate(10.045 40.037)">
        <path id="Path_74" data-name="Path 74" d="M147.8,336.625l-14.512-.615a3.185,3.185,0,0,1-3.021-4.029l.017-.064a3.185,3.185,0,0,1,4.626-1.988Z" transform="translate(-130.079 -329.549)" fill="#ff8513"/>
        <path id="Path_75" data-name="Path 75" d="M156.7,335.124l.32-2.048.4.207Z" transform="translate(-151.648 -332.415)" fill="#ab590d"/>
        <path id="Path_76" data-name="Path 76" d="M156.305,354.561l.608-2.276-.32,2.289Z" transform="translate(-151.327 -348.025)" fill="#ab590d"/>
        <path id="Path_77" data-name="Path 77" d="M167.207,341.243l.4-2.5.47.244Z" transform="translate(-160.187 -337.022)" fill="#ab590d"/>
        <path id="Path_78" data-name="Path 78" d="M178.148,356.175l.354-2.117.123,2.138Z" transform="translate(-169.077 -349.466)" fill="#ab590d"/>
        <path id="Path_79" data-name="Path 79" d="M187.36,350.791l.411-1.539.352.183Z" transform="translate(-176.564 -345.561)" fill="#ab590d"/>
        <path id="Path_80" data-name="Path 80" d="M192.9,359.385l.261-1.521.148,1.539Z" transform="translate(-181.063 -352.559)" fill="#ab590d"/>
        <path id="Path_81" data-name="Path 81" d="M204.173,358.057l.113-.9.414.215Z" transform="translate(-190.226 -351.986)" fill="#ab590d"/>
        <path id="Path_82" data-name="Path 82" d="M209.132,363l.226-.847.273.869Z" transform="translate(-194.257 -356.041)" fill="#ab590d"/>
        <path id="Path_83" data-name="Path 83" d="M130.164,339.312c.132.035.174.312.092.617s-.255.524-.388.489-.174-.311-.092-.617S130.032,339.276,130.164,339.312Z" transform="translate(-129.735 -337.48)" fill="#3a9600"/>
      </g>
      <g id="Group_9" data-name="Group 9" transform="translate(10.741 26.401)">
        <path id="Path_84" data-name="Path 84" d="M150.16,278.717c-3.585,2.207-9.109-.256-12.338-5.5s-2.94-11.287.645-13.494,9.109.256,12.338,5.5S153.745,276.51,150.16,278.717Z" transform="translate(-135.178 -258.51)" fill="#e8808b"/>
        <path id="Path_85" data-name="Path 85" d="M198.23,296.9s.447,1.692-3.169-1.449c-4.914-3.714-4.339-10.126-2.483-6.962C197.026,295.326,198.261,291.281,198.23,296.9Z" transform="translate(-180.404 -281.856)" fill="#ffbfc7"/>
        <path id="Path_86" data-name="Path 86" d="M150.455,299.058c-3.585,2.207-7.918-.99-11.147-6.235-1.88-3.055-3.759-5.646-3.3-8.326.331-1.922,4.021,1.368,7.25,6.614S154.04,296.851,150.455,299.058Z" transform="translate(-135.473 -278.851)" fill="#ffbfc7"/>
        <path id="Path_87" data-name="Path 87" d="M135.743,271.686c-3.342-5.429-2.992-11.735.779-14.057s9.56.206,12.9,5.635,2.992,11.735-.78,14.057S139.085,277.115,135.743,271.686Zm12.984-7.992c-3.105-5.045-8.388-7.452-11.776-5.367s-3.617,7.886-.511,12.931,8.388,7.453,11.775,5.368S151.833,268.738,148.727,263.693Z" transform="translate(-133.449 -256.766)" fill="#54110a"/>
        <path id="Path_88" data-name="Path 88" d="M159.341,276.337a1.928,1.928,0,1,0-.631,2.652A1.928,1.928,0,0,0,159.341,276.337Zm-2.418,1.488a.911.911,0,1,1,1.254.3A.912.912,0,0,1,156.923,277.825Z" transform="translate(-151.589 -271.924)" fill="#fff"/>
      </g>
      <g id="Group_10" data-name="Group 10" transform="translate(15.167 17.489)">
        <path id="Path_89" data-name="Path 89" d="M162.2,210.9l-1.873-1.5,2.746-.2Z" transform="translate(-159.72 -209.199)" fill="#bf3324"/>
        <path id="Path_90" data-name="Path 90" d="M253.772,362.317l2.383-.256-1.806,2.079Z" transform="translate(-235.655 -333.422)" fill="#bf3324"/>
        <path id="Path_91" data-name="Path 91" d="M162.352,233.786a47.041,47.041,0,0,1-5.214-13.176,3.435,3.435,0,0,1,6.742-1.318h0a41.742,41.742,0,0,0,11.584,20.141,3.435,3.435,0,1,1-4.656,5.051A44.927,44.927,0,0,1,162.352,233.786Z" transform="translate(-157.075 -215.149)" fill="#bf4d41"/>
        <path id="Path_92" data-name="Path 92" d="M169.137,264.667a50.81,50.81,0,0,1-3.713-8.031,7.325,7.325,0,0,1,6.6-1.978,43.2,43.2,0,0,0,5.9,10.87s-1.329,4.182-5.421,4.231A47.335,47.335,0,0,1,169.137,264.667Z" transform="translate(-163.86 -246.03)" fill="#66241e"/>
        <ellipse id="Ellipse_6" data-name="Ellipse 6" cx="2.845" cy="1.961" rx="2.845" ry="1.961" transform="translate(4.758 15.925) rotate(-29.849)" fill="#d1be6f"/>
      </g>
      <g id="Group_14" data-name="Group 14" transform="translate(31.809 8.82)">
        <g id="Group_11" data-name="Group 11" transform="translate(3.49)">
          <path id="Path_93" data-name="Path 93" d="M268.789,174.034c-2.587-1.314-4.7,1.423-4.186,3.7a6.662,6.662,0,0,0,3.924,4.359c.715.2,1.193-.265,1.981-.44s1.421.043,1.981-.439a6.6,6.6,0,0,0,1.682-5.6C273.655,173.335,270.562,171.753,268.789,174.034Z" transform="translate(-264.525 -171.051)" fill="#fad400"/>
          <path id="Path_94" data-name="Path 94" d="M303.106,177.052c.319.232.426.563.239.741a.782.782,0,0,1-.916-.1c-.319-.231-.426-.563-.239-.741A.782.782,0,0,1,303.106,177.052Z" transform="translate(-295.059 -174.239)" fill="#ffeb7a"/>
          <path id="Path_95" data-name="Path 95" d="M280.165,167.334l-1.641-2.172.859-.485Z" transform="translate(-275.901 -164.351)" fill="#663f30"/>
          <path id="Path_96" data-name="Path 96" d="M288.965,162.933s-2.8.625-2.084,2.962C288.678,165.812,288.965,162.933,288.965,162.933Z" transform="translate(-282.597 -162.933)" fill="#109d59"/>
        </g>
        <g id="Group_12" data-name="Group 12" transform="translate(8.035 5.295)">
          <path id="Path_97" data-name="Path 97" d="M293.321,201.791c-2.281-1.628-4.7.682-4.531,2.933a6.433,6.433,0,0,0,3.119,4.728c.654.293,1.178-.081,1.955-.134s1.351.246,1.955-.134a6.379,6.379,0,0,0,2.414-5.108C298.068,201.825,295.342,199.868,293.321,201.791Z" transform="translate(-288.782 -199.171)" fill="#eb2d2d"/>
          <path id="Path_98" data-name="Path 98" d="M328.157,205.97c.271.267.326.6.121.742a.755.755,0,0,1-.861-.225c-.271-.267-.326-.6-.121-.742A.755.755,0,0,1,328.157,205.97Z" transform="translate(-319.979 -202.966)" fill="#f78d8d"/>
          <path id="Path_99" data-name="Path 99" d="M313.008,193.816l.21-2.62.931.2Z" transform="translate(-308.469 -191.196)" fill="#663f30"/>
          <path id="Path_100" data-name="Path 100" d="M298.868,192.784s.32,2.754,2.636,2.3C301.605,193.349,298.868,192.784,298.868,192.784Z" transform="translate(-296.978 -192.486)" fill="#109d59"/>
        </g>
        <g id="Group_13" data-name="Group 13" transform="translate(0 5.625)">
          <path id="Path_101" data-name="Path 101" d="M254.046,199.977c-2.985-.625-3.723,2.954-2.227,5.242a7.107,7.107,0,0,0,5.292,3.027c.751,0,.988-.646,1.641-1.073s1.336-.385,1.64-1.073a7.108,7.108,0,0,0-.651-6.062C258.246,197.751,254.671,196.992,254.046,199.977Z" transform="translate(-250.099 -197.071)" fill="#5cc32d"/>
          <path id="Path_102" data-name="Path 102" d="M280.214,201.74c.4.151.646.475.553.722s-.493.325-.893.174-.646-.475-.553-.722S279.815,201.589,280.214,201.74Z" transform="translate(-273.043 -200.032)" fill="#94f768"/>
          <path id="Path_103" data-name="Path 103" d="M263.316,195.865l-.841-2.675.941-.231Z" transform="translate(-259.369 -192.958)" fill="#663f30"/>
          <path id="Path_104" data-name="Path 104" d="M245.9,203.673s2.156,2.053,3.921.471C248.864,202.274,245.9,203.673,245.9,203.673Z" transform="translate(-245.895 -201.257)" fill="#109d59"/>
        </g>
      </g>
      <g id="Group_15" data-name="Group 15" transform="translate(20.924 25.127)">
        <circle id="Ellipse_7" data-name="Ellipse 7" cx="5.361" cy="5.361" r="5.361" transform="translate(0 2.534) rotate(-13.673)" fill="#ff8513"/>
        <path id="Path_105" data-name="Path 105" d="M206.489,253.42l.658.665-.325.472.853-.25.13.442.526-.7.768.084-.12-.411.491-.315-.5-.1.273-.685-.873.531-.394-.33-.358.732Z" transform="translate(-202.987 -252.118)" fill="#00b306"/>
        <path id="Path_106" data-name="Path 106" d="M213.869,257.376c.021.071-.087.165-.24.21s-.295.024-.315-.048.086-.165.24-.21S213.848,257.3,213.869,257.376Z" transform="translate(-208.531 -255.93)" fill="#006603"/>
        <path id="Path_107" data-name="Path 107" d="M232.579,261.134c.369.19.571.534.451.768s-.517.271-.887.081-.571-.534-.451-.768S232.21,260.945,232.579,261.134Z" transform="translate(-223.44 -258.943)" fill="#ffba4f"/>
      </g>
      <g id="Group_17" data-name="Group 17" transform="translate(36.277 29.269)">
        <path id="Path_108" data-name="Path 108" d="M286.232,296.977c.158.646-2.065,1.744-4.966,2.453s-5.38.76-5.538.114,2.065-1.744,4.966-2.453S286.074,296.331,286.232,296.977Z" transform="translate(-274.601 -291.943)" fill="#b3b3b3"/>
        <path id="Path_109" data-name="Path 109" d="M286,296.024c.158.646-2.065,1.744-4.966,2.453s-5.38.76-5.538.114,2.065-1.744,4.966-2.453S285.841,295.378,286,296.024Z" transform="translate(-274.412 -291.169)" fill="#3287db"/>
        <rect id="Rectangle_9" data-name="Rectangle 9" width="10.813" height="4.532" transform="matrix(0.971, -0.237, 0.237, 0.971, 0.008, 3.02)" fill="#3287db"/>
        <path id="Path_110" data-name="Path 110" d="M280.255,272.527c.158.646-2.065,1.744-4.966,2.453s-5.38.76-5.538.114,2.065-1.744,4.966-2.453S280.1,271.881,280.255,272.527Z" transform="translate(-269.744 -272.074)" fill="#b3b3b3"/>
        <path id="Path_111" data-name="Path 111" d="M283.453,273.915c.136.556-1.674,1.475-4.043,2.055s-4.4.6-4.535.042,1.674-1.475,4.043-2.054S283.317,273.359,283.453,273.915Z" transform="translate(-273.908 -273.241)" fill="#8f8f8f"/>
        <path id="Path_112" data-name="Path 112" d="M291.486,277.511c.059.239-.72.634-1.738.883s-1.891.257-1.949.018.719-.634,1.738-.883S291.428,277.272,291.486,277.511Z" transform="translate(-284.414 -276.351)" fill="#b3b3b3"/>
        <path id="Path_113" data-name="Path 113" d="M290.5,290.749c.4.757-.849,2.187-2.945,2.7s-3.863-.177-3.857-1.034,1.428-1.577,3.116-2C288.508,290.009,290.1,289.979,290.5,290.749Z" transform="translate(-281.085 -286.75)" fill="#b7ffe6"/>
        <g id="Group_16" data-name="Group 16" transform="translate(1.357 3.793)">
          <path id="Path_114" data-name="Path 114" d="M300.45,303.032c-.424.862-2.044.9-2.037.878,0-.194.518-.247.507-.612A10.623,10.623,0,0,1,300.45,303.032Z" transform="translate(-294.399 -301.017)" fill="#354747"/>
          <path id="Path_115" data-name="Path 115" d="M297.761,293.659c-.769-.441-1.995.213-2.01.206.079.18.518.014.672.34A5.118,5.118,0,0,0,297.761,293.659Z" transform="translate(-292.235 -293.283)" fill="#354747"/>
          <path id="Path_116" data-name="Path 116" d="M278.61,300.464c-.868.2-.775-.27-1.622-.472C276.957,299.911,278.887,299.439,278.61,300.464Z" transform="translate(-276.987 -298.409)" fill="#354747"/>
          <path id="Path_117" data-name="Path 117" d="M278.8,303.282c-.89-.026-.7.423-1.579.711C277.181,304.133,279.332,304.258,278.8,303.282Z" transform="translate(-277.175 -301.227)" fill="#465e5d"/>
          <path id="Path_118" data-name="Path 118" d="M292.251,292.679c-1.881,2.552-5.558,2.319-6.725,1.913a.218.218,0,0,1-.037-.412c1.277-.554,3.933-2.072,6.629-1.808A.19.19,0,0,1,292.251,292.679Z" transform="translate(-283.788 -292.337)" fill="#648785"/>
          <path id="Path_119" data-name="Path 119" d="M311.916,292.658a4.945,4.945,0,0,1-1.567,1.367,1.026,1.026,0,0,1-.624-1.573,7.034,7.034,0,0,1,2.057-.1A.19.19,0,0,1,311.916,292.658Z" transform="translate(-303.454 -292.317)" fill="#88b8b4"/>
          <path id="Path_120" data-name="Path 120" d="M315.781,294.251a.156.156,0,1,1,.1-.21A.163.163,0,0,1,315.781,294.251Z" transform="translate(-308.327 -293.643)" fill="#4a6362"/>
          <path id="Path_121" data-name="Path 121" d="M301.447,299.652q-.431.153-.869.288c-.108.033-.163.14-.106.209q.143.172.29.343a.191.191,0,0,0,.264-.02q.3-.313.583-.635C301.707,299.724,301.6,299.6,301.447,299.652Z" transform="translate(-296.053 -298.267)" fill="#354747"/>
          <path id="Path_122" data-name="Path 122" d="M316.006,294.28a.133.133,0,1,1,.083-.179A.139.139,0,0,1,316.006,294.28Z" transform="translate(-308.538 -293.703)" fill="#fff"/>
          <path id="Path_123" data-name="Path 123" d="M316.173,294.172a.059.059,0,1,1,.036-.079A.061.061,0,0,1,316.173,294.172Z" transform="translate(-308.762 -293.732)" fill="#273635"/>
        </g>
      </g>
      <g id="Group_19" data-name="Group 19" transform="translate(31.359 12.75)">
        <rect id="Rectangle_10" data-name="Rectangle 10" width="11.306" height="24.714" transform="translate(0 9.716)" fill="#d4d4d4"/>
        <rect id="Rectangle_11" data-name="Rectangle 11" width="9.961" height="19.455" transform="translate(0.655 12.649)" fill="#ababab"/>
        <rect id="Rectangle_12" data-name="Rectangle 12" width="11.306" height="3.092" transform="translate(0 27.828)" fill="#f0851d"/>
        <path id="Path_124" data-name="Path 124" d="M249.495,207.455h-.724l-5.273,5.3h11.27Z" transform="translate(-243.498 -203.043)" fill="#ababab"/>
        <path id="Path_125" data-name="Path 125" d="M253.485,212.146h-.6l-4.4,4.425h9.4Z" transform="translate(-247.548 -206.855)" fill="#8c8c8c"/>
        <rect id="Rectangle_13" data-name="Rectangle 13" width="0.709" height="4.412" transform="translate(5.273 0)" fill="#d4d4d4"/>
        <rect id="Rectangle_14" data-name="Rectangle 14" width="10.521" height="3.877" transform="translate(0.353 15.217)" fill="#fff"/>
        <g id="Group_18" data-name="Group 18" transform="translate(1.302 15.681)">
          <path id="Path_126" data-name="Path 126" d="M252.91,269.281c-.017-.366-.038-.807-.034-1.19h-.013c-.093.345-.21.728-.337,1.085l-.412,1.228h-.4l-.378-1.211c-.109-.362-.21-.749-.286-1.1h-.008c-.013.37-.029.82-.051,1.207l-.063,1.14h-.484l.189-2.834h.681l.37,1.139c.1.332.189.669.261.984h.013c.076-.307.172-.656.282-.988l.391-1.135h.673l.164,2.834h-.5Z" transform="translate(-250.445 -267.603)" fill="#f0851d"/>
          <path id="Path_127" data-name="Path 127" d="M269.9,267.6v2.834h-.517V267.6Z" transform="translate(-265.836 -267.603)" fill="#f0851d"/>
          <path id="Path_128" data-name="Path 128" d="M275.308,267.6h.517V270h1.165v.433h-1.682Z" transform="translate(-270.65 -267.603)" fill="#f0851d"/>
          <path id="Path_129" data-name="Path 129" d="M286.37,267.6h.513v1.3h.013c.067-.109.139-.21.206-.307l.74-1h.639l-.976,1.207,1.039,1.627h-.606l-.8-1.3-.252.3v1h-.513Z" transform="translate(-279.639 -267.603)" fill="#f0851d"/>
        </g>
        <rect id="Rectangle_15" data-name="Rectangle 15" width="6.342" height="0.475" transform="translate(1.137 20.308)" fill="#8a8a8a"/>
        <rect id="Rectangle_16" data-name="Rectangle 16" width="8.513" height="0.475" transform="translate(1.137 21.549)" fill="#8a8a8a"/>
        <rect id="Rectangle_17" data-name="Rectangle 17" width="8.513" height="0.475" transform="translate(1.137 22.79)" fill="#8a8a8a"/>
        <rect id="Rectangle_18" data-name="Rectangle 18" width="8.513" height="0.475" transform="translate(1.137 26.099)" fill="#8a8a8a"/>
      </g>
      <g id="Group_20" data-name="Group 20" transform="translate(31.613 38.321)">
        <path id="Path_130" data-name="Path 130" d="M262.977,326.434H249.84l1.484,6.16h10.169Z" transform="translate(-248.906 -325.302)" fill="#fff"/>
        <rect id="Rectangle_19" data-name="Rectangle 19" width="15.335" height="1.132" transform="translate(0)" fill="#2c5bdc"/>
        <path id="Path_131" data-name="Path 131" d="M270.917,337.048H263.13l-.431-3.564h8.648Z" transform="translate(-259.356 -331.031)" fill="#2c5bdc"/>
        <ellipse id="Ellipse_8" data-name="Ellipse 8" cx="2.272" cy="1.174" rx="2.272" ry="1.174" transform="translate(5.396 3.038)" fill="#fff"/>
      </g>
      <g id="Group_24" data-name="Group 24" transform="translate(17.414 12.514)">
        <g id="Group_21" data-name="Group 21" transform="translate(5.26 0)">
          <circle id="Ellipse_9" data-name="Ellipse 9" cx="4.13" cy="4.13" r="4.13" transform="matrix(0.157, -0.988, 0.988, 0.157, 0, 8.159)" fill="#ff9513"/>
          <path id="Path_132" data-name="Path 132" d="M213.919,183.671l.413.591-.308.316.68-.078.041.353.491-.465.572.164-.038-.328.414-.175-.37-.145.3-.485-.733.289-.256-.3-.368.509Z" transform="translate(-210.775 -183.263)" fill="#00b306"/>
          <path id="Path_133" data-name="Path 133" d="M219.337,186.343c.007.057-.087.114-.21.128s-.227-.021-.233-.077.087-.114.21-.128S219.33,186.286,219.337,186.343Z" transform="translate(-214.817 -185.585)" fill="#006603"/>
          <path id="Path_134" data-name="Path 134" d="M232.961,191.662c.256.192.364.48.242.642s-.428.138-.684-.054-.364-.48-.242-.642S232.705,191.469,232.961,191.662Z" transform="translate(-225.653 -189.841)" fill="#ffba4f"/>
        </g>
        <g id="Group_22" data-name="Group 22" transform="translate(8.246 2.949)">
          <circle id="Ellipse_10" data-name="Ellipse 10" cx="4.818" cy="4.818" r="4.818" transform="translate(0 3.139) rotate(-19.01)" fill="#ff8513"/>
          <path id="Path_135" data-name="Path 135" d="M245.094,202.45l.2.816-.468.215.773.2-.1.4.73-.3.554.418.1-.372.524-.017-.341-.313.527-.4-.918.007-.152-.437-.614.4Z" transform="translate(-238.878 -201.689)" fill="#00b306"/>
          <path id="Path_136" data-name="Path 136" d="M251.265,206.7c-.017.065-.143.088-.282.052s-.238-.117-.221-.182.143-.088.282-.052S251.282,206.634,251.265,206.7Z" transform="translate(-243.699 -204.98)" fill="#006603"/>
          <path id="Path_137" data-name="Path 137" d="M263.483,218.3c.2.317.195.675-.006.8s-.524-.03-.722-.347-.195-.675.006-.8S263.285,217.978,263.483,218.3Z" transform="translate(-253.328 -214.248)" fill="#ffba4f"/>
        </g>
        <g id="Group_23" data-name="Group 23" transform="translate(0 2.64)">
          <circle id="Ellipse_11" data-name="Ellipse 11" cx="5.361" cy="5.361" r="5.361" transform="matrix(0.595, -0.804, 0.804, 0.595, 0, 8.619)" fill="#ffa417"/>
          <path id="Path_138" data-name="Path 138" d="M193.209,205.643l.658.665-.324.472.853-.25.13.442.526-.7.768.084-.12-.411.491-.315-.5-.1.273-.685-.873.531-.394-.33-.358.732Z" transform="translate(-188.685 -203.319)" fill="#00b306"/>
          <path id="Path_139" data-name="Path 139" d="M200.588,209.6c.021.071-.086.165-.24.21s-.294.024-.315-.048.086-.165.24-.21S200.567,209.527,200.588,209.6Z" transform="translate(-194.229 -207.131)" fill="#006603"/>
          <path id="Path_140" data-name="Path 140" d="M219.3,213.357c.369.19.571.534.451.768s-.517.271-.887.081-.571-.534-.451-.768S218.929,213.167,219.3,213.357Z" transform="translate(-209.137 -210.144)" fill="#ffba4f"/>
        </g>
      </g>
      <path id="Rectangle_20" data-name="Rectangle 20" d="M2.144,0H43.3a2.144,2.144,0,0,1,2.144,2.144v0A2.144,2.144,0,0,1,43.3,4.289H2.144A2.144,2.144,0,0,1,0,2.144v0A2.144,2.144,0,0,1,2.144,0Z" transform="translate(5.353 21.044)" fill="#ff2424"/>
      <path id="Path_141" data-name="Path 141" d="M114.328,251.067l2.063,20.35a4.112,4.112,0,0,0,3.978,3.678h30.154a4.112,4.112,0,0,0,3.979-3.678l2.063-20.35Zm8.423,19.351a.858.858,0,0,1-.855.942h-2.782a1.04,1.04,0,0,1-1-.942l-.445-4.854a.878.878,0,0,1,.86-1h2.882a1.062,1.062,0,0,1,1.019,1Zm-.645-9.61a.927.927,0,0,1-.895,1.04h-2.922a1.123,1.123,0,0,1-1.06-1.04l-.493-5.368a.952.952,0,0,1,.9-1.108h3.033a1.151,1.151,0,0,1,1.076,1.108Zm6.652,9.61a.891.891,0,0,1-.885.942h-2.782a1,1,0,0,1-.975-.942l-.291-4.854a.911.911,0,0,1,.891-1H127.6a1.021,1.021,0,0,1,.987,1Zm-.34-9.61a.962.962,0,0,1-.928,1.04h-2.922a1.08,1.08,0,0,1-1.027-1.04l-.322-5.368a.987.987,0,0,1,.935-1.108h3.033a1.106,1.106,0,0,1,1.041,1.108Zm6.347,9.61a.925.925,0,0,1-.915.942h-2.782a.962.962,0,0,1-.945-.942l-.137-4.854a.945.945,0,0,1,.923-1h2.882a.982.982,0,0,1,.955,1Zm-.035-9.61a1,1,0,0,1-.961,1.04h-2.922a1.038,1.038,0,0,1-.994-1.04l-.151-5.368a1.025,1.025,0,0,1,.97-1.108H133.7a1.065,1.065,0,0,1,1.006,1.108Zm6.041,9.61a.962.962,0,0,1-.945.942h-2.782a.925.925,0,0,1-.915-.942l.018-4.854a.982.982,0,0,1,.955-1h2.882a.945.945,0,0,1,.923,1Zm.271-9.61a1.038,1.038,0,0,1-.994,1.04h-2.922a1,1,0,0,1-.961-1.04l.019-5.368a1.065,1.065,0,0,1,1.005-1.108h3.034a1.025,1.025,0,0,1,.97,1.108Zm5.736,9.61a1,1,0,0,1-.975.942H143.02a.891.891,0,0,1-.885-.942l.172-4.854a1.021,1.021,0,0,1,.987-1h2.882a.911.911,0,0,1,.891,1Zm.576-9.61a1.08,1.08,0,0,1-1.027,1.04H143.4a.962.962,0,0,1-.928-1.04l.19-5.368a1.107,1.107,0,0,1,1.041-1.108h3.033a.987.987,0,0,1,.935,1.108Zm5.43,9.61a1.04,1.04,0,0,1-1,.942H149a.858.858,0,0,1-.855-.942l.326-4.854a1.062,1.062,0,0,1,1.019-1h2.882a.878.878,0,0,1,.86,1Zm.882-9.61a1.123,1.123,0,0,1-1.06,1.04h-2.922a.927.927,0,0,1-.895-1.04l.361-5.368a1.151,1.151,0,0,1,1.076-1.108h3.033a.952.952,0,0,1,.9,1.108Z" transform="translate(-107.169 -225.734)" fill="#ff2424"/>
      <path id="Path_142" data-name="Path 142" d="M156.38,252.894H114.514l-.185-1.827h42.237Z" transform="translate(-107.17 -225.734)" fill="#ab1818"/>
      <g id="Group_25" data-name="Group 25" transform="translate(0 7.144)">
        <circle id="Ellipse_12" data-name="Ellipse 12" cx="1.95" cy="1.95" r="1.95" transform="translate(8.906 17.436) rotate(-76.657)" fill="#b33636"/>
        <path id="Path_143" data-name="Path 143" d="M79.206,153.984l-3.086,2.151,10.122,14.522a1.862,1.862,0,0,0,2.593.463l.031-.022a1.862,1.862,0,0,0,.463-2.593Z" transform="translate(-76.12 -153.984)" fill="#403434"/>
        <path id="Path_144" data-name="Path 144" d="M134.877,232.48a.778.778,0,1,1-.968.522A.778.778,0,0,1,134.877,232.48Z" transform="translate(-123.055 -217.747)" fill="#7d7171"/>
      </g>
      <g id="Group_26" data-name="Group 26" transform="translate(42.578 7.958)">
        <circle id="Ellipse_13" data-name="Ellipse 13" cx="1.95" cy="1.95" r="1.95" transform="translate(0 16.56) rotate(-75.182)" fill="#b33636"/>
        <path id="Path_145" data-name="Path 145" d="M318.442,160.728l-2.9-2.4-11.275,13.645a1.862,1.862,0,0,0,.249,2.622l.029.024a1.862,1.862,0,0,0,2.622-.249Z" transform="translate(-303.753 -158.332)" fill="#403434"/>
        <path id="Path_146" data-name="Path 146" d="M311.106,234.127a.778.778,0,1,1,.615-.912A.778.778,0,0,1,311.106,234.127Z" transform="translate(-308.905 -218.674)" fill="#7d7171"/>
      </g>
    </g>
  </g>
</svg>
