<svg xmlns="http://www.w3.org/2000/svg" width="50" height="50" viewBox="0 0 50 50">
  <g id="Group_2" data-name="Group 2" transform="translate(-958 -304)">
    <rect id="Rectangle_1" data-name="Rectangle 1" width="50" height="50" rx="25" transform="translate(958 304)" fill="#504de4"/>
    <g id="Group_1" data-name="Group 1" transform="translate(1072.505 -308.46)">
      <path id="Path_1969" data-name="Path 1969" d="M-97.813,646.941c-1.274-.067-1.273-.067-1.581,1.093-.229.862-.469,1.722-.692,2.586-.149.575-.068.7.489.9.412.149.825.3,1.219.486.122.058.187.239.278.363-.115.079-.228.226-.344.228-1.141.017-2.282.01-3.458.01l.393-5.678h-1.726c0-.838-.048-1.626.008-2.407a25.8,25.8,0,0,1,3.833-12.11,18.758,18.758,0,0,1,3.342-4.038,1.776,1.776,0,0,0,.713-1.734,2.289,2.289,0,0,1,1.127-2.327,2.5,2.5,0,0,1,2.6-.055,2.556,2.556,0,0,1,1.247,2.372,2.388,2.388,0,0,1-1.844,2.154,1.067,1.067,0,0,0-.948.832c-.209.761-.518,1.5-.675,2.269a2.637,2.637,0,0,0,1.594,2.9c.122.052.241.11.384.175a12.387,12.387,0,0,1,2.6-5.743,11.193,11.193,0,0,1,3.812-3.178,1.279,1.279,0,0,0,.8-1.139,2.5,2.5,0,0,1,2.24-2.251,2.5,2.5,0,0,1,2.5,1.366,2.132,2.132,0,0,1-.348,2.607,2.3,2.3,0,0,1-1.839.671c-.733-.018-.833.128-.649.864a16.728,16.728,0,0,0,6.63,9.73,2.171,2.171,0,0,1,.276.219c.336.34.31.751-.116.951a.691.691,0,0,0-.408.62c-.7,4.289-1.416,8.576-2.135,12.925l-.591-.1,2.217-13.3-.895-.5-.861.343-.1-.122.272-.8c-.042-.027-.158-.091-.263-.171a22.674,22.674,0,0,1-4.8-5.029c-.058-.082-.119-.164-.184-.241-.4-.478-.669-.474-1.026.053a11.484,11.484,0,0,0-1.946,5.511,18.733,18.733,0,0,0,.554,5.053c.458,2.534.929,5.067,1.375,7.6a.68.68,0,0,0,.572.65,5.792,5.792,0,0,1,1.11.336c.157.07.243.3.361.454-.154.094-.306.264-.461.268-.994.025-1.989,0-2.983.018-.452.007-.539-.278-.639-.627-.6-2.086-1.209-4.167-1.822-6.248a5.363,5.363,0,0,0-.244-.561c-.118,1.292-.214,2.492-.341,3.689-.064.6-.163,1.2-.284,1.794-.092.449.006.756.46.919a5.428,5.428,0,0,1,.835.354c.129.072.2.243.3.368a2.937,2.937,0,0,1-.435.289.909.909,0,0,1-.35.018c-2.275,0-4.551-.008-6.827.009a.544.544,0,0,1-.624-.468C-96.654,650.417-97.239,648.685-97.813,646.941Zm2.288,0a.59.59,0,0,0-.026.148,17.649,17.649,0,0,1,.456,2.473,2.054,2.054,0,0,0,1.855,2.191.646.646,0,0,1,.095.034c.491.175.631.115.739-.4a27.827,27.827,0,0,0,.73-8.114c-.167-1.925-.4-3.845-.609-5.767a.4.4,0,0,0-.206-.288,5.071,5.071,0,0,1-2.131-1.3c-.313-.3-.578-.211-.767.146a2.421,2.421,0,0,0-.167.473,13.072,13.072,0,0,0-.163,6.193c.27,1.377.5,2.762.758,4.172Z" transform="translate(0 0)" fill="#fff"/>
    </g>
  </g>
</svg>
