<svg xmlns="http://www.w3.org/2000/svg" width="74.174" height="61.035" viewBox="0 0 74.174 61.035">
  <g id="Group_1" data-name="Group 1" transform="translate(-103.65 -84.292)">
    <g id="Group_4136" data-name="Group 4136" transform="translate(133.434 95.405)">
      <path id="Path_1743" data-name="Path 1743" d="M244.734,131.5a3.024,3.024,0,0,0,.952-3.052c-.851-1.466-1.361-2.93-.675-4.384a3.966,3.966,0,0,1,6.651-1.093c.755,1.216.427,1.7.65,2.55.471.64,1.39.833,1.525,1.42.042.538-.615.487-1.035.9a1.433,1.433,0,0,0,.269.68c.006.123-.09.21-.285.282.2.015.355.126.368.241.021.139-.3.258-.284.486a1.263,1.263,0,0,0,.188.57.417.417,0,0,1-.346.608,8.817,8.817,0,0,1-2.337.21,3.161,3.161,0,0,0-1.3,2.167Z" transform="translate(-231.37 -121.321)" fill="#ffb298" fill-rule="evenodd"/>
      <path id="Path_1744" data-name="Path 1744" d="M318.582,256.623a2.28,2.28,0,0,0,1.267.557,15.273,15.273,0,0,1,3.562-.229c.734-.428,1.219.079.783.441l-4.98,2.487c-.969.471-1.564.32-1.844-.353a7.283,7.283,0,0,0-1.032-2.158Z" transform="translate(-281.12 -215.068)" fill="#ffb298" fill-rule="evenodd"/>
      <path id="Path_1745" data-name="Path 1745" d="M237.792,168.032c-.648-3.966-1.707-11.328,1.569-14.4,1.058-.993,3.408.959,4.441,1.6a39.461,39.461,0,0,1,7.273,18.658Z" transform="translate(-226.097 -143.36)" fill="#4e4de6" fill-rule="evenodd"/>
      <path id="Path_1746" data-name="Path 1746" d="M243.76,151.676a3.609,3.609,0,0,0,.659-1.463,11.807,11.807,0,0,1,4.549,1.9c-.293.834.006,1,0,1.741A14.916,14.916,0,0,0,243.76,151.676Z" transform="translate(-230.723 -141.179)" fill="#0100c4" fill-rule="evenodd"/>
      <path id="Path_1747" data-name="Path 1747" d="M245.1,162.5a19.523,19.523,0,0,0,2.006,8.667h8.541a2.263,2.263,0,0,0,.55-2.2c-1.944-.377-4.5-.687-6.471-.88a41.853,41.853,0,0,0-.614-5.508C248.568,159.56,245.057,159.729,245.1,162.5Z" transform="translate(-231.655 -148.231)" fill="#0100c4" fill-rule="evenodd"/>
      <path id="Path_1748" data-name="Path 1748" d="M280,189.569a4.354,4.354,0,0,1,2.462.463,2.71,2.71,0,0,1,1.279,1.763,5.018,5.018,0,0,1-.055,2.107.4.4,0,0,1-.77.085l-1.215-2.125-2.154-.741A2.075,2.075,0,0,1,280,189.569Z" transform="translate(-255.558 -168.506)" fill="#ffb298" fill-rule="evenodd"/>
      <path id="Path_1749" data-name="Path 1749" d="M282.115,215.159c2.768.3,7.8-.219,9.243,2.727l4.013,10.169-2.394,1.36-4.47-9.349c-.145-.229-.206-.46-.4-.571a2.008,2.008,0,0,0-.778-.165h-5.109Z" transform="translate(-257.356 -186.276)" fill="#5a8a7e" fill-rule="evenodd"/>
      <path id="Path_1750" data-name="Path 1750" d="M224.482,189.252l-1.223-14.062a2.637,2.637,0,0,0-.574-1.538,1.367,1.367,0,0,0-1.053-.457h-2.1v-1.863h2.1a3.178,3.178,0,0,1,2.437,1.075,4.478,4.478,0,0,1,1.047,2.623l1.223,14.061Z" transform="translate(-213.898 -155.844)" fill="#a66c36" fill-rule="evenodd"/>
      <path id="Rectangle_768" data-name="Rectangle 768" d="M.953,0H5a.953.953,0,0,1,.953.953v.876A.953.953,0,0,1,5,2.782H.952A.952.952,0,0,1,0,1.83V.953A.953.953,0,0,1,.953,0Z" transform="translate(0.414 15.052)" fill="#6e4823"/>
      <path id="Path_1751" data-name="Path 1751" d="M252.005,206.044H235.313l-.971-10.335h14.4c2.167.049,3.268,1.745,3.268,4.179v6.156Zm-.954-5.922c0-1.621-.232-3.412-2.314-3.459h-3.155C245.512,199.371,247.025,200.778,251.052,200.122Z" transform="translate(-224.183 -172.771)" fill="#6e4823" fill-rule="evenodd"/>
      <path id="Path_1752" data-name="Path 1752" d="M235.82,230.594l-.195-1.895,19.664.031a.933.933,0,0,1,.874.61l5.947,12.44a.928.928,0,0,1-1.674.8l-5.73-11.987Z" transform="translate(-225.074 -195.678)" fill="#a66c36" fill-rule="evenodd"/>
      <rect id="Rectangle_769" data-name="Rectangle 769" width="7.569" height="2.588" transform="translate(21.353 37.883)" fill="#6e4823"/>
      <rect id="Rectangle_770" data-name="Rectangle 770" width="1.517" height="5.438" transform="translate(27.405 37.883)" fill="#6e4823"/>
      <path id="Path_1753" data-name="Path 1753" d="M289.36,229.552l-1.567-6.566-1.3.767,1.51,6.6Z" transform="translate(-260.397 -191.711)" fill="#6e4823" fill-rule="evenodd"/>
      <rect id="Rectangle_771" data-name="Rectangle 771" width="0.256" height="3.008" transform="translate(28.043 42.634)" fill="#5a8a7e"/>
      <rect id="Rectangle_772" data-name="Rectangle 772" width="0.256" height="3.007" transform="matrix(0.809, -0.588, 0.588, 0.809, 26.037, 43.369)" fill="#5a8a7e"/>
      <rect id="Rectangle_773" data-name="Rectangle 773" width="0.256" height="3.008" transform="translate(24.846 45.142) rotate(-71.943)" fill="#5a8a7e"/>
      <rect id="Rectangle_774" data-name="Rectangle 774" width="3.008" height="0.256" transform="translate(24.846 47.037) rotate(-18.057)" fill="#5a8a7e"/>
      <rect id="Rectangle_775" data-name="Rectangle 775" width="3.007" height="0.256" transform="matrix(0.588, -0.809, 0.809, 0.588, 26.037, 48.81)" fill="#5a8a7e"/>
      <rect id="Rectangle_776" data-name="Rectangle 776" width="0.256" height="3.008" transform="translate(28.043 46.537)" fill="#5a8a7e"/>
      <rect id="Rectangle_777" data-name="Rectangle 777" width="0.256" height="3.007" transform="matrix(0.809, -0.588, 0.588, 0.809, 28.331, 46.527)" fill="#5a8a7e"/>
      <rect id="Rectangle_778" data-name="Rectangle 778" width="0.256" height="3.007" transform="translate(28.558 46.348) rotate(-71.943)" fill="#5a8a7e"/>
      <rect id="Rectangle_779" data-name="Rectangle 779" width="3.007" height="0.256" transform="translate(28.558 45.831) rotate(-18.057)" fill="#5a8a7e"/>
      <rect id="Rectangle_780" data-name="Rectangle 780" width="3.007" height="0.256" transform="matrix(0.588, -0.809, 0.809, 0.588, 28.331, 45.652)" fill="#5a8a7e"/>
      <path id="Path_1754" data-name="Path 1754" d="M292.916,271.255a.16.16,0,1,0-.16-.16A.16.16,0,0,0,292.916,271.255Z" transform="translate(-264.745 -225.006)" fill="#6e4823" fill-rule="evenodd"/>
      <path id="Path_1755" data-name="Path 1755" d="M291.97,269.574a.576.576,0,1,1-.576.576.576.576,0,0,1,.576-.576Zm0,.255a.321.321,0,1,0,.321.321A.321.321,0,0,0,291.97,269.829Z" transform="translate(-263.799 -224.061)" fill="#a66c36" fill-rule="evenodd"/>
      <path id="Path_1756" data-name="Path 1756" d="M284.575,258.924a3.831,3.831,0,1,1-3.831,3.831,3.831,3.831,0,0,1,3.831-3.831Zm0,1.2a2.632,2.632,0,1,0,2.633,2.632A2.632,2.632,0,0,0,284.575,260.123Z" transform="translate(-256.404 -216.666)" fill="#a66c36" fill-rule="evenodd"/>
      <rect id="Rectangle_781" data-name="Rectangle 781" width="0.767" height="9.013" transform="translate(10.355 28.821)" fill="#5a8a7e"/>
      <rect id="Rectangle_782" data-name="Rectangle 782" width="0.767" height="9.013" transform="translate(4.342 31.025) rotate(-36.009)" fill="#5a8a7e"/>
      <rect id="Rectangle_783" data-name="Rectangle 783" width="0.768" height="9.013" transform="matrix(0.309, -0.951, 0.951, 0.309, 0.772, 36.342)" fill="#5a8a7e"/>
      <rect id="Rectangle_784" data-name="Rectangle 784" width="9.013" height="0.768" transform="matrix(0.951, -0.309, 0.309, 0.951, 0.772, 42.011)" fill="#5a8a7e"/>
      <rect id="Rectangle_785" data-name="Rectangle 785" width="9.013" height="0.767" transform="matrix(0.588, -0.809, 0.809, 0.588, 4.343, 47.33)" fill="#5a8a7e"/>
      <rect id="Rectangle_786" data-name="Rectangle 786" width="0.767" height="9.013" transform="translate(10.355 40.519)" fill="#5a8a7e"/>
      <rect id="Rectangle_787" data-name="Rectangle 787" width="0.767" height="9.013" transform="matrix(0.809, -0.588, 0.588, 0.809, 11.218, 40.488)" fill="#5a8a7e"/>
      <rect id="Rectangle_788" data-name="Rectangle 788" width="0.768" height="9.013" transform="translate(11.897 39.958) rotate(-72.016)" fill="#5a8a7e"/>
      <rect id="Rectangle_789" data-name="Rectangle 789" width="9.013" height="0.768" transform="translate(11.897 38.396) rotate(-17.984)" fill="#5a8a7e"/>
      <rect id="Rectangle_790" data-name="Rectangle 790" width="9.013" height="0.767" transform="translate(11.217 37.864) rotate(-53.977)" fill="#5a8a7e"/>
      <path id="Path_1757" data-name="Path 1757" d="M211.842,213.7A10.739,10.739,0,1,1,201.1,224.442,10.739,10.739,0,0,1,211.842,213.7Zm0,1.629a9.11,9.11,0,1,0,9.11,9.11A9.11,9.11,0,0,0,211.842,215.332Z" transform="translate(-201.103 -185.265)" fill="#a66c36" fill-rule="evenodd"/>
      <path id="Path_1758" data-name="Path 1758" d="M235.151,248.231a.48.48,0,1,0-.479-.48A.481.481,0,0,0,235.151,248.231Z" transform="translate(-224.413 -208.575)" fill="#6e4823" fill-rule="evenodd"/>
      <path id="Path_1759" data-name="Path 1759" d="M232.32,243.193a1.726,1.726,0,1,1-1.726,1.726,1.727,1.727,0,0,1,1.726-1.726Zm0,.764a.962.962,0,1,0,.962.962A.962.962,0,0,0,232.32,243.957Z" transform="translate(-221.581 -205.742)" fill="#a66c36" fill-rule="evenodd"/>
      <path id="Path_1760" data-name="Path 1760" d="M323.356,259.051l-8.021,4.006a.369.369,0,0,0-.168.491l.788,1.621a.367.367,0,0,0,.491.169l8.021-4.006a.369.369,0,0,0,.168-.491l-.788-1.621A.366.366,0,0,0,323.356,259.051Z" transform="translate(-280.281 -216.728)" fill="#6e4823" fill-rule="evenodd"/>
      <path id="Path_1761" data-name="Path 1761" d="M251.194,122.534c0,1.575-2.507.215-3,3.656l-.255.046c-.244-.728-1.587-.6-1.454.292a2.923,2.923,0,0,1-.389,1.552.813.813,0,0,1-1.155.159c-1.085-1.984-2.056-3.887-.941-5.693A4.373,4.373,0,0,1,251.194,122.534Z" transform="translate(-230.544 -120.654)" fill-rule="evenodd"/>
    </g>
    <path id="Path_1762" data-name="Path 1762" d="M152.391,265.248a3.482,3.482,0,0,0,1.32,1.643,18.009,18.009,0,0,1,4.236,1.563c.853.473.955,1.637-.063,1.649l-8.444.4a7.431,7.431,0,0,1-2.365-.543l.129-4.871Z" transform="translate(-30.153 -125.54)" fill="#925f30" fill-rule="evenodd"/>
    <path id="Path_1763" data-name="Path 1763" d="M149.013,280.232c2.745.005,6.334.455,9.293.131a.2.2,0,0,1,.208.207v.6a.207.207,0,0,1-.2.208H147.173a.208.208,0,0,1-.208-.208c0-.5-.13-.94.078-.939Z" transform="translate(-30.049 -136.054)" fill="#593a1d" fill-rule="evenodd"/>
    <path id="Path_1764" data-name="Path 1764" d="M143.769,189.775l9.058-.123a178.92,178.92,0,0,1-.284,24.859h-8.316c1.05-6.34,1.929-12.727,1.086-19.257C144.514,193.723,143.6,191.153,143.769,189.775Z" transform="translate(-27.844 -73.16)" fill="#4e766c" fill-rule="evenodd"/>
    <path id="Path_1765" data-name="Path 1765" d="M111.867,255.978a4.983,4.983,0,0,0,1.153,3.469c.687.774,1.879.8,2.52,1.46a1.142,1.142,0,0,1,.215.947h-3.871l-4.8-2.652c-.274-.18-1.59-1.411-1.555-1.61.234-1.334,1.317-2.586,2.7-4.031Z" transform="translate(-1.304 -117.536)" fill="#a66c36" fill-rule="evenodd"/>
    <path id="Path_1766" data-name="Path 1766" d="M110.579,270.377h3.93l-.02,1.009-4.182,0-1.443-1.007-5.115-3.48a.208.208,0,0,1-.068-.285c.261-.425.382-.869.558-.759C106.555,267.285,108.419,269,110.579,270.377Z" transform="translate(0 -126.06)" fill="#6e4823" fill-rule="evenodd"/>
    <path id="Path_1767" data-name="Path 1767" d="M122.089,187.087l8.318.767-.211,1.772c-.927,4.341-2.309,9.273-4.843,12.693-3.082,4.16-6.276,5.826-7.8,9.205l-6.093-3.615a30.58,30.58,0,0,1,7.77-8.671c2.09-1.409,2.672-3.9,3.233-6.42C121.081,189.717,120.565,186.768,122.089,187.087Z" transform="translate(-5.424 -71.362)" fill="#5a8a7e" fill-rule="evenodd"/>
    <path id="Path_1768" data-name="Path 1768" d="M150.86,95.817a3.213,3.213,0,0,0,1.011-3.242c-.9-1.558-1.446-3.112-.717-4.657a4.213,4.213,0,0,1,7.064-1.161c.8,1.292.454,1.8.691,2.708.5.68,1.476.885,1.62,1.508.044.572-.653.517-1.1.961a1.517,1.517,0,0,0,.285.722c.006.131-.094.223-.3.3.209.016.377.134.391.257.023.148-.321.274-.3.516a1.338,1.338,0,0,0,.2.606.443.443,0,0,1-.368.646,9.364,9.364,0,0,1-2.483.222,3.356,3.356,0,0,0-1.378,2.3Z" transform="translate(-32.751 -0.708)" fill="#ffb298" fill-rule="evenodd"/>
    <path id="Path_1769" data-name="Path 1769" d="M142.96,141.167a13.9,13.9,0,0,1,.492-3.922c1.943-6.723-1.231-15.155,1.847-17.9,1.15-1.026,3.62,1.019,4.717,1.7,4.542,6.413,2.655,6.989,2.752,20Z" transform="translate(-27.296 -24.143)" fill="#7caaa0" fill-rule="evenodd"/>
    <path id="Path_1770" data-name="Path 1770" d="M149.825,117.242a3.821,3.821,0,0,0,.7-1.553,12.536,12.536,0,0,1,4.831,2.016c-.311.886.006,1.061,0,1.849A15.855,15.855,0,0,0,149.825,117.242Z" transform="translate(-32.063 -21.802)" fill="#5a8a7e" fill-rule="evenodd"/>
    <path id="Path_1771" data-name="Path 1771" d="M154.761,134.341c.05,3.11,1.65,7.172,3.173,10.19l8.687,1.154a2.4,2.4,0,0,0,.584-2.334c-2.065-.4-4.4-1.884-6.488-2.089-.115-2.006-1.294-4.612-1.695-6.834C158.442,131.217,154.713,131.4,154.761,134.341Z" transform="translate(-35.49 -33.18)" fill="#ffb298" fill-rule="evenodd"/>
    <path id="Path_1772" data-name="Path 1772" d="M157.722,86.288c0,1.674-2.663.229-3.19,3.884l-.271.049c-.259-.773-1.686-.636-1.544.311a3.1,3.1,0,0,1-.414,1.649.863.863,0,0,1-1.226.169c-1.153-2.108-2.184-4.129-1-6.047A4.646,4.646,0,0,1,157.722,86.288Z" transform="translate(-31.873)" fill-rule="evenodd"/>
    <path id="Path_1773" data-name="Path 1773" d="M153.2,129.948a26.722,26.722,0,0,0,.887,5.454,26.734,26.734,0,0,1,4.627-1.231c-.11-1.148-.661-2.757-.909-4.13C157.183,126.571,153.152,126.764,153.2,129.948Z" transform="translate(-34.409 -30.002)" fill="#5a8a7e" fill-rule="evenodd"/>
    <path id="Path_1774" data-name="Path 1774" d="M190.646,168.34l4.734.309a2.5,2.5,0,0,1-1.536,3l-3.682-.957L190,169.008Z" transform="translate(-59.957 -58.361)" fill="#ffb298" fill-rule="evenodd"/>
  </g>
</svg>
