<svg xmlns="http://www.w3.org/2000/svg" width="53" height="52" viewBox="0 0 53 52">
  <g id="Group_2" data-name="Group 2" transform="translate(-450 -365)">
    <g id="Group_1" data-name="Group 1" transform="translate(394.489 310)">
      <path id="Path_1701" data-name="Path 1701" d="M66.53,55c1.46.636,2.917,1.277,4.379,1.908a1.612,1.612,0,0,1,.973,2.413q-1.483,3.452-2.974,6.9a1.648,1.648,0,0,1-2.424.983c-1.32-.566-2.632-1.153-3.963-1.7-.4-.161-.48-.3-.3-.712,1.394-3.2,2.765-6.4,4.142-9.6a2.047,2.047,0,0,0,.063-.2Z" transform="translate(-5.218)" fill="#20252d"/>
      <path id="Path_1702" data-name="Path 1702" d="M256.141,251.08a1.6,1.6,0,0,1,.149-.675q1.42-3.56,2.84-7.119a1.645,1.645,0,0,1,2.373-1.014c1.383.548,2.762,1.109,4.149,1.648.28.109.374.192.242.519q-1.959,4.843-3.872,9.7c-.118.3-.243.3-.494.2-1.443-.587-2.893-1.157-4.336-1.743A1.505,1.505,0,0,1,256.141,251.08Z" transform="translate(-158.726 -147.403)" fill="#485a66"/>
      <path id="Path_1703" data-name="Path 1703" d="M274.184,229.2c.2-.524.364-.986.563-1.431a1.512,1.512,0,0,1,1.969-.836c1.5.575,2.992,1.192,4.493,1.774.266.1.3.208.192.462-.219.5-.421,1-.6,1.514-.106.309-.251.295-.51.189-1.394-.567-2.793-1.12-4.193-1.671A2.2,2.2,0,0,0,274.184,229.2Z" transform="translate(-172.948 -135.386)" fill="#405059"/>
      <path id="Path_1704" data-name="Path 1704" d="M62.823,110.575c-.246.558-.431,1.024-.653,1.472a1.488,1.488,0,0,1-1.945.774c-1.5-.617-2.992-1.279-4.489-1.915-.224-.1-.281-.2-.168-.432.235-.489.454-.986.644-1.493.111-.294.221-.347.522-.212,1.293.579,2.6,1.125,3.9,1.689A2.351,2.351,0,0,0,62.823,110.575Z" transform="translate(0 -42.31)" fill="#2d333f"/>
      <path id="Path_1705" data-name="Path 1705" d="M240.21,125.189c.129.143.247.3.388.429,2.222,2.056,3.449,4.8,5.036,7.291a.42.42,0,0,1-.133.632.984.984,0,0,1-.947.155,1.544,1.544,0,0,1-.929-.878C242.509,130.459,239.865,125.422,240.21,125.189Z" transform="translate(-146.036 -55.301)" fill="#dfb69a"/>
      <path id="Path_1706" data-name="Path 1706" d="M103,196.443c-.478-1.013-.949-2.03-1.435-3.039a1.379,1.379,0,0,0-1.491-.921c-.554.129-.716.473-.435.943.934,1.565,1.85,3.141,2.817,4.686a27.968,27.968,0,0,0,2.654,3.042c.1-.174-.006-.254-.047-.342Q104.04,198.626,103,196.443Z" transform="translate(-34.793 -108.301)" fill="#dfb69a"/>
      <path id="Path_1707" data-name="Path 1707" d="M131.139,96.212c-.446-.989-.849-2-1.263-3q-1.181-2.861-2.356-5.724a7.051,7.051,0,0,0-.926-1.856c-2.392-2.126-4.777-4.257-7.216-6.33a3.8,3.8,0,0,0-2.189-.892c-2.289-.232-4.579-.466-6.863-.745a17.985,17.985,0,0,0-4.823-.329,6.237,6.237,0,0,1-3.915-.679,3.446,3.446,0,0,0-.392-.151.874.874,0,0,0-1.291.58c-.86,2.484-1.722,4.967-2.559,7.459a1.771,1.771,0,0,0,1.186,2.475,4.062,4.062,0,0,1,2.131,1.651,13.374,13.374,0,0,0,3.586,3.606,3.968,3.968,0,0,0,3.19.725,2.305,2.305,0,0,1,.473-.027,14.146,14.146,0,0,1,3.732.592c1.837.459,3.621,1.114,5.486,1.471.37.071.484-.043.583-.369a3.336,3.336,0,0,0-1.7-4.193,10.683,10.683,0,0,0-4.813-1.428l5.3-2.557a6.554,6.554,0,0,0-1.309-.164,14.771,14.771,0,0,0-3.737.58,14.624,14.624,0,0,1-4.349.7,4.1,4.1,0,0,1-3.26-1.894c.121,0,.184-.02.218,0a5.6,5.6,0,0,0,4.761.551c1.244-.3,2.478-.644,3.725-.932a6.762,6.762,0,0,1,5.806,1.076c1.089.8,2.241,1.513,3.373,2.252a1.816,1.816,0,0,1,.647.73q1.4,2.741,2.829,5.465a1.451,1.451,0,0,0,1.846.783c.294-.114.4-.239.277-.583-.547-1.516-1.08-3.038-1.581-4.57a9.7,9.7,0,0,0-2.035-4.035l-1.093-1.32.112-.1,1.1,1.3a8.535,8.535,0,0,1,2.062,3.007c.31.854.737,1.665,1.112,2.495.612,1.357,1.217,2.718,1.841,4.071a1.521,1.521,0,0,0,2.043.953C131.185,96.719,131.3,96.571,131.139,96.212Z" transform="translate(-33.13 -16.87)" fill="#e8b290"/>
      <path id="Path_1708" data-name="Path 1708" d="M140.741,194.551a5.391,5.391,0,0,0-.681-.278,2.279,2.279,0,0,1-1.277-1,14.546,14.546,0,0,0-4.084-4.137,3.73,3.73,0,0,0-2.647-.659,6.041,6.041,0,0,1-1.154.078,15.3,15.3,0,0,1-3.416-.592c-1.819-.457-3.587-1.1-5.433-1.464-.38-.075-.529.017-.638.372a3.325,3.325,0,0,0,1.583,4.107,10.6,10.6,0,0,0,4.941,1.507l-5.307,2.563a7.85,7.85,0,0,0,3.191-.006c1.608-.281,3.157-.831,4.776-1.064a4.45,4.45,0,0,1,4.592,1.667c.076.1.229.19.124.37a4.767,4.767,0,0,0-3.745-.973,34.772,34.772,0,0,0-4.451,1.055,7.257,7.257,0,0,1-6.591-1.141c-.987-.757-2.061-1.4-3.107-2.08a1.813,1.813,0,0,1-.655-.725q-1.4-2.738-2.831-5.464a1.449,1.449,0,0,0-1.734-.838c-.366.113-.531.264-.366.714.621,1.695,1.178,3.412,1.785,5.112a11.594,11.594,0,0,0,.822,2.151l1.587,2,.568.686a1.344,1.344,0,0,1-.662-.581l-1.711-2a1.67,1.67,0,0,1-.433-.531,3.017,3.017,0,0,0-.395-.847c-.607-1.376-1.21-2.754-1.821-4.129-.419-.944-.837-1.889-1.277-2.824a1.515,1.515,0,0,0-2.059-.912c-.278.126-.4.254-.247.6.482,1.088.919,2.2,1.38,3.294q1.167,2.781,2.343,5.558a3.486,3.486,0,0,0,.406.956,1.261,1.261,0,0,0,.364.739c2.59,2.3,5.135,4.649,7.836,6.82a1.566,1.566,0,0,0,.761.333q.782.118,1.566.219c2.457.315,4.93.484,7.387.816a13.365,13.365,0,0,0,5.188-.017.673.673,0,0,1,.449.1c.765.3,1.522.63,2.291.926a.852.852,0,0,0,1.246-.5c.89-2.566,1.784-5.132,2.636-7.711A1.757,1.757,0,0,0,140.741,194.551Z" transform="translate(-41.649 -102.046)" fill="#e8b290"/>
    </g>
  </g>
</svg>
