<svg xmlns="http://www.w3.org/2000/svg" width="24.444" height="24.131" viewBox="0 0 24.444 24.131">
  <g id="Group_1" data-name="Group 1" transform="translate(-176.898 -273.236)">
    <path id="Path_1737" data-name="Path 1737" d="M300.4,285.631a8.268,8.268,0,0,0-.975-.093,1.561,1.561,0,0,0-.741.164,7.05,7.05,0,0,1-4.67.908.331.331,0,0,1-.123-.022c-.22-.14-.436-.286-.653-.43a4.39,4.39,0,0,1,.579-.387,3.527,3.527,0,0,0,1.6-1.362.429.429,0,0,0-.118-.664,5.528,5.528,0,0,1-1.768-2.5,5.458,5.458,0,0,1,1.794-6.175,7.988,7.988,0,0,1,6.761-1.677,7.122,7.122,0,0,1,4.713,2.856,5.329,5.329,0,0,1-.724,7.24A8.074,8.074,0,0,1,300.4,285.631Zm.108-5.639c-.171-.325-.327-.585-.446-.86a.551.551,0,0,0-.632-.347,2.6,2.6,0,0,0-2.285,2.021,14.072,14.072,0,0,0-.066,1.756.339.339,0,0,0,.388.383q3.039,0,6.079,0c.286,0,.4-.14.395-.416-.008-.433.014-.868-.012-1.3a2.594,2.594,0,0,0-2.378-2.448.485.485,0,0,0-.562.306C300.859,279.376,300.693,279.648,300.508,279.992Zm-.014-1.238a1.77,1.77,0,0,0,1.789-1.73,1.809,1.809,0,0,0-1.757-1.821,1.791,1.791,0,0,0-1.783,1.746A1.747,1.747,0,0,0,300.494,278.755Z" transform="translate(-106.548)" fill="#4e4de6"/>
    <path id="Path_1738" data-name="Path 1738" d="M177.805,335.712l5.887,5.87-.651.705c.506.481,1,.932,1.472,1.4q2.3,2.292,4.592,4.6c.267.271.467.364.719.006a1.281,1.281,0,0,1,.255-.238l5.908,5.88a18.183,18.183,0,0,1-1.916.54,7.012,7.012,0,0,1-5-.874,8.248,8.248,0,0,1-1.481-1.156c-2.96-2.931-5.879-5.9-8.852-8.822A6.55,6.55,0,0,1,177.805,335.712Z" transform="translate(0 -57.236)" fill="#4e4de6"/>
    <path id="Path_1739" data-name="Path 1739" d="M194,325.713a1.593,1.593,0,0,1,1.778-.1,3.214,3.214,0,0,1,.589.465q1.593,1.576,3.17,3.168a1.783,1.783,0,0,1,.283,2.32Z" transform="translate(-15.668 -47.78)" fill="#4e4de6"/>
    <path id="Path_1740" data-name="Path 1740" d="M341.267,473.255a1.751,1.751,0,0,1,2.269.262q1.673,1.649,3.321,3.323a1.726,1.726,0,0,1,.233,2.237Z" transform="translate(-150.582 -182.965)" fill="#4e4de6"/>
    <path id="Path_1741" data-name="Path 1741" d="M352.457,349.613h-5.726a10.68,10.68,0,0,1,.111-1.465,1.855,1.855,0,0,1,1.389-1.422c.254-.078.416-.044.53.224.153.359.335.706.521,1.049s.393.335.572.007a9.772,9.772,0,0,0,.5-1.01c.133-.328.322-.352.624-.245a2.157,2.157,0,0,1,1.472,1.9C352.473,348.96,352.457,349.267,352.457,349.613Z" transform="translate(-155.587 -67.293)" fill="#4e4de6"/>
    <path id="Path_1742" data-name="Path 1742" d="M367.244,305.768a1.184,1.184,0,0,1-1.2-1.18,1.166,1.166,0,0,1,1.206-1.21,1.195,1.195,0,1,1,0,2.39Z" transform="translate(-173.279 -27.614)" fill="#4e4de6"/>
  </g>
</svg>
