<svg xmlns="http://www.w3.org/2000/svg" width="50" height="50" viewBox="0 0 50 50">
  <g id="Group_2" data-name="Group 2" transform="translate(-970 -276)">
    <rect id="Rectangle_1" data-name="Rectangle 1" width="50" height="50" rx="25" transform="translate(970 276)" fill="#504de4"/>
    <g id="Group_1" data-name="Group 1" transform="translate(869.822 105.786)">
      <path id="Path_1977" data-name="Path 1977" d="M133.682,201.286c1.964,1.989,3.883,3.934,5.8,5.875a1.868,1.868,0,0,1,.69,1.433,1.631,1.631,0,0,1-2.625,1.271,5.945,5.945,0,0,1-.513-.463c-1.789-1.775-3.581-3.546-5.355-5.336a.506.506,0,0,0-.791-.08,13.082,13.082,0,1,1,5.5-10.68,12.458,12.458,0,0,1-2.387,7.521C133.9,200.984,133.784,201.142,133.682,201.286Zm-10.407-17.762a9.807,9.807,0,1,0,9.836,9.806A9.829,9.829,0,0,0,123.275,183.523Z" transform="translate(0)" fill="#fff"/>
      <path id="Path_1978" data-name="Path 1978" d="M187.747,300.97,189.1,304.3h.094l.285-2.239a.912.912,0,0,1-.355-1.083.448.448,0,0,1,.3-.161,1.607,1.607,0,0,1,.53,0c.241.045.648.092.676.212.074.313.268.749-.253.946a.251.251,0,0,0-.092.21,12.882,12.882,0,0,0,.375,2.09l1.319-3.247a3.185,3.185,0,0,1,2.56,2.43q.19,1.151.339,2.308a.909.909,0,0,1-.931,1.139c-.494.039-.991.056-1.487.055-2.2-.009-4.4-.012-6.6-.05-.931-.016-1.222-.427-1.064-1.337.1-.557.159-1.121.262-1.677A3.587,3.587,0,0,1,187.747,300.97Z" transform="translate(-66.63 -107.753)" fill="#fff"/>
      <path id="Path_1979" data-name="Path 1979" d="M209.8,238.917a3.15,3.15,0,1,1-3.107-3.164A3.113,3.113,0,0,1,209.8,238.917Z" transform="translate(-83.381 -49.632)" fill="#fff"/>
    </g>
  </g>
</svg>
