<svg xmlns="http://www.w3.org/2000/svg" width="50" height="50" viewBox="0 0 50 50">
  <g id="Group_2" data-name="Group 2" transform="translate(-908 -146)">
    <rect id="Rectangle_1" data-name="Rectangle 1" width="50" height="50" rx="25" transform="translate(908 146)" fill="#504de4"/>
    <g id="Group_1" data-name="Group 1" transform="translate(1308.671 -172.999)">
      <path id="Path_1967" data-name="Path 1967" d="M-381.136,343a23.172,23.172,0,0,1-1.941-1.435A3.412,3.412,0,0,1-384.15,339c-.029-2.858-.017-5.716-.024-8.574,0-.376.108-.681.532-.675.452.007.551.343.551.732q0,3.033,0,6.066a1.187,1.187,0,0,0,.045.571.866.866,0,0,0,.533.42.812.812,0,0,0,.565-.366,1.2,1.2,0,0,0,.082-.621c.005-1.925,0-3.85,0-5.775a4.5,4.5,0,0,1,.013-.524c.042-.36.253-.625.607-.528a.847.847,0,0,1,.54.529,13.318,13.318,0,0,1,.036,1.746c0,1.575.006,3.15,0,4.725,0,.467.117.847.647.831.508-.015.585-.422.585-.84q0-3,0-6.008c0-.175-.05-.392.033-.514.134-.2.371-.471.543-.456.213.019.441.271.591.476.085.116.03.339.03.514q0,2.858,0,5.716c0,.156-.008.312.006.466.035.367.2.657.6.652a.6.6,0,0,0,.624-.681q0-.992,0-1.983,0-2.1,0-4.2c0-.155-.049-.353.026-.457.141-.195.356-.462.54-.462s.431.285.488.491a3.814,3.814,0,0,1,.027.985c0,2.392-.014,4.783,0,7.175a4.216,4.216,0,0,1-2.76,4.279.669.669,0,0,0-.257.535c.07,1.709.167,3.417.262,5.125.175,3.144.361,6.288.527,9.432a1.761,1.761,0,0,1-2.136,1.869,4.2,4.2,0,0,1-1.124-.429,1,1,0,0,1-.561-1.049c.229-3.92.438-7.841.652-11.762C-381.255,345.233-381.192,344.032-381.136,343Z" transform="translate(0 0)" fill="#fff"/>
      <path id="Path_1968" data-name="Path 1968" d="M-293.129,347.918h-4.455c0-1.088-.029-2.134.006-3.178a47.382,47.382,0,0,1,.883-8.452,11.13,11.13,0,0,1,2.079-5,3.055,3.055,0,0,1,2.175-1.174.96.96,0,0,1,1.163,1.029c.007.136,0,.272,0,.408q0,13.531,0,27.063a3.234,3.234,0,0,1-.047.695.844.844,0,0,1-.948.746.857.857,0,0,1-.843-.866c-.019-.193-.011-.388-.011-.583q0-4.987,0-9.974Z" transform="translate(-76.41 -0.356)" fill="#fff"/>
    </g>
  </g>
</svg>
