<svg xmlns="http://www.w3.org/2000/svg" xmlns:xlink="http://www.w3.org/1999/xlink" width="46" height="46" viewBox="0 0 46 46">
  <defs>
    <linearGradient id="linear-gradient" x1="0.5" x2="0.5" y2="1" gradientUnits="objectBoundingBox">
      <stop offset="0" stop-color="#90dc80"/>
      <stop offset="1" stop-color="#23c900"/>
    </linearGradient>
    <filter id="Ellipse_2" x="0" y="0" width="46" height="46" filterUnits="userSpaceOnUse">
      <feOffset dy="3" input="SourceAlpha"/>
      <feGaussianBlur stdDeviation="3" result="blur"/>
      <feFlood flood-opacity="0.161"/>
      <feComposite operator="in" in2="blur"/>
      <feComposite in="SourceGraphic"/>
    </filter>
  </defs>
  <g id="Group_1" data-name="Group 1" transform="translate(-27 -636)">
    <g transform="matrix(1, 0, 0, 1, 27, 636)" filter="url(#Ellipse_2)">
      <circle id="Ellipse_2-2" data-name="Ellipse 2" cx="14" cy="14" r="14" transform="translate(9 6)" fill="url(#linear-gradient)"/>
    </g>
    <path id="Icon_material-location-on" data-name="Icon material-location-on" d="M12.874,3A5.37,5.37,0,0,0,7.5,8.374c0,4.031,5.374,9.981,5.374,9.981s5.374-5.95,5.374-9.981A5.37,5.37,0,0,0,12.874,3Zm0,7.294a1.919,1.919,0,1,1,1.919-1.919A1.92,1.92,0,0,1,12.874,10.294Z" transform="translate(37.5 645)" fill="#fff"/>
  </g>
</svg>
