<svg xmlns="http://www.w3.org/2000/svg" width="15" height="15" viewBox="0 0 15 15">
  <path id="Icon_material-my-location" data-name="Icon material-my-location" d="M9,6.273A2.727,2.727,0,1,0,11.727,9,2.727,2.727,0,0,0,9,6.273Zm6.1,2.045A6.132,6.132,0,0,0,9.682,2.9V1.5H8.318V2.9A6.132,6.132,0,0,0,2.9,8.318H1.5V9.682H2.9A6.132,6.132,0,0,0,8.318,15.1v1.4H9.682V15.1A6.132,6.132,0,0,0,15.1,9.682h1.4V8.318ZM9,13.773A4.773,4.773,0,1,1,13.773,9,4.769,4.769,0,0,1,9,13.773Z" transform="translate(-1.5 -1.5)"/>
</svg>
