<svg xmlns="http://www.w3.org/2000/svg" width="50" height="50" viewBox="0 0 50 50">
  <g id="Group_2" data-name="Group 2" transform="translate(-970 -276)">
    <rect id="Rectangle_1" data-name="Rectangle 1" width="50" height="50" rx="25" transform="translate(970 276)" fill="#504de4"/>
    <g id="Group_1" data-name="Group 1" transform="translate(237.558 -73.527)">
      <path id="Path_1980" data-name="Path 1980" d="M755.095,544.565c1.587-2.07,3.114-4.045,4.616-6.037.224-.3.4-.4.767-.25a22.128,22.128,0,0,1,5.689,3.2,4.491,4.491,0,0,1,1.523,3.2c.266,1.908-.935,2.556-2.328,3.165a21.5,21.5,0,0,1-6.458,1.634,37.894,37.894,0,0,1-5.422.217,24.44,24.44,0,0,1-8.519-1.756,12.5,12.5,0,0,1-2.019-1.107,1.24,1.24,0,0,1-.445-.8,13.787,13.787,0,0,1-.057-1.7,3.4,3.4,0,0,1,1.335-2.749,21.62,21.62,0,0,1,5.808-3.309c.371-.151.546-.051.772.246,1.409,1.849,2.842,3.681,4.27,5.517C754.741,544.188,754.875,544.32,755.095,544.565Z" transform="translate(0 -160.196)" fill="#fff"/>
      <path id="Path_1981" data-name="Path 1981" d="M797.815,376.693c.246-.359.5-.7.729-1.066a8.537,8.537,0,0,0,.918-7.584c-.265-.782-.407-.819-1.12-.417a16.264,16.264,0,0,1-4.39,1.4c-.785.184-1.579.335-2.362.528a1.013,1.013,0,0,0-.907,1.144,8.843,8.843,0,0,0,1.96,5.761c.063.077.115.163.273.389-.575-.148-1.007-.238-1.425-.37a7.864,7.864,0,0,1-4.172-2.926,1.134,1.134,0,0,1-.067-1.459,15.2,15.2,0,0,0,2.082-4.713,6.833,6.833,0,0,1,1.672-3.125c.39-.406.081-.854.057-1.272-.045-.788-.209-1.568-.265-2.355a.967.967,0,0,1,1.091-1.095q3.385-.012,6.77,0a1.035,1.035,0,0,1,1.115,1.244c-.106.872-.24,1.741-.337,2.614a.643.643,0,0,0,.129.5,6.926,6.926,0,0,1,2.31,4.621,8.64,8.64,0,0,0,1.45,3.669.983.983,0,0,1-.034,1.269,8.132,8.132,0,0,1-5.347,3.3C797.919,376.755,797.885,376.725,797.815,376.693Zm-3.124-14.9h-1.3v1.152h1.315v1.241h1.177v-1.26c.448-.019.926.091,1.187-.093.209-.147.154-.652.23-1.077h-1.466v-1.282h-1.145Z" transform="translate(-39.859)" fill="#fff"/>
      <path id="Path_1982" data-name="Path 1982" d="M958.657,369.493c-.609.043-1.15.109-1.691.112a1.233,1.233,0,0,1-1.388-1.072c-.253-1.037-.48-2.079-.7-3.124a1.269,1.269,0,0,1,.841-1.451,3.244,3.244,0,0,1,4.547,1.372,13.132,13.132,0,0,1,1.946,5.464,15.287,15.287,0,0,1-.814,7.727,7.374,7.374,0,0,1-1.635,2.685,3.094,3.094,0,0,1-4.013.169,1.341,1.341,0,0,1-.448-1.069c.086-1.042.289-2.075.474-3.107a1.377,1.377,0,0,1,1.575-1.261c.387,0,.773.075,1.159.068.121,0,.333-.149.345-.247A21.145,21.145,0,0,0,958.657,369.493Z" transform="translate(-189.94 -3.58)" fill="#fff"/>
      <path id="Path_1983" data-name="Path 1983" d="M833.094,547.65a12.665,12.665,0,0,0,6,0l-3.044,4.059Z" transform="translate(-81.062 -168.657)" fill="#fff"/>
    </g>
  </g>
</svg>
