<svg xmlns="http://www.w3.org/2000/svg" xmlns:xlink="http://www.w3.org/1999/xlink" width="70" height="70" viewBox="0 0 70 70">
  <defs>
    <clipPath id="clip-path">
      <path id="Path_53" data-name="Path 53" d="M221.734,139.037a35,35,0,1,1-35-35A35,35,0,0,1,221.734,139.037Z" transform="translate(465.266 223.963)" fill="#646eb2"/>
    </clipPath>
  </defs>
  <g id="Mask_Group_1" data-name="Mask Group 1" transform="translate(-617 -328)" clip-path="url(#clip-path)">
    <path id="Path_1" data-name="Path 1" d="M221.734,139.037a35,35,0,1,1-35-35A35,35,0,0,1,221.734,139.037Z" transform="translate(465.266 223.963)" fill="#646eb2"/>
    <g id="Group_22" data-name="Group 22" transform="translate(610.211 334.336)">
      <g id="Group_3" data-name="Group 3" transform="translate(0 22.636)">
        <g id="Group_1" data-name="Group 1" transform="translate(10.991)">
          <path id="Path_2" data-name="Path 2" d="M202.693,170.482v-5.211H214.06v5.211h2.949v-5.559a2.6,2.6,0,0,0-2.6-2.6H202.344a2.6,2.6,0,0,0-2.6,2.6v5.559Z" transform="translate(-199.743 -162.322)" fill="#de2e34"/>
        </g>
        <path id="Rectangle_1" data-name="Rectangle 1" d="M4.411,0H34.836a4.411,4.411,0,0,1,4.411,4.411V25.318a4.413,4.413,0,0,1-4.413,4.413H4.412A4.412,4.412,0,0,1,0,25.318V4.411A4.411,4.411,0,0,1,4.411,0Z" transform="translate(0 7.334)" fill="#00a4b7"/>
        <path id="Path_3" data-name="Path 3" d="M198.775,191.826a10.4,10.4,0,0,0,2.105,5.01A14.25,14.25,0,0,0,206.427,201a27,27,0,0,0,19.674-.674v-13.3a1.226,1.226,0,0,0-1.227-1.226H199.263A13.607,13.607,0,0,0,198.775,191.826Z" transform="translate(-188.028 -177.633)" fill="#fff" style="mix-blend-mode: soft-light;isolation: isolate"/>
        <path id="Path_4" data-name="Path 4" d="M205.2,203.287a33.593,33.593,0,0,1-7.1,1.574,37.558,37.558,0,0,1-7.857.183c-5.607-.538-11.378-2.717-14.941-7.275a15.587,15.587,0,0,1-2.641-12.864c.106-.5.234-1,.384-1.488h-3.375a1.534,1.534,0,0,0-1.534,1.534v26.663a1.534,1.534,0,0,0,1.534,1.534h36.18a1.534,1.534,0,0,0,1.534-1.534v-9.2Q206.312,202.9,205.2,203.287Z" transform="translate(-168.132 -176.083)" fill="#8c8b8b" style="mix-blend-mode: multiply;isolation: isolate"/>
        <path id="Path_5" data-name="Path 5" d="M215.534,206.812a10.319,10.319,0,1,1-10.319-10.32A10.319,10.319,0,0,1,215.534,206.812Z" transform="translate(-185.591 -184.612)" fill="#8c8b8b" style="mix-blend-mode: multiply;isolation: isolate"/>
        <g id="Group_2" data-name="Group 2" transform="translate(10.605 13.18)">
          <path id="Path_6" data-name="Path 6" d="M216.672,209.251a9.019,9.019,0,1,1-9.019-9.02A9.019,9.019,0,0,1,216.672,209.251Z" transform="translate(-198.634 -200.231)" fill="#1b3f4b"/>
          <path id="Path_7" data-name="Path 7" d="M220.085,210.8H216.4v-4.372h-2.869V210.8h-3.689v2.869h3.689v6.49H216.4v-6.49h3.689Z" transform="translate(-205.942 -204.271)" fill="#fff"/>
          <path id="Path_8" data-name="Path 8" d="M218.575,204.4a6.228,6.228,0,0,0-1.752,4.3,5.283,5.283,0,0,0,5.328,4.983,4.926,4.926,0,0,0,4.842-3.883c.027-.111.051-.224.073-.337a7.508,7.508,0,0,0-8.492-5.064Z" transform="translate(-210.498 -202.87)" fill="#fff" style="mix-blend-mode: soft-light;isolation: isolate"/>
          <path id="Path_9" data-name="Path 9" d="M209.389,213.839c-3.593-.464-6.763-3.537-6.586-7.293a8.924,8.924,0,0,1,1.435-4.386,9.019,9.019,0,1,0,12.434,8.349c0-.162,0-.324-.013-.484A7.039,7.039,0,0,1,209.389,213.839Z" transform="translate(-198.634 -201.489)" fill="#bababa" style="mix-blend-mode: multiply;isolation: isolate"/>
        </g>
        <path id="Path_10" data-name="Path 10" d="M244.2,188.973c.372-.068.744-.12,1.116-.167s.744-.088,1.116-.118c.744-.075,1.487-.118,2.231-.151s1.487-.051,2.231-.053,1.487,0,2.231.03h.044l.009,0a2.435,2.435,0,0,1,.381.1,3.119,3.119,0,0,1,.339.136,3.625,3.625,0,0,1,.319.175,2.324,2.324,0,0,1,.3.213,2.253,2.253,0,0,1,.267.248,1.885,1.885,0,0,1,.23.281,2.141,2.141,0,0,1,.191.305c.052.107.107.213.147.323l.1.336a3.173,3.173,0,0,1,.06.339,1.5,1.5,0,0,1,.026.337l0,.333a3.014,3.014,0,0,1-.039.326l-.054.321c-.056.209-.119.415-.184.616-.01-.215-.018-.426-.019-.633l-.037-.309c-.015-.1-.014-.2-.037-.3l-.066-.294a1.675,1.675,0,0,0-.085-.282,2.641,2.641,0,0,0-.1-.271l-.13-.251c-.046-.081-.108-.151-.157-.227a1.489,1.489,0,0,0-.176-.207,1.545,1.545,0,0,0-.2-.182,1.6,1.6,0,0,0-.215-.156,2.284,2.284,0,0,0-.232-.131c-.079-.041-.163-.073-.245-.106s-.169-.056-.254-.077a1.678,1.678,0,0,0-.233-.045l.054,0q-1.116.038-2.231.03c-.744,0-1.487-.022-2.231-.053s-1.487-.076-2.231-.151c-.372-.03-.744-.075-1.116-.118S244.57,189.041,244.2,188.973Z" transform="translate(-217.751 -179.387)" fill="#fff" style="mix-blend-mode: soft-light;isolation: isolate"/>
      </g>
      <g id="Group_21" data-name="Group 21" transform="translate(19.624 0)">
        <g id="Group_10" data-name="Group 10">
          <g id="Group_4" data-name="Group 4" transform="translate(23.53 39.42)">
            <rect id="Rectangle_2" data-name="Rectangle 2" width="11.259" height="8.466" fill="#ecb094"/>
            <path id="Path_11" data-name="Path 11" d="M295.4,217.088a8.5,8.5,0,0,0,4.966-1.992,10.925,10.925,0,0,0,2.725-3.347c.134-.255.283-.543.419-.852v-.3H292.25v6.335A18.029,18.029,0,0,0,295.4,217.088Z" transform="translate(-292.25 -210.597)" fill="#d2d1d1" style="mix-blend-mode: multiply;isolation: isolate"/>
          </g>
          <path id="Path_12" data-name="Path 12" d="M281.21,107.727c-7.646.162-14.9,6.2-13.754,16.469.691,6.2,1.231,7.124,3.079,14.247,1.278,4.928,8.082,7.528,10.674,7.7,2.593-.169,9.4-2.769,10.675-7.7,1.848-7.123,2.388-8.043,3.08-14.247C296.11,113.929,288.858,107.889,281.21,107.727Z" transform="translate(-252.469 -104.072)" fill="#ecb094"/>
          <g id="Group_5" data-name="Group 5" transform="translate(12.936 22.303)">
            <path id="Path_13" data-name="Path 13" d="M342.7,161.951l-.8,6.146c3.154,1.39,3.647-5.844,3.647-5.844C344.819,160.45,342.7,161.951,342.7,161.951Z" transform="translate(-314.045 -161.365)" fill="#ecb094"/>
            <path id="Path_14" data-name="Path 14" d="M261.781,162.253s.493,7.234,3.647,5.844l-.8-6.146S262.51,160.45,261.781,162.253Z" transform="translate(-261.781 -161.365)" fill="#ecb094"/>
          </g>
          <path id="Path_15" data-name="Path 15" d="M339.678,141.1" transform="translate(-299.659 -125.84)" fill="#341e13"/>
          <path id="Path_16" data-name="Path 16" d="M259.363,227.883l14.943,4.188s5.1.841,6.4,5.775l2.23,8.944H224.574l2.23-8.944c1.3-4.933,6.4-5.775,6.4-5.775l14.9-4.188Z" transform="translate(-224.574 -182.453)" fill="#ecb094"/>
          <path id="Path_17" data-name="Path 17" d="M259.363,227.883l14.943,4.188s5.1.841,6.4,5.775l2.23,8.944H224.574l2.23-8.944c1.3-4.933,6.4-5.775,6.4-5.775l14.9-4.188,5.652,11.706Z" transform="translate(-224.574 -182.453)" fill="#11a7b0"/>
          <path id="Path_18" data-name="Path 18" d="M245.891,247.718H224.574l2.23-8.944c1.3-4.933,6.4-5.774,6.4-5.774l13.158-3.693Z" transform="translate(-224.574 -183.382)" fill="#fff"/>
          <path id="Path_19" data-name="Path 19" d="M331.493,229.97l12.356,3.463s5.1.841,6.4,5.775l2.23,8.944h-21.3Z" transform="translate(-294.117 -183.814)" fill="#fff"/>
          <g id="Group_6" data-name="Group 6" transform="translate(17.623 45.43)">
            <path id="Path_20" data-name="Path 20" d="M275.262,246.134s4.923-3.587,9.584-1.151c0,0-2.8-6.947-9.584,1.151" transform="translate(-275.262 -237.228)" fill="#a3a3a3" style="mix-blend-mode: multiply;isolation: isolate"/>
            <path id="Path_21" data-name="Path 21" d="M285.254,236.343s-2.288-5.765-9.992.445l2.752-8.018,3.2-.887Z" transform="translate(-275.262 -227.883)" fill="#12949c"/>
          </g>
          <g id="Group_7" data-name="Group 7" transform="translate(30.964 45.43)">
            <path id="Path_22" data-name="Path 22" d="M323.415,246.264s-5.957-4.141-9.782-.921c0,0,2.995-7.177,9.782.921" transform="translate(-313.633 -237.358)" fill="#a3a3a3" style="mix-blend-mode: multiply;isolation: isolate"/>
            <path id="Path_23" data-name="Path 23" d="M313.633,235.867s2.077-5.289,9.782.921l-2.743-8-3.211-.9Z" transform="translate(-313.633 -227.883)" fill="#12949c"/>
          </g>
          <path id="Path_24" data-name="Path 24" d="M283.4,121.137s-1.623,6.1,9.655,9.317c0,0,8.693,1.712,12.265-.549C305.318,129.9,301.989,116.022,283.4,121.137Z" transform="translate(-262.893 -112.082)" fill="#bababa" style="mix-blend-mode: multiply;isolation: isolate"/>
          <path id="Path_25" data-name="Path 25" d="M296.456,107.407c-.151,3.177.017,6.942-1.608,12.464-.182.615-.873,2.411-.873,2.411l-.578.018v-4c-.355-5.692-.726-5.733-.726-5.733-11.278,3.116-18.231-2.619-18.231-2.619a8.237,8.237,0,0,1-1.555-1.858,9.932,9.932,0,0,0-2.611,3.237,14.753,14.753,0,0,0-1.545,7.747v4l-.607-.241-.843-3.154a65.689,65.689,0,0,1-.451-14s1.133-6.779,9.354-8.29c0,0,14.553-1.351,18.451,3.481A10.691,10.691,0,0,1,296.456,107.407Z" transform="translate(-252.016 -97.216)" fill="#391209"/>
          <g id="Group_8" data-name="Group 8" transform="translate(19.513 5.235)">
            <path id="Path_26" data-name="Path 26" d="M281.081,112.273A7.8,7.8,0,0,0,281,113.43a9.759,9.759,0,0,0,.418,2.963,8.084,8.084,0,0,0,.827,1.773,7.078,7.078,0,0,0,1.42,1.623,8.736,8.736,0,0,0,.914.686l.509.291.256.147.27.127.543.255.569.21a11.994,11.994,0,0,0,1.168.361c.391.119.8.185,1.2.28s.811.129,1.212.2c.809.089,1.609.191,2.392.211.78.05,1.539.041,2.259.053l2.034-.046c.63-.04,1.208-.07,1.723-.094s.961-.072,1.331-.095c.739-.053,1.164-.075,1.164-.075s-.411.1-1.136.266c-.364.075-.8.193-1.314.273s-1.087.188-1.719.282c-.635.07-1.322.164-2.054.215s-1.507.1-2.313.078c-.4,0-.812,0-1.226-.034s-.836-.038-1.257-.1-.849-.1-1.273-.187-.853-.158-1.273-.281a12.993,12.993,0,0,1-1.247-.4l-.611-.236-.589-.286a9.353,9.353,0,0,1-1.117-.653,9.646,9.646,0,0,1-.985-.8,7.067,7.067,0,0,1-1.472-1.892,7.581,7.581,0,0,1-.74-2,8.643,8.643,0,0,1-.072-3.12,7.119,7.119,0,0,1,.184-.848C281.044,112.373,281.081,112.273,281.081,112.273Z" transform="translate(-280.698 -112.273)" fill="#280c00"/>
          </g>
          <path id="Path_27" data-name="Path 27" d="M285.726,114.614a11.948,11.948,0,0,0,8.9,7.594s-3.493-1.723-4.45-4.658a6.844,6.844,0,0,0,4.45,2.046s-4.617-3.584-4.738-5.65a3.069,3.069,0,0,0-.451,4.131S288.064,117.833,285.726,114.614Z" transform="translate(-264.465 -108.129)" fill="#fff" opacity="0.5" style="mix-blend-mode: soft-light;isolation: isolate"/>
          <path id="Path_28" data-name="Path 28" d="M319.976,104.579s8.989-.162,9.447,8.687a4.394,4.394,0,0,0-2.6-2.882,13.027,13.027,0,0,1,2.406,9.458s1.148-4.222-6.57-10.473a7.473,7.473,0,0,1,4.937.325S325.984,105.716,319.976,104.579Z" transform="translate(-286.806 -102.019)" fill="#fff" opacity="0.5" style="mix-blend-mode: soft-light;isolation: isolate"/>
          <g id="Group_9" data-name="Group 9" transform="translate(14.987 19.033)">
            <path id="Path_29" data-name="Path 29" d="M279.758,151.963c-2.7-.023-5.407-.139-5.218,3.985a4.876,4.876,0,0,0,4.515,4.769,5.6,5.6,0,0,0,5.688-3.966C285.243,154.606,286.429,152.017,279.758,151.963Zm4.3,4.731a4.831,4.831,0,0,1-4.911,3.424,4.21,4.21,0,0,1-3.9-4.117c-.162-3.56,2.178-3.46,4.506-3.44C285.513,152.608,284.49,154.844,284.058,156.694Z" transform="translate(-272.149 -151.957)" fill="#161615"/>
            <path id="Path_30" data-name="Path 30" d="M311.618,157.27a5.6,5.6,0,0,0,5.764,3.855,4.876,4.876,0,0,0,4.422-4.855c.109-4.127-2.6-3.958-5.294-3.884C309.842,152.57,311.077,155.137,311.618,157.27Zm4.906-4.286c2.327-.064,4.665-.209,4.571,3.354a4.208,4.208,0,0,1-3.816,4.19A4.83,4.83,0,0,1,312.3,157.2C311.835,155.358,310.768,153.143,316.524,152.984Z" transform="translate(-296.045 -152.221)" fill="#161615"/>
            <path id="Path_31" data-name="Path 31" d="M304.168,156.585a2.572,2.572,0,0,1,2.789.034,1.627,1.627,0,0,1,.277-1.546,4.6,4.6,0,0,0-3.359-.041A3.774,3.774,0,0,1,304.168,156.585Z" transform="translate(-291.292 -153.773)" fill="#161615"/>
            <path id="Path_32" data-name="Path 32" d="M271.49,153.4l-3.809.591.275,2.339,2.505,1.325A5.767,5.767,0,0,1,271.49,153.4Z" transform="translate(-267.681 -152.896)" fill="#161615"/>
            <path id="Path_33" data-name="Path 33" d="M338.579,154.324l3.657,1.084-.572,2.056L339.5,158.6A5.76,5.76,0,0,0,338.579,154.324Z" transform="translate(-313.929 -153.501)" fill="#161615"/>
            <path id="Path_34" data-name="Path 34" d="M317.924,154.112c2.327-.064,4.665-.209,4.571,3.354a4.208,4.208,0,0,1-3.816,4.19,4.83,4.83,0,0,1-4.976-3.328C313.235,156.486,312.168,154.27,317.924,154.112Z" transform="translate(-297.445 -153.349)" fill="#fff" opacity="0.2"/>
            <path id="Path_35" data-name="Path 35" d="M285.393,157.754a4.83,4.83,0,0,1-4.911,3.423,4.209,4.209,0,0,1-3.9-4.117c-.163-3.56,2.177-3.46,4.505-3.44C286.849,153.667,285.825,155.9,285.393,157.754Z" transform="translate(-273.484 -153.039)" fill="#fff" opacity="0.2"/>
          </g>
        </g>
        <g id="Group_20" data-name="Group 20" transform="translate(11.401 42.368)">
          <g id="Group_11" data-name="Group 11" transform="translate(2.317)">
            <path id="Path_36" data-name="Path 36" d="M273.854,219.155h-.942a6.4,6.4,0,0,0-4.352,1.915c-2.7,2.559-4.935,9.745-4.469,17.383H265.7c-.534-8.272,2.315-14.618,3.92-16.169a4.812,4.812,0,0,1,3.233-1.519h1Z" transform="translate(-264.03 -219.127)" fill="#171a26"/>
            <path id="Path_37" data-name="Path 37" d="M330.409,220.606c-1.069-1.155-2.9-1.659-5.436-1.5h-.464v1.611h.541c2-.128,3.436.208,4.16.968a1.931,1.931,0,0,1,.531,1.453l1.6.215A3.568,3.568,0,0,0,330.409,220.606Z" transform="translate(-303.482 -219.076)" fill="#171a26"/>
          </g>
          <g id="Group_13" data-name="Group 13" transform="translate(31.487 12.381)">
            <g id="Group_12" data-name="Group 12">
              <path id="Path_38" data-name="Path 38" d="M351.686,254.686a.368.368,0,0,1,.368.352,35.153,35.153,0,0,1-.275,5.47,5.235,5.235,0,0,1-.532,1.77,3.171,3.171,0,0,1-2.953,1.84.369.369,0,0,1,0-.738c2.465,0,2.739-2.823,2.75-2.943v-.015a35.028,35.028,0,0,0,.271-5.351.37.37,0,0,1,.352-.386Z" transform="translate(-347.927 -254.686)" fill="#bababa"/>
            </g>
            <path id="Path_39" data-name="Path 39" d="M348.3,264.119a3.171,3.171,0,0,0,2.953-1.84,5.235,5.235,0,0,0,.532-1.77,35.153,35.153,0,0,0,.275-5.47.368.368,0,0,0-.368-.352h-.017a.37.37,0,0,0-.352.386s0,.1.008.265l.024,0h.015a.325.325,0,0,1,.325.311,30.979,30.979,0,0,1-.242,4.828,4.638,4.638,0,0,1-.469,1.563,2.8,2.8,0,0,1-2.607,1.624.325.325,0,0,1-.3-.2.368.368,0,0,0,.223.661Z" transform="translate(-347.927 -254.686)" fill="#bababa" style="mix-blend-mode: multiply;isolation: isolate"/>
          </g>
          <g id="Group_15" data-name="Group 15" transform="translate(23.407 12.381)">
            <g id="Group_14" data-name="Group 14">
              <path id="Path_40" data-name="Path 40" d="M325.073,254.686a.369.369,0,0,0-.368.352,35.211,35.211,0,0,0,.275,5.47,5.25,5.25,0,0,0,.531,1.77,3.172,3.172,0,0,0,2.953,1.84.369.369,0,0,0,0-.738c-2.466,0-2.74-2.823-2.75-2.943,0,0,0-.01,0-.015a35.109,35.109,0,0,1-.271-5.351.369.369,0,0,0-.352-.386Z" transform="translate(-324.69 -254.686)" fill="#bababa"/>
            </g>
            <path id="Path_41" data-name="Path 41" d="M328.465,264.119a3.172,3.172,0,0,1-2.953-1.84,5.25,5.25,0,0,1-.531-1.77,35.211,35.211,0,0,1-.275-5.47.369.369,0,0,1,.368-.352h.017a.369.369,0,0,1,.352.386s0,.1-.007.265l-.025,0H325.4a.326.326,0,0,0-.325.311,31.056,31.056,0,0,0,.243,4.828,4.641,4.641,0,0,0,.469,1.563,2.8,2.8,0,0,0,2.607,1.624.325.325,0,0,0,.3-.2.368.368,0,0,1-.223.661Z" transform="translate(-324.69 -254.686)" fill="#bababa" style="mix-blend-mode: multiply;isolation: isolate"/>
          </g>
          <g id="Group_16" data-name="Group 16" transform="translate(23.055 3.697)">
            <path id="Path_42" data-name="Path 42" d="M329.881,229.709h.1a5.519,5.519,0,0,1,3.8,1.393c2.983,2.673,2.82,8.3,2.812,8.54a.707.707,0,0,1-.761.628.692.692,0,0,1-.716-.668c0-.071.146-5.323-2.392-7.594a3.951,3.951,0,0,0-2.8-1,.405.405,0,0,1-.051,0,3.633,3.633,0,0,0-2.274.921c-1.122.945-2.459,3.047-2.459,7.7a.744.744,0,0,1-1.476,0c0-4.14,1-7.06,2.965-8.677A5.278,5.278,0,0,1,329.881,229.709Z" transform="translate(-323.676 -229.709)" fill="#171a26"/>
          </g>
          <path id="Path_43" data-name="Path 43" d="M324.414,240.271a.7.7,0,0,0,.736-.616.606.606,0,0,1-.641-.564c0-3.607.869-6.15,2.582-7.56a4.6,4.6,0,0,1,2.823-1.077H330a4.811,4.811,0,0,1,3.315,1.214c2.6,2.328,2.456,7.233,2.449,7.44a.612.612,0,0,1-.643.547.7.7,0,0,0,.714.617.707.707,0,0,0,.761-.628c.008-.238.171-5.867-2.812-8.54a5.519,5.519,0,0,0-3.8-1.393h-.1a5.278,5.278,0,0,0-3.239,1.237c-1.968,1.618-2.965,4.537-2.965,8.677A.7.7,0,0,0,324.414,240.271Z" transform="translate(-300.621 -226.012)" fill="#a3a3a3" style="mix-blend-mode: multiply;isolation: isolate"/>
          <g id="Group_17" data-name="Group 17" transform="translate(30.403 20.768)">
            <path id="Path_44" data-name="Path 44" d="M344.81,279.446a.635.635,0,0,1,.635-.636l1.19.1c.369.092.357.286.369.533h0c0,.267,0,.461-.4.553l-1.158.082a.635.635,0,0,1-.635-.636Z" transform="translate(-344.81 -278.81)" fill="#171a26"/>
            <path id="Path_45" data-name="Path 45" d="M346.209,280.639a.667.667,0,0,0-.614.3.633.633,0,0,0,.444.182l.7-.05C346.77,280.727,346.564,280.637,346.209,280.639Z" transform="translate(-345.322 -280.003)" fill="#fff" style="mix-blend-mode: soft-light;isolation: isolate"/>
            <path id="Path_46" data-name="Path 46" d="M345.974,279.1a.794.794,0,0,1,.724.876c.327-.1.327-.285.327-.534s0-.441-.369-.533l-1.19-.1a.636.636,0,0,0-.624.515A1.467,1.467,0,0,1,345.974,279.1Z" transform="translate(-344.831 -278.81)" fill="#757474" style="mix-blend-mode: multiply;isolation: isolate"/>
          </g>
          <g id="Group_18" data-name="Group 18" transform="translate(26.794 20.768)">
            <path id="Path_47" data-name="Path 47" d="M336.625,279.446a.636.636,0,0,0-.636-.636l-1.189.1c-.37.092-.359.286-.37.533h0c0,.267,0,.461.4.553l1.158.082a.636.636,0,0,0,.636-.636Z" transform="translate(-334.43 -278.81)" fill="#171a26"/>
            <path id="Path_48" data-name="Path 48" d="M337.182,280.639a.666.666,0,0,1,.613.3.632.632,0,0,1-.444.182l-.7-.05C336.62,280.727,336.826,280.637,337.182,280.639Z" transform="translate(-335.875 -280.003)" fill="#fff" style="mix-blend-mode: soft-light;isolation: isolate"/>
            <path id="Path_49" data-name="Path 49" d="M335.48,279.1a.793.793,0,0,0-.723.876c-.327-.1-.328-.285-.328-.534s0-.441.37-.533l1.189-.1a.635.635,0,0,1,.623.515A1.466,1.466,0,0,0,335.48,279.1Z" transform="translate(-334.43 -278.81)" fill="#757474" style="mix-blend-mode: multiply;isolation: isolate"/>
          </g>
          <g id="Group_19" data-name="Group 19" transform="translate(0 15.105)">
            <path id="Path_50" data-name="Path 50" d="M257.365,265.989a3.467,3.467,0,1,1,3.467,3.467A3.467,3.467,0,0,1,257.365,265.989Z" transform="translate(-257.365 -262.522)" fill="#171a26"/>
            <path id="Path_51" data-name="Path 51" d="M260.1,267.776a2.515,2.515,0,1,1,2.515,2.515A2.515,2.515,0,0,1,260.1,267.776Z" transform="translate(-259.15 -264.309)" fill="#a3a3a3"/>
            <path id="Path_52" data-name="Path 52" d="M261.254,268.527a2.114,2.114,0,1,1,2.115,2.115A2.115,2.115,0,0,1,261.254,268.527Z" transform="translate(-259.902 -265.06)" fill="#8c8b8b"/>
          </g>
        </g>
      </g>
    </g>
  </g>
</svg>
