<svg xmlns="http://www.w3.org/2000/svg" xmlns:xlink="http://www.w3.org/1999/xlink" width="67.665" height="60.777" viewBox="0 0 67.665 60.777">
  <defs>
    <filter id="Path_1808" x="39.203" y="4.284" width="27.076" height="31.526" filterUnits="userSpaceOnUse">
      <feOffset dx="3" input="SourceAlpha"/>
      <feGaussianBlur stdDeviation="3" result="blur"/>
      <feFlood flood-opacity="0.161"/>
      <feComposite operator="in" in2="blur"/>
      <feComposite in="SourceGraphic"/>
    </filter>
    <filter id="Path_1839" x="44.294" y="11.102" width="23.37" height="24.9" filterUnits="userSpaceOnUse">
      <feOffset dy="1" input="SourceAlpha"/>
      <feGaussianBlur stdDeviation="1.5" result="blur-2"/>
      <feFlood flood-opacity="0.161"/>
      <feComposite operator="in" in2="blur-2"/>
      <feComposite in="SourceGraphic"/>
    </filter>
  </defs>
  <g id="Group_4168" data-name="Group 4168" transform="translate(-900 -141.223)">
    <g id="Group_1" data-name="Group 1" transform="translate(1338.976 -174.695)">
      <g id="Group_4147" data-name="Group 4147" transform="translate(-438.976 315.918)">
        <g id="Group_4140" data-name="Group 4140" transform="translate(1.597 30.724)">
          <g id="Group_4138" data-name="Group 4138" transform="translate(7.386 21.267)">
            <path id="Path_1775" data-name="Path 1775" d="M-384.952,611.185l-1.157,6.051,2.758.445,1.157-6.318Z" transform="translate(386.435 -611.185)" fill="#ffa188"/>
            <path id="Path_1776" data-name="Path 1776" d="M-381.589,637.521c.512.334,1.128.778.979,1.4a.876.876,0,0,1-.332.489,2.021,2.021,0,0,1-1.238.31,11.73,11.73,0,0,1-5.277-1.188.936.936,0,0,1-.377-.275.9.9,0,0,1-.12-.48,5.728,5.728,0,0,1,.212-1.809.222.222,0,0,1,.281-.151l1.026.326c.421.134.962.235,1.238-.111.23-.289.164-.794.621-.869.356-.058.548.283.765.509A12.61,12.61,0,0,0-381.589,637.521Z" transform="translate(387.961 -630.939)" fill="#00365b"/>
          </g>
          <g id="Group_4139" data-name="Group 4139" transform="translate(0 21.267)">
            <path id="Path_1777" data-name="Path 1777" d="M-426.9,611.185l-1.157,6.051,2.759.445,1.157-6.318Z" transform="translate(428.379 -611.185)" fill="#ffa188"/>
            <path id="Path_1778" data-name="Path 1778" d="M-423.533,637.521c.512.334,1.128.778.979,1.4a.876.876,0,0,1-.332.489,2.021,2.021,0,0,1-1.238.31,11.731,11.731,0,0,1-5.277-1.188.937.937,0,0,1-.377-.275.9.9,0,0,1-.12-.48,5.73,5.73,0,0,1,.212-1.809.222.222,0,0,1,.281-.151l1.026.326c.421.134.962.235,1.238-.111.23-.289.164-.794.621-.869.356-.058.548.283.765.509A12.609,12.609,0,0,0-423.533,637.521Z" transform="translate(429.905 -630.939)" fill="#00365b"/>
          </g>
          <path id="Path_1779" data-name="Path 1779" d="M-415.324,515.054a15.833,15.833,0,0,1-4.182-.356c2.047-8.186,1.78-18.775,1.78-18.775l-1.157-.178c.089,2.492-3.381,18.6-3.381,18.6A10.353,10.353,0,0,1-425,513.8a12.62,12.62,0,0,1-1.531-.611c1.335-4.182,3.025-15.216,3.025-15.216a5.865,5.865,0,0,0-.356-2.225,5.015,5.015,0,0,1-.65-3.382,5.81,5.81,0,0,1,.65-1.957l4.87.339,4.072.283,1.291.09c.038.384.07.779.1,1.183q.036.565.057,1.152C-413.152,502.471-415.324,515.054-415.324,515.054Z" transform="translate(427.129 -490.406)" fill="#014870"/>
        </g>
        <path id="Path_1780" data-name="Path 1780" d="M-374.991,391.357s1.869.356,3.648,4.36c0,0,2.314,5.695,5.428,6.674a7.613,7.613,0,0,1-.8,2.492s-6.318-2.456-6.318-6.852C-373.033,397.853-374.991,391.357-374.991,391.357Z" transform="translate(386.258 -378.073)" fill="#6d6df5"/>
        <path id="Path_1781" data-name="Path 1781" d="M-408.179,407.137q-.013,1.149-.1,2.374s-5.962,1.424-11.123-.089l.667-6.629-1.735-10.456a7.735,7.735,0,0,1,1.408-.722l.185-.074a13.175,13.175,0,0,1,6.416-.717s3.688,4.852,4.223,13.729C-408.191,405.38-408.168,406.241-408.179,407.137Z" transform="translate(423.73 -377.541)" fill="#4e4de6"/>
        <g id="Group_4144" data-name="Group 4144" transform="translate(0 0)">
          <g id="Group_4141" data-name="Group 4141" transform="translate(7.159 10.401)">
            <path id="Path_1782" data-name="Path 1782" d="M-396.332,380.307l-.67.1a1.145,1.145,0,0,1-1.315-1.133v-3.892l2.04-.4c.122.386.266.974.41,1.616.178.793.356,1.669.49,2.35A1.146,1.146,0,0,1-396.332,380.307Z" transform="translate(398.317 -374.987)" fill="#ffb298"/>
            <path id="Path_1783" data-name="Path 1783" d="M-395.867,376.6a3.3,3.3,0,0,1-.676,1.023,4.455,4.455,0,0,1-1.773,1.05v-3.293l2.04-.4C-396.156,375.373-396.012,375.961-395.867,376.6Z" transform="translate(398.317 -374.987)" fill="#ffa188"/>
          </g>
          <path id="Path_1784" data-name="Path 1784" d="M-434.4,335.259a.938.938,0,0,1-.215.572.311.311,0,0,1-.036.031.625.625,0,0,1-.513.109,1.8,1.8,0,0,1-.571-.21,6.493,6.493,0,0,1-1.187-.8,3.891,3.891,0,0,1-.475-.493,2.625,2.625,0,0,1-.612-1.968,1.236,1.236,0,0,1-.478.223.425.425,0,0,1-.452-.2.621.621,0,0,1-.029-.292,6.934,6.934,0,0,1,.712-2.826,4.151,4.151,0,0,1,.738-.994,3.423,3.423,0,0,1,.731-.555,1.2,1.2,0,0,1,.387-.149c.389-.062.588.242.783.723l.085.214c.023.059.046.117.068.175.082.213.162.426.238.641.139.392.266.787.379,1.185.028.1.054.195.079.293q.084.314.153.63.1.463.171.933A10.261,10.261,0,0,1-434.4,335.259Z" transform="translate(438.976 -325.62)"/>
          <path id="Path_1785" data-name="Path 1785" d="M-425.036,365.373a.155.155,0,0,1-.032.084.166.166,0,0,1-.117.038l-.055,0a3.445,3.445,0,0,1-1.145-.139,1.405,1.405,0,0,1-.853-.666,1.244,1.244,0,0,1-.113-.65,1.292,1.292,0,0,1,.409-.879.79.79,0,0,1,.108-.077.614.614,0,0,1,.368-.093.733.733,0,0,1,.426.2,2.873,2.873,0,0,1,.637,1.017c.054.123.107.244.165.359a2.592,2.592,0,0,1,.158.374A.946.946,0,0,1-425.036,365.373Z" transform="translate(429.403 -354.703)" fill="#ffa188"/>
          <path id="Path_1786" data-name="Path 1786" d="M-416.251,335.048a2.592,2.592,0,0,1-1.116,1.4,3.778,3.778,0,0,1-2.411.423,5.209,5.209,0,0,1-2.264-.839,4.3,4.3,0,0,1-.52-.421q-.111-.105-.214-.217a3.918,3.918,0,0,1-.353-.443,4.253,4.253,0,0,1-.28-.465c-.019-.037-.038-.076-.056-.114a10.616,10.616,0,0,1-.537-1.482,10.2,10.2,0,0,1-.258-1.135,7.353,7.353,0,0,1-.1-1.271,4.647,4.647,0,0,1,.263-1.579,3.251,3.251,0,0,1,.673-1.112c.029-.033.061-.066.092-.1a4.879,4.879,0,0,1,3.243-1.217s3.218-.459,3.678,2.605c.054.361.117.733.18,1.111.054.322.106.65.152.979A8.294,8.294,0,0,1-416.251,335.048Z" transform="translate(426.938 -324.598)" fill="#ffb298"/>
          <g id="Group_4142" data-name="Group 4142" transform="translate(5.189 6.609)">
            <path id="Path_1787" data-name="Path 1787" d="M-385.275,357.977a.7.7,0,0,0-.093-.427.388.388,0,0,0-.3-.218.346.346,0,0,0-.345.219.769.769,0,0,0,.054.53.412.412,0,0,0,.213.235.344.344,0,0,0,.345-.049A.351.351,0,0,0-385.275,357.977Z" transform="translate(390.173 -356.648)"/>
            <path id="Path_1788" data-name="Path 1788" d="M-405.478,362.108a.7.7,0,0,0-.093-.427.39.39,0,0,0-.3-.218.346.346,0,0,0-.345.219.769.769,0,0,0,.054.53.412.412,0,0,0,.213.234.344.344,0,0,0,.344-.049A.351.351,0,0,0-405.478,362.108Z" transform="translate(406.818 -360.051)"/>
            <path id="Path_1789" data-name="Path 1789" d="M-394.366,359.526c-.244-.116-.442.049-.588-.261a2.193,2.193,0,0,0-.348-.67c-.034-.034-.109-.014-.094.043a4.912,4.912,0,0,0,.187.473c.047.127.073.384.179.488a.712.712,0,0,0,.349.109,1.423,1.423,0,0,0,.145.019q.089-.134.011,0a1.273,1.273,0,0,1-.252.338c-.1.1.038.279.145.176C-394.5,360.123-394.069,359.668-394.366,359.526Z" transform="translate(397.883 -357.676)" fill="#ffa188"/>
            <path id="Path_1790" data-name="Path 1790" d="M-387.769,353.481a1.167,1.167,0,0,0-.943.192c-.1.079-.023.276.11.239s.265-.085.4-.121.276-.052.411-.087C-387.692,353.679-387.647,353.513-387.769,353.481Z" transform="translate(392.413 -353.45)"/>
            <path id="Path_1791" data-name="Path 1791" d="M-408.549,358.414a1.167,1.167,0,0,0-.92.282c-.1.089,0,.276.132.228s.256-.11.387-.159.27-.078.4-.126C-408.453,358.6-408.424,358.434-408.549,358.414Z" transform="translate(409.508 -357.531)"/>
            <path id="Path_1792" data-name="Path 1792" d="M-396.16,370.9a5.053,5.053,0,0,1,1.946-.705s.091.9-.555,1.108A1.33,1.33,0,0,1-396.16,370.9Z" transform="translate(398.51 -367.247)" fill="#fff"/>
          </g>
          <path id="Path_1793" data-name="Path 1793" d="M-422.864,339.208a3.289,3.289,0,0,0,.555-1.19,3.877,3.877,0,0,0,1.969.379.98.98,0,0,0,.466-.124.4.4,0,0,0,.193-.414,1.565,1.565,0,0,0,1.349.056,1.565,1.565,0,0,0,.875-1.029,11.425,11.425,0,0,0-4.037-1.386,3.051,3.051,0,0,0-1.378.042,2.7,2.7,0,0,0-1.517,1.648,3.018,3.018,0,0,0-.258,1.358,1.621,1.621,0,0,0,.623,1.218C-423.62,339.971-423.1,339.5-422.864,339.208Z" transform="translate(427.175 -332.004)" fill="#ffa188"/>
          <g id="Group_4143" data-name="Group 4143" transform="translate(2.033)">
            <path id="Path_1794" data-name="Path 1794" d="M-415.927,319.972a1.9,1.9,0,0,1-.6,1.265,1.815,1.815,0,0,1-2.217-.083c.025.374-.416.641-.786.585a1.741,1.741,0,0,1-.873-.509.434.434,0,0,1-.126.572,1.033,1.033,0,0,1-.734.1,8.737,8.737,0,0,1-2.1-.585,5.916,5.916,0,0,1-.631-.313,2.927,2.927,0,0,1-.947-.807,2.272,2.272,0,0,1-.37-.855,2.742,2.742,0,0,1,1.505-2.86,5.64,5.64,0,0,1,2.26-.542,6.533,6.533,0,0,1,3.8.767,3.7,3.7,0,0,1,1.815,2.829A2.7,2.7,0,0,1-415.927,319.972Z" transform="translate(425.714 -315.918)"/>
            <path id="Path_1795" data-name="Path 1795" d="M-425.428,338.939a1.226,1.226,0,0,1-.077.552.434.434,0,0,1-.438.27.586.586,0,0,1-.329-.248,5.377,5.377,0,0,1-.863-2.16,11.116,11.116,0,0,1-.288-1.89,4.855,4.855,0,0,1,.23-1.848,1.162,1.162,0,0,1,.173-.319.84.84,0,0,1,1.3-.2,2.878,2.878,0,0,1,.555,1.394,6.178,6.178,0,0,1,.084.691c0,.03,0,.06,0,.092a2.3,2.3,0,0,1-.623,1.743A8.884,8.884,0,0,1-425.428,338.939Z" transform="translate(427.431 -329.876)"/>
          </g>
        </g>
        <g id="Group_4146" data-name="Group 4146" transform="translate(2.25 7.983)">
          <path id="Path_1796" data-name="Path 1796" d="M-410.941,363.191l2.935-1.547a.319.319,0,0,1,.108-.034l2.658-.351a.322.322,0,0,1,.362.281c.113.906.2,3.454-2.25,4.12a.344.344,0,0,1-.054.01,7.617,7.617,0,0,1-3.353-.365.324.324,0,0,1-.2-.262,4.816,4.816,0,0,0-.348-1.418A.325.325,0,0,1-410.941,363.191Z" transform="translate(413.768 -361.256)" fill="#efefef"/>
          <g id="Group_4145" data-name="Group 4145" transform="translate(3.303 0.851)">
            <path id="Path_1797" data-name="Path 1797" d="M-402.2,366.09a6.082,6.082,0,0,0-2.55.318,23.46,23.46,0,0,0-2.667,1.319c-.042.027-.016.1.035.084a22.2,22.2,0,0,0,2.368-1.116,3.536,3.536,0,0,1,1.327-.42c.494-.037.992-.089,1.486-.117C-402.16,366.155-402.159,366.089-402.2,366.09Z" transform="translate(407.44 -366.09)" fill="#e6e6e6"/>
            <path id="Path_1798" data-name="Path 1798" d="M-400.85,369.381a8.469,8.469,0,0,1-2.14,1.076c-.877.2-1.756.388-2.634.583-.085.019-.049.15.036.131.946-.212,1.9-.4,2.842-.641a4.3,4.3,0,0,0,1.919-1.119A.019.019,0,0,0-400.85,369.381Z" transform="translate(405.984 -368.8)" fill="#e6e6e6"/>
            <path id="Path_1799" data-name="Path 1799" d="M-400.119,376.915a3.283,3.283,0,0,1-2.069.875c-.729.077-1.48-.028-2.2.121-.015,0-.01.025,0,.026,1.419.126,3.288.193,4.339-.947C-400,376.94-400.072,376.866-400.119,376.915Z" transform="translate(404.933 -374.995)" fill="#e6e6e6"/>
          </g>
          <path id="Path_1800" data-name="Path 1800" d="M-423.241,364.868c-.738-.673-1.78-1.655-2.859-1.528a.1.1,0,0,0,0,.2c1.032.014,1.9.918,2.652,1.535C-423.3,365.191-423.1,365-423.241,364.868Z" transform="translate(426.197 -362.964)" fill="#fff"/>
          <path id="Path_1801" data-name="Path 1801" d="M-415.016,377.887c-.484-.024-.915-.5-1.3-.759a.12.12,0,0,0-.145.019l-.011.015-.007.01a.12.12,0,0,0,.019.145,2.762,2.762,0,0,0,1.444.837C-414.844,378.163-414.844,377.9-415.016,377.887Z" transform="translate(418.203 -374.32)" fill="#fff"/>
        </g>
      </g>
      <g id="Group_4160" data-name="Group 4160" transform="translate(-393.772 316.032)">
        <path id="Path_1802" data-name="Path 1802" d="M-124.8,329.483a6.938,6.938,0,0,1,.413,3.486c-.12,1.177-.411,2.329-.61,3.5a6.24,6.24,0,0,0,.115,3.294,16.966,16.966,0,0,0,.977,1.772,3.569,3.569,0,0,1,.33,3.008,1.955,1.955,0,0,1-2.556,1.086,1.912,1.912,0,0,1-1.02,1.474,2.268,2.268,0,0,1-1.578.314,1.507,1.507,0,0,1-1.165-1.039,3.374,3.374,0,0,1-2.534,1.048,1.811,1.811,0,0,1-1.678-1.887,1.023,1.023,0,0,1-1.243.4,1.63,1.63,0,0,1-.908-1.04,4.275,4.275,0,0,1-.149-1.413,31.888,31.888,0,0,1,1.645-9.163,13.733,13.733,0,0,1,2.406-4.831,6.216,6.216,0,0,1,4.175-2.22A3.38,3.38,0,0,1-124.8,329.483Z" transform="translate(144.48 -325.373)"/>
        <g id="Group_4150" data-name="Group 4150" transform="translate(3.987 30.61)">
          <g id="Group_4148" data-name="Group 4148" transform="translate(0 21.267)">
            <path id="Path_1803" data-name="Path 1803" d="M-139.071,611.185l1.157,6.051-2.758.445-1.157-6.318Z" transform="translate(144.961 -611.185)" fill="#ffa188"/>
            <path id="Path_1804" data-name="Path 1804" d="M-158.613,637.521c-.512.334-1.128.778-.979,1.4a.874.874,0,0,0,.332.489,2.021,2.021,0,0,0,1.238.31,11.73,11.73,0,0,0,5.277-1.188.935.935,0,0,0,.377-.275.9.9,0,0,0,.12-.48,5.724,5.724,0,0,0-.212-1.809.222.222,0,0,0-.281-.151l-1.026.326c-.421.134-.962.235-1.238-.111-.23-.289-.164-.794-.622-.869-.355-.058-.548.283-.765.509A12.617,12.617,0,0,1-158.613,637.521Z" transform="translate(159.614 -630.939)" fill="#00365b"/>
          </g>
          <g id="Group_4149" data-name="Group 4149" transform="translate(7.386 21.267)">
            <path id="Path_1805" data-name="Path 1805" d="M-97.127,611.185l1.157,6.051-2.758.445-1.157-6.318Z" transform="translate(103.017 -611.185)" fill="#ffa188"/>
            <path id="Path_1806" data-name="Path 1806" d="M-116.669,637.521c-.512.334-1.128.778-.979,1.4a.874.874,0,0,0,.332.489,2.021,2.021,0,0,0,1.238.31,11.73,11.73,0,0,0,5.277-1.188.935.935,0,0,0,.377-.275.9.9,0,0,0,.12-.48,5.725,5.725,0,0,0-.212-1.809.222.222,0,0,0-.281-.151l-1.026.326c-.421.134-.962.235-1.238-.111-.23-.289-.164-.794-.622-.869-.355-.058-.548.283-.765.509A12.611,12.611,0,0,1-116.669,637.521Z" transform="translate(117.67 -630.939)" fill="#00365b"/>
          </g>
          <path id="Path_1807" data-name="Path 1807" d="M-151.625,515.054a15.831,15.831,0,0,0,4.182-.356c-2.047-8.186-1.78-18.775-1.78-18.775l1.157-.178c-.089,2.492,3.381,18.6,3.381,18.6a10.356,10.356,0,0,0,2.74-.545,12.635,12.635,0,0,0,1.531-.611c-1.335-4.182-3.025-15.216-3.025-15.216a5.867,5.867,0,0,1,.356-2.225,5.016,5.016,0,0,0,.651-3.382,5.813,5.813,0,0,0-.651-1.957l-4.87.339-4.072.283-1.291.09c-.038.384-.07.779-.1,1.183q-.036.565-.057,1.152C-153.8,502.471-151.625,515.054-151.625,515.054Z" transform="translate(154.579 -490.406)" fill="#014870"/>
        </g>
        <g transform="matrix(1, 0, 0, 1, -45.2, -0.11)" filter="url(#Path_1808)">
          <path id="Path_1808-2" data-name="Path 1808" d="M-173.182,391.357s-1.869.356-3.648,4.36c0,0-2.314,5.695-5.428,6.674a7.61,7.61,0,0,0,.8,2.492s6.318-2.456,6.318-6.852C-175.139,397.853-173.182,391.357-173.182,391.357Z" transform="translate(227.46 -378.07)" fill="#e2e2e2"/>
        </g>
        <path id="Path_1809" data-name="Path 1809" d="M-140.3,424.016c-4.449,2.225-14.148,1.6-14.148,1.6a117.64,117.64,0,0,1-.534-16.106h.034q-.09-1.225-.1-2.374c-.011-.9.012-1.756.061-2.583.535-8.877,4.223-13.729,4.223-13.729.239-.03.475-.053.706-.071a13.378,13.378,0,0,1,4.574.415,11.657,11.657,0,0,1,1.136.374l.185.074a7.731,7.731,0,0,1,1.408.722l-1.646,10.456Z" transform="translate(159.847 -377.656)" fill="#e1e1e1"/>
        <path id="Path_1810" data-name="Path 1810" d="M-128.358,391.169c-1.725,3.138-5.581,14.873-5.581,14.873-.975-4.5.515-12.791,1.007-15.287A13.378,13.378,0,0,1-128.358,391.169Z" transform="translate(142.714 -377.656)" fill="#4e4de6"/>
        <g id="Group_4152" data-name="Group 4152" transform="translate(7.279 12.527)">
          <path id="Path_1811" data-name="Path 1811" d="M-129.939,388.825a2.4,2.4,0,0,0-2.451-1.11,2.175,2.175,0,0,0-2,1.516,14.3,14.3,0,0,0-.979,3.509c-.013.1.145.159.18.054.3-.89.494-1.812.787-2.7.267-.812.583-1.777,1.511-2.013.872-.222,2.261-.081,2.671.858a2.206,2.206,0,0,1-.028,1.412,9.491,9.491,0,0,1-.511,1.483.154.154,0,0,0,.281.128C-130.1,391.08-129.525,389.775-129.939,388.825Z" transform="translate(136.345 -387.709)" fill="#c2c2c2"/>
          <g id="Group_4151" data-name="Group 4151" transform="translate(0 4.741)">
            <path id="Path_1812" data-name="Path 1812" d="M-139.26,415.882a.92.92,0,0,1-1.124.64.919.919,0,0,1-.469-1.205.919.919,0,0,1,1.124-.64A.919.919,0,0,1-139.26,415.882Z" transform="translate(140.918 -414.634)" fill="#00365b"/>
            <ellipse id="Ellipse_108" data-name="Ellipse 108" cx="0.628" cy="0.543" rx="0.628" ry="0.543" transform="translate(0.14 1.376) rotate(-70.473)" fill="#e6e6e6"/>
          </g>
          <path id="Path_1813" data-name="Path 1813" d="M-120.337,410.436c-.624-.085-1.191.582-1.481,1.046a5.815,5.815,0,0,0-.9,2.311c-.014.146.289.191.378.163.057-.018.047-.094,0-.118s-.125-.051-.183-.084c.519-.93.681-2.169,1.616-2.811a.528.528,0,0,1,.61-.1.483.483,0,0,1,.292.475,3.477,3.477,0,0,1-.155,1.028,17.22,17.22,0,0,1-.649,1.9s0,.005,0,.008a.488.488,0,0,0-.222-.048.053.053,0,0,0-.036.082c.084.132.468.3.552.09C-120.232,413.7-118.831,410.642-120.337,410.436Z" transform="translate(125.923 -406.428)" fill="#00365b"/>
        </g>
        <g id="Group_4159" data-name="Group 4159" transform="translate(8.317 0)">
          <g id="Group_4153" data-name="Group 4153" transform="translate(1.906 10.287)">
            <path id="Path_1814" data-name="Path 1814" d="M-123.225,380.307l.67.1a1.146,1.146,0,0,0,1.316-1.133v-3.892l-2.04-.4c-.121.386-.266.974-.41,1.616-.178.793-.356,1.669-.49,2.35A1.146,1.146,0,0,0-123.225,380.307Z" transform="translate(124.201 -374.987)" fill="#ffb298"/>
            <path id="Path_1815" data-name="Path 1815" d="M-121.3,376.6a3.3,3.3,0,0,0,.677,1.023,4.453,4.453,0,0,0,1.773,1.05v-3.293l-2.04-.4C-121.008,375.373-121.153,375.961-121.3,376.6Z" transform="translate(121.808 -374.987)" fill="#ffa188"/>
          </g>
          <path id="Path_1816" data-name="Path 1816" d="M-91.566,365.373a.156.156,0,0,0,.032.084.166.166,0,0,0,.117.038l.055,0a3.444,3.444,0,0,0,1.145-.139,1.4,1.4,0,0,0,.853-.666,1.243,1.243,0,0,0,.113-.65,1.292,1.292,0,0,0-.409-.879.78.78,0,0,0-.108-.077.613.613,0,0,0-.368-.093.734.734,0,0,0-.426.2,2.873,2.873,0,0,0-.637,1.017c-.053.123-.107.244-.165.359a2.6,2.6,0,0,0-.158.374A.946.946,0,0,0-91.566,365.373Z" transform="translate(99.225 -354.817)" fill="#ffa188"/>
          <path id="Path_1817" data-name="Path 1817" d="M-120.767,330.483v.035a7.425,7.425,0,0,1-.1,1.236c-.054.32-.122.627-.2.911q-.029.115-.061.224a10.645,10.645,0,0,1-.537,1.482c-.017.038-.036.077-.055.114a4.4,4.4,0,0,1-.28.465,3.857,3.857,0,0,1-.354.443c-.068.075-.139.147-.213.217a4.32,4.32,0,0,1-.52.421,5.214,5.214,0,0,1-2.264.839,3.778,3.778,0,0,1-2.411-.423,2.584,2.584,0,0,1-1.116-1.4,8.3,8.3,0,0,1-.167-3.874l.013-.092c.043-.3.091-.594.139-.886.061-.379.124-.75.18-1.111.006-.042.013-.083.021-.124.527-2.928,3.657-2.482,3.657-2.482A4.879,4.879,0,0,1-121.8,327.7c.032.031.063.064.092.1a3.265,3.265,0,0,1,.673,1.112A4.665,4.665,0,0,1-120.767,330.483Z" transform="translate(130.22 -324.712)" fill="#ffb298"/>
          <g id="Group_4154" data-name="Group 4154" transform="translate(2.024 6.228)">
            <path id="Path_1818" data-name="Path 1818" d="M-123.527,356.461a.7.7,0,0,1,.093-.427.388.388,0,0,1,.3-.218.346.346,0,0,1,.345.219.768.768,0,0,1-.054.53.412.412,0,0,1-.213.235.344.344,0,0,1-.345-.049A.351.351,0,0,1-123.527,356.461Z" transform="translate(123.532 -355.132)"/>
            <path id="Path_1819" data-name="Path 1819" d="M-103.325,360.592a.7.7,0,0,1,.093-.427.389.389,0,0,1,.3-.218.346.346,0,0,1,.345.219.77.77,0,0,1-.054.53.412.412,0,0,1-.213.234.344.344,0,0,1-.344-.049A.351.351,0,0,1-103.325,360.592Z" transform="translate(106.888 -358.535)"/>
            <path id="Path_1820" data-name="Path 1820" d="M-116.139,358.01c.244-.116.442.049.588-.261a2.188,2.188,0,0,1,.348-.67c.034-.034.109-.014.094.043a4.9,4.9,0,0,1-.187.473c-.047.127-.073.384-.179.488a.712.712,0,0,1-.349.109,1.439,1.439,0,0,1-.145.019q-.089-.134-.011,0a1.273,1.273,0,0,0,.252.338c.1.1-.038.279-.145.176C-116,358.607-116.436,358.151-116.139,358.01Z" transform="translate(117.525 -356.16)" fill="#ffa188"/>
            <path id="Path_1821" data-name="Path 1821" d="M-122.41,351.965a1.167,1.167,0,0,1,.943.192c.1.079.023.276-.11.24s-.265-.085-.4-.121-.276-.052-.411-.087C-122.487,352.163-122.533,352-122.41,351.965Z" transform="translate(122.669 -351.934)"/>
            <path id="Path_1822" data-name="Path 1822" d="M-101.524,356.9a1.168,1.168,0,0,1,.92.282c.1.089,0,.276-.132.228s-.256-.11-.386-.159-.27-.078-.4-.126C-101.619,357.088-101.649,356.918-101.524,356.9Z" transform="translate(105.468 -356.014)"/>
            <path id="Path_1823" data-name="Path 1823" d="M-118.163,369.385a5.054,5.054,0,0,0-1.946-.705s-.091.9.555,1.108A1.33,1.33,0,0,0-118.163,369.385Z" transform="translate(120.715 -365.731)" fill="#fff"/>
          </g>
          <g id="Group_4156" data-name="Group 4156" transform="translate(0.842 7.869)">
            <path id="Path_1824" data-name="Path 1824" d="M-124.138,363.191l-2.935-1.547a.32.32,0,0,0-.108-.034l-2.658-.351a.322.322,0,0,0-.363.281c-.113.906-.2,3.454,2.251,4.12a.341.341,0,0,0,.053.01,7.618,7.618,0,0,0,3.353-.365.324.324,0,0,0,.2-.262,4.822,4.822,0,0,1,.348-1.418A.325.325,0,0,0-124.138,363.191Z" transform="translate(130.246 -361.256)" fill="#fff"/>
            <g id="Group_4155" data-name="Group 4155" transform="translate(0.361 0.851)">
              <path id="Path_1825" data-name="Path 1825" d="M-128.161,366.09a6.084,6.084,0,0,1,2.55.318,23.469,23.469,0,0,1,2.667,1.319c.042.027.016.1-.035.084a22.215,22.215,0,0,1-2.368-1.116,3.536,3.536,0,0,0-1.327-.42c-.494-.037-.993-.089-1.487-.117C-128.2,366.155-128.205,366.089-128.161,366.09Z" transform="translate(128.194 -366.09)" fill="#e6e6e6"/>
              <path id="Path_1826" data-name="Path 1826" d="M-127.55,369.381a8.468,8.468,0,0,0,2.14,1.076c.877.2,1.756.388,2.634.583.085.019.049.15-.036.131-.946-.212-1.9-.4-2.841-.641a4.3,4.3,0,0,1-1.919-1.119A.019.019,0,0,1-127.55,369.381Z" transform="translate(127.686 -368.8)" fill="#e6e6e6"/>
              <path id="Path_1827" data-name="Path 1827" d="M-126.016,376.915a3.282,3.282,0,0,0,2.069.875c.729.077,1.48-.028,2.2.121.015,0,.01.025,0,.026-1.419.126-3.288.193-4.339-.947C-126.136,376.94-126.063,376.866-126.016,376.915Z" transform="translate(126.473 -374.995)" fill="#e6e6e6"/>
            </g>
            <path id="Path_1828" data-name="Path 1828" d="M-96.513,364.868c.738-.673,1.78-1.655,2.859-1.528a.1.1,0,0,1,0,.2c-1.032.014-1.9.918-2.653,1.535C-96.449,365.191-96.654,365-96.513,364.868Z" transform="translate(102.492 -362.964)" fill="#fff"/>
            <path id="Path_1829" data-name="Path 1829" d="M-98.211,377.887c.484-.024.915-.5,1.3-.759a.12.12,0,0,1,.145.019l.012.015.007.01a.12.12,0,0,1-.019.145,2.761,2.761,0,0,1-1.444.837C-98.383,378.163-98.382,377.9-98.211,377.887Z" transform="translate(103.958 -374.32)" fill="#fff"/>
          </g>
          <g id="Group_4158" data-name="Group 4158">
            <path id="Path_1830" data-name="Path 1830" d="M-120.022,337.135a7.425,7.425,0,0,1-.1,1.236c-.054.32-.122.627-.2.911a1.55,1.55,0,0,1-.668-.368,4.15,4.15,0,0,1-.652-.828,6.86,6.86,0,0,1-2.968.1,1.812,1.812,0,0,1-1.385-.826,6.291,6.291,0,0,1-1.943.353,2.2,2.2,0,0,1-.35-.016c.043-.3.091-.594.139-.886.061-.379.124-.75.18-1.111.006-.042.013-.083.021-.124a4.472,4.472,0,0,1,1.853-.94,7.386,7.386,0,0,1,3.867.269,2.846,2.846,0,0,1,.785.342,2.682,2.682,0,0,1,.508.486A6.114,6.114,0,0,1-120.022,337.135Z" transform="translate(129.475 -331.33)" fill="#ffa188"/>
            <g id="Group_4157" data-name="Group 4157">
              <path id="Path_1831" data-name="Path 1831" d="M-127.44,316.7a.857.857,0,0,0-.821-.045c-.248.16-.319.664-.063.807a7.908,7.908,0,0,0-3.521-.053,4.78,4.78,0,0,0-2.951,2.133,1.084,1.084,0,0,0-.18.936c.164.383.622.38.982.322-.359.216-.772.536-.748,1.009.027.546.6.78,1.065.813a5.306,5.306,0,0,0,2.736-.55c-.128.385.292.7.633.79a5.625,5.625,0,0,0,3.37-.122,3.182,3.182,0,0,0,1.775-1.355C-124.134,319.583-126.107,317.309-127.44,316.7Z" transform="translate(135.026 -316.566)"/>
              <path id="Path_1832" data-name="Path 1832" d="M-87.827,341.277a1.965,1.965,0,0,0,.789.831.471.471,0,0,0,.295.061c.2-.039.294-.264.346-.46a6.642,6.642,0,0,0-.069-3.671,2,2,0,0,0-1.068-1.392c-.332-.118-.85-.023-.916.376a8.338,8.338,0,0,0-.008,1.332A6,6,0,0,0-87.827,341.277Z" transform="translate(96.679 -333.073)"/>
            </g>
          </g>
        </g>
      </g>
      <g id="Group_4167" data-name="Group 4167" transform="translate(-436.594 321.816)">
        <g id="Group_4162" data-name="Group 4162" transform="translate(14.936)">
          <g id="Group_4161" data-name="Group 4161">
            <rect id="Rectangle_791" data-name="Rectangle 791" width="30.343" height="22.246" fill="#ea9986"/>
            <rect id="Rectangle_792" data-name="Rectangle 792" width="8.097" height="22.246" fill="#e08c75"/>
          </g>
          <path id="Path_1833" data-name="Path 1833" d="M-248.327,388.472h-3.29v-3.29h-3.656v3.29h-3.29v3.656h3.29v3.29h3.656v-3.29h3.29Z" transform="translate(273.014 -378.884)" fill="#fff"/>
        </g>
        <g id="Group_4164" data-name="Group 4164" transform="translate(0 8.704)">
          <g id="Group_4163" data-name="Group 4163" transform="translate(12.757 12.029)">
            <path id="Path_1834" data-name="Path 1834" d="M-346.015,468.658a.342.342,0,0,1-.085.228,2.617,2.617,0,0,1-.578.521,7.561,7.561,0,0,1-1.412.883,4.017,4.017,0,0,1-.625.213,9.893,9.893,0,0,1-1.8.24,8.4,8.4,0,0,1-2.32-.049c-.046-.778-.117-1.6-.164-2.383a3.625,3.625,0,0,0,.606.026l1.136,0h.035a.818.818,0,0,0,.287-.032.892.892,0,0,0,.2-.114,16.4,16.4,0,0,1,1.473-.911.777.777,0,0,1,.356-.124.285.285,0,0,1,.287.209.415.415,0,0,1-.058.261,2.344,2.344,0,0,1-.823.938,10.127,10.127,0,0,0,3-.1.7.7,0,0,1,.288-.012A.25.25,0,0,1-346.015,468.658Z" transform="translate(352.998 -467.16)" fill="#ffb298"/>
            <path id="Path_1835" data-name="Path 1835" d="M-348.716,475.886a9.893,9.893,0,0,1-1.8.24,8.4,8.4,0,0,1-2.32-.049c-.046-.779-.117-1.6-.164-2.383a3.625,3.625,0,0,0,.606.026l1.136,0a4.38,4.38,0,0,0,.239.755,2.416,2.416,0,0,0,1.933,1.37Q-348.9,475.877-348.716,475.886Z" transform="translate(352.998 -472.543)" fill="#ffa188"/>
          </g>
          <path id="Path_1836" data-name="Path 1836" d="M-422.729,399.53a1.389,1.389,0,0,0-1.854-.534s-1.39.445-.649,2.936l4.264,10.233a3.7,3.7,0,0,0,2.873,2.047l6.859.534a8.816,8.816,0,0,0-.011-3.2l-5.087-.356a2.626,2.626,0,0,1-2.5-2.136Z" transform="translate(425.449 -398.847)" fill="#6d6df5"/>
        </g>
        <g id="Group_4166" data-name="Group 4166" transform="translate(41.042 8.704)">
          <g id="Group_4165" data-name="Group 4165" transform="translate(0 12.029)">
            <path id="Path_1837" data-name="Path 1837" d="M-192.364,468.658a.344.344,0,0,0,.085.228,2.622,2.622,0,0,0,.578.521,7.572,7.572,0,0,0,1.412.883,4.028,4.028,0,0,0,.625.213,9.893,9.893,0,0,0,1.8.24,8.4,8.4,0,0,0,2.32-.049c.046-.778.117-1.6.164-2.383a3.624,3.624,0,0,1-.606.026l-1.136,0h-.035a.818.818,0,0,1-.286-.032.892.892,0,0,1-.2-.114,16.4,16.4,0,0,0-1.473-.911.777.777,0,0,0-.356-.124.285.285,0,0,0-.287.209.415.415,0,0,0,.058.261,2.344,2.344,0,0,0,.823.938,10.127,10.127,0,0,1-3-.1.7.7,0,0,0-.288-.012A.25.25,0,0,0-192.364,468.658Z" transform="translate(192.365 -467.16)" fill="#ffb298"/>
            <path id="Path_1838" data-name="Path 1838" d="M-177.022,475.886a9.892,9.892,0,0,0,1.8.24,8.4,8.4,0,0,0,2.32-.049c.046-.779.117-1.6.164-2.383a3.624,3.624,0,0,1-.606.026l-1.136,0a4.38,4.38,0,0,1-.239.755,2.416,2.416,0,0,1-1.933,1.37C-176.776,475.868-176.9,475.88-177.022,475.886Z" transform="translate(179.724 -472.543)" fill="#ffa188"/>
          </g>
          <g transform="matrix(1, 0, 0, 1, -43.42, -14.6)" filter="url(#Path_1839)">
            <path id="Path_1839-2" data-name="Path 1839" d="M-150.214,399.53A1.389,1.389,0,0,1-148.36,399s1.39.445.649,2.936l-4.264,10.233a3.7,3.7,0,0,1-2.873,2.047l-6.859.534a8.812,8.812,0,0,1,.011-3.2l5.087-.356a2.626,2.626,0,0,0,2.5-2.136Z" transform="translate(210.66 -384.24)" fill="#e2e2e2"/>
          </g>
        </g>
      </g>
    </g>
  </g>
</svg>
