<svg xmlns="http://www.w3.org/2000/svg" width="20" height="20" viewBox="0 0 20 20">
  <path id="Icon_material-my-location" data-name="Icon material-my-location" d="M11.5,7.864A3.636,3.636,0,1,0,15.136,11.5,3.635,3.635,0,0,0,11.5,7.864Zm8.127,2.727a8.177,8.177,0,0,0-7.218-7.218V1.5H10.591V3.373a8.177,8.177,0,0,0-7.218,7.218H1.5v1.818H3.373a8.177,8.177,0,0,0,7.218,7.218V21.5h1.818V19.627a8.177,8.177,0,0,0,7.218-7.218H21.5V10.591ZM11.5,17.864A6.364,6.364,0,1,1,17.864,11.5,6.359,6.359,0,0,1,11.5,17.864Z" transform="translate(-1.5 -1.5)"/>
</svg>
