<svg xmlns="http://www.w3.org/2000/svg" width="353.297" height="280" viewBox="0 0 353.297 280">
  <g id="Group_4329" data-name="Group 4329" transform="translate(-300 -251)">
    <g id="Group_1" data-name="Group 1" transform="translate(214.559 103.091)">
      <g id="Group_4257" data-name="Group 4257" transform="translate(85.441 157.042)">
        <g id="Group_4256" data-name="Group 4256">
          <g id="Group_4255" data-name="Group 4255" opacity="0.37">
            <g id="Group_4254" data-name="Group 4254">
              <g id="Group_4248" data-name="Group 4248">
                <g id="Group_4245" data-name="Group 4245" transform="translate(0 180.674)" opacity="0.41">
                  <path id="Path_2024" data-name="Path 2024" d="M87.461,245.508c-2.581-3.072-2.705-7.751-.275-10.449s8.185-4.271,10.767-1.2-1.086,7.467-1.966,11.314C94.757,250.54,90.045,248.58,87.461,245.508Z" transform="translate(-85.441 -232.176)" fill="#9f9f9f"/>
                </g>
                <g id="Group_4246" data-name="Group 4246" transform="translate(80.34)" opacity="0.41">
                  <path id="Path_2025" data-name="Path 2025" d="M122.453,163.162c2.888-7.643,11.071-12.515,18.281-10.884s15.724,10.282,12.839,17.923-14.337,5.5-22.045,7.762C120.78,181.12,119.568,170.8,122.453,163.162Z" transform="translate(-121.109 -151.963)" fill="#9f9f9f"/>
                </g>
                <g id="Group_4247" data-name="Group 4247" transform="translate(338.634 155.443)" opacity="0.41">
                  <path id="Path_2026" data-name="Path 2026" d="M247.51,223.165c3.232,2.858,3.9,8.287,1.487,12.12s-8.654,7.291-11.884,4.431.369-9.021.919-13.76C238.8,219.345,244.28,220.3,247.51,223.165Z" transform="translate(-235.783 -220.975)" fill="#9f9f9f"/>
                </g>
              </g>
            </g>
          </g>
        </g>
      </g>
      <g id="Group_4265" data-name="Group 4265" transform="translate(321.735 164.708)">
        <g id="Group_4261" data-name="Group 4261">
          <g id="Group_4260" data-name="Group 4260">
            <g id="Group_4259" data-name="Group 4259">
              <g id="Group_4258" data-name="Group 4258">
                <path id="Path_2029" data-name="Path 2029" d="M197.737,219.8h3.345a5.538,5.538,0,0,1,5.534,5.723l-.248,7.323a2.5,2.5,0,0,0,4.205,1.912l14.418-13.467a5.543,5.543,0,0,1,3.78-1.491H247.39a7.39,7.39,0,0,0,7.39-7.39v-49.65a7.39,7.39,0,0,0-7.39-7.39H197.737a7.39,7.39,0,0,0-7.39,7.39v49.65A7.39,7.39,0,0,0,197.737,219.8Z" transform="translate(-190.347 -155.367)" fill="#9191e6"/>
                <g id="Group_4327" data-name="Group 4327" transform="translate(-102.471 -173.013)">
                  <path id="Path_1977" data-name="Path 1977" d="M149.351,215.334c3.274,3.315,6.471,6.556,9.674,9.792a3.113,3.113,0,0,1,1.15,2.388,2.719,2.719,0,0,1-4.374,2.118,9.906,9.906,0,0,1-.855-.771c-2.981-2.958-5.969-5.91-8.926-8.893a.843.843,0,0,0-1.319-.133,21.8,21.8,0,1,1,9.175-17.8A20.763,20.763,0,0,1,149.9,214.57C149.709,214.832,149.522,215.095,149.351,215.334Zm-17.345-29.6A16.345,16.345,0,1,0,148.4,202.074,16.381,16.381,0,0,0,132.007,185.73Z" fill="#fff"/>
                  <path id="Path_1978" data-name="Path 1978" d="M189.742,301.088,192,306.635h.156l.475-3.732a1.52,1.52,0,0,1-.591-1.806.747.747,0,0,1,.494-.268,2.679,2.679,0,0,1,.883,0c.4.075,1.08.154,1.127.352.124.522.447,1.249-.421,1.576a.418.418,0,0,0-.153.351,21.471,21.471,0,0,0,.625,3.484l2.2-5.412a5.309,5.309,0,0,1,4.267,4.049q.316,1.918.565,3.847a1.514,1.514,0,0,1-1.551,1.9c-.823.065-1.652.094-2.478.091-3.665-.014-7.331-.02-11-.083-1.551-.026-2.037-.711-1.774-2.228.161-.929.265-1.868.437-2.795A5.978,5.978,0,0,1,189.742,301.088Z" transform="translate(-61.333 -99.201)" fill="#fff"/>
                  <path id="Path_1979" data-name="Path 1979" d="M214,241.026a5.25,5.25,0,1,1-5.179-5.273A5.188,5.188,0,0,1,214,241.026Z" transform="translate(-76.752 -45.693)" fill="#fff"/>
                </g>
              </g>
            </g>
          </g>
        </g>
      </g>
      <g id="Group_4324" data-name="Group 4324" transform="translate(128.735 168.708)">
        <g id="Group_4261-2" data-name="Group 4261" transform="translate(0)">
          <g id="Group_4260-2" data-name="Group 4260">
            <g id="Group_4259-2" data-name="Group 4259">
              <g id="Group_4258-2" data-name="Group 4258">
                <path id="Path_2029-2" data-name="Path 2029" d="M247.39,219.8h-3.345a5.538,5.538,0,0,0-5.534,5.723l.248,7.323a2.5,2.5,0,0,1-4.205,1.912l-14.418-13.467a5.543,5.543,0,0,0-3.78-1.491H197.737a7.39,7.39,0,0,1-7.39-7.39v-49.65a7.39,7.39,0,0,1,7.39-7.39H247.39a7.39,7.39,0,0,1,7.39,7.39v49.65A7.39,7.39,0,0,1,247.39,219.8Z" transform="translate(-190.347 -155.367)" fill="#9191e6"/>
                <g id="Group_4326" data-name="Group 4326" transform="translate(115.211 -616.259)">
                  <path id="Path_1969" data-name="Path 1969" d="M-94.186,663.149c-2.124-.112-2.121-.111-2.635,1.822-.382,1.437-.781,2.87-1.153,4.31-.248.959-.114,1.161.815,1.5.686.248,1.374.5,2.032.809.2.1.311.4.463.605-.191.132-.38.377-.573.38-1.9.029-3.8.017-5.763.017l.655-9.463h-2.877c0-1.4-.08-2.71.013-4.012a43,43,0,0,1,6.388-20.183,31.263,31.263,0,0,1,5.57-6.729,2.96,2.96,0,0,0,1.189-2.89,3.816,3.816,0,0,1,1.878-3.879,4.163,4.163,0,0,1,4.338-.092,4.261,4.261,0,0,1,2.079,3.953,3.981,3.981,0,0,1-3.073,3.591,1.778,1.778,0,0,0-1.579,1.386c-.349,1.269-.864,2.5-1.125,3.782a4.4,4.4,0,0,0,2.656,4.828c.2.087.4.183.64.292a20.645,20.645,0,0,1,4.332-9.572,18.654,18.654,0,0,1,6.354-5.3,2.131,2.131,0,0,0,1.34-1.9,4.17,4.17,0,0,1,3.733-3.751,4.171,4.171,0,0,1,4.169,2.276,3.554,3.554,0,0,1-.581,4.344,3.83,3.83,0,0,1-3.065,1.118c-1.222-.031-1.389.213-1.082,1.441A27.88,27.88,0,0,0-58,648.05a3.627,3.627,0,0,1,.461.365c.559.567.517,1.251-.194,1.585a1.152,1.152,0,0,0-.68,1.033c-1.174,7.148-2.359,14.294-3.559,21.542l-.985-.171,3.694-22.174-1.492-.826-1.434.572-.174-.2.453-1.326c-.07-.045-.263-.152-.438-.285a37.793,37.793,0,0,1-7.993-8.381c-.1-.137-.2-.273-.306-.4-.665-.8-1.114-.789-1.71.089a19.141,19.141,0,0,0-3.243,9.184c-.261,2.879.42,5.637.923,8.422.764,4.224,1.548,8.445,2.291,12.672a1.133,1.133,0,0,0,.953,1.083,9.657,9.657,0,0,1,1.85.56c.261.116.4.5.6.757-.256.156-.509.44-.769.447-1.656.042-3.315,0-4.972.03-.753.012-.9-.463-1.066-1.046-.995-3.476-2.016-6.945-3.037-10.414a8.935,8.935,0,0,0-.407-.934c-.2,2.153-.357,4.153-.569,6.149-.107,1-.272,2-.474,2.991-.153.749.009,1.26.767,1.531a9.048,9.048,0,0,1,1.392.591c.214.12.337.4.5.614a4.883,4.883,0,0,1-.724.481,1.516,1.516,0,0,1-.584.031c-3.792,0-7.585-.013-11.378.015a.907.907,0,0,1-1.04-.78C-92.253,668.943-93.228,666.055-94.186,663.149Zm3.813,0a.984.984,0,0,0-.043.247,29.416,29.416,0,0,1,.76,4.122,3.423,3.423,0,0,0,3.092,3.651,1.073,1.073,0,0,1,.158.057c.818.291,1.052.192,1.231-.67a46.379,46.379,0,0,0,1.216-13.524c-.279-3.209-.66-6.409-1.016-9.611a.662.662,0,0,0-.344-.48,8.452,8.452,0,0,1-3.551-2.171c-.522-.5-.963-.351-1.278.243a4.034,4.034,0,0,0-.279.789,21.786,21.786,0,0,0-.271,10.322c.451,2.3.839,4.6,1.264,6.953Z" transform="translate(0 0)" fill="#fff"/>
                </g>
              </g>
            </g>
          </g>
        </g>
      </g>
      <g id="Group_4323" data-name="Group 4323" transform="translate(364.735 240.708)">
        <g id="Group_4261-3" data-name="Group 4261">
          <g id="Group_4260-3" data-name="Group 4260">
            <g id="Group_4259-3" data-name="Group 4259">
              <g id="Group_4258-3" data-name="Group 4258">
                <path id="Path_2029-3" data-name="Path 2029" d="M197.737,219.8h3.345a5.538,5.538,0,0,1,5.534,5.723l-.248,7.323a2.5,2.5,0,0,0,4.205,1.912l14.418-13.467a5.543,5.543,0,0,1,3.78-1.491H247.39a7.39,7.39,0,0,0,7.39-7.39v-49.65a7.39,7.39,0,0,0-7.39-7.39H197.737a7.39,7.39,0,0,0-7.39,7.39v49.65A7.39,7.39,0,0,0,197.737,219.8Z" transform="translate(-190.347 -155.367)" fill="#9191e6"/>
                <g id="Group_4328" data-name="Group 4328" transform="translate(-733.735 -350.327)">
                  <path id="Path_1980" data-name="Path 1980" d="M763.53,548.8c2.645-3.449,5.189-6.741,7.693-10.062.373-.495.658-.663,1.278-.417a36.877,36.877,0,0,1,9.482,5.339c1.735,1.382,2.241,3.2,2.539,5.339.443,3.179-1.558,4.26-3.88,5.274A35.831,35.831,0,0,1,769.879,557a63.172,63.172,0,0,1-9.036.362,40.733,40.733,0,0,1-14.2-2.927,20.841,20.841,0,0,1-3.365-1.846,2.067,2.067,0,0,1-.742-1.329,22.981,22.981,0,0,1-.1-2.836,5.662,5.662,0,0,1,2.225-4.581,36.032,36.032,0,0,1,9.68-5.516c.619-.252.91-.085,1.286.409,2.349,3.082,4.737,6.135,7.117,9.195C762.94,548.174,763.164,548.394,763.53,548.8Z" transform="translate(0 -147.873)" fill="#fff"/>
                  <path id="Path_1981" data-name="Path 1981" d="M805.013,388.137c.411-.6.838-1.172,1.215-1.777a14.228,14.228,0,0,0,1.53-12.64c-.441-1.3-.678-1.364-1.867-.7a27.108,27.108,0,0,1-7.317,2.337c-1.309.306-2.631.558-3.936.881a1.689,1.689,0,0,0-1.512,1.906,14.738,14.738,0,0,0,3.266,9.6c.1.129.191.271.455.648-.959-.247-1.678-.4-2.375-.617a13.107,13.107,0,0,1-6.953-4.877,1.889,1.889,0,0,1-.112-2.432,25.323,25.323,0,0,0,3.47-7.856,11.389,11.389,0,0,1,2.786-5.208c.651-.677.135-1.424.1-2.12-.076-1.312-.349-2.613-.441-3.926a1.611,1.611,0,0,1,1.819-1.825q5.641-.021,11.283,0a1.725,1.725,0,0,1,1.858,2.074c-.177,1.454-.4,2.9-.562,4.357a1.072,1.072,0,0,0,.215.83c2.45,2.017,3.42,4.756,3.851,7.7a14.4,14.4,0,0,0,2.417,6.116,1.638,1.638,0,0,1-.056,2.115,13.552,13.552,0,0,1-8.912,5.5C805.187,388.24,805.131,388.19,805.013,388.137Zm-5.206-24.831h-2.165v1.92h2.192V367.3H801.8v-2.1c.747-.032,1.543.152,1.978-.154.348-.245.257-1.086.384-1.8h-2.443v-2.137h-1.908Z" transform="translate(-36.715 0)" fill="#fff"/>
                  <path id="Path_1982" data-name="Path 1982" d="M961.194,373.474c-1.015.071-1.916.181-2.818.186a2.056,2.056,0,0,1-2.313-1.786c-.422-1.728-.8-3.466-1.16-5.207a2.115,2.115,0,0,1,1.4-2.418c3.033-1.483,5.646-.7,7.579,2.286a21.888,21.888,0,0,1,3.243,9.107,25.477,25.477,0,0,1-1.357,12.879A12.289,12.289,0,0,1,963.042,393c-2.112,2.068-4.764,1.511-6.689.281a2.235,2.235,0,0,1-.746-1.781c.143-1.736.482-3.459.79-5.179a2.3,2.3,0,0,1,2.625-2.1c.645.006,1.289.125,1.932.114.2,0,.556-.248.575-.411A35.241,35.241,0,0,0,961.194,373.474Z" transform="translate(-174.959 -3.304)" fill="#fff"/>
                  <path id="Path_1983" data-name="Path 1983" d="M833.094,547.653a21.109,21.109,0,0,0,10-.007l-5.074,6.765Z" transform="translate(-74.668 -155.682)" fill="#fff"/>
                </g>
              </g>
            </g>
          </g>
        </g>
      </g>
      <g id="Group_4325" data-name="Group 4325" transform="translate(85.735 244.708)">
        <g id="Group_4261-4" data-name="Group 4261" transform="translate(0)">
          <g id="Group_4260-4" data-name="Group 4260">
            <g id="Group_4259-4" data-name="Group 4259">
              <g id="Group_4258-4" data-name="Group 4258">
                <path id="Path_2029-4" data-name="Path 2029" d="M247.39,219.8h-3.345a5.538,5.538,0,0,0-5.534,5.723l.248,7.323a2.5,2.5,0,0,1-4.205,1.912l-14.418-13.467a5.543,5.543,0,0,0-3.78-1.491H197.737a7.39,7.39,0,0,1-7.39-7.39v-49.65a7.39,7.39,0,0,1,7.39-7.39H247.39a7.39,7.39,0,0,1,7.39,7.39v49.65A7.39,7.39,0,0,1,247.39,219.8Z" transform="translate(-190.347 -155.367)" fill="#9191e6"/>
                <g id="Group_4193" data-name="Group 4193" transform="translate(402.532 -321.794)">
                  <path id="Path_1967" data-name="Path 1967" d="M-379.719,351.857a34.643,34.643,0,0,1-2.847-2.392,6.092,6.092,0,0,1-1.573-4.27c-.043-4.763-.025-9.527-.035-14.29,0-.627.159-1.135.78-1.124.663.012.808.572.808,1.22q0,5.055,0,10.111a2.236,2.236,0,0,0,.065.951c.173.313.5.683.782.7s.65-.312.828-.609a2.245,2.245,0,0,0,.121-1.034q.011-4.812.005-9.625a8.534,8.534,0,0,1,.019-.874c.062-.6.371-1.042.891-.879a1.336,1.336,0,0,1,.792.882,25.212,25.212,0,0,1,.052,2.91c0,2.625.009,5.25,0,7.875,0,.779.172,1.411.949,1.385.744-.025.857-.7.857-1.4q0-5.007,0-10.013c0-.291-.073-.654.048-.857.2-.329.544-.786.8-.761.313.031.646.452.866.793.124.193.043.565.044.856q0,4.764,0,9.527c0,.259-.012.52.009.777.051.612.288,1.1.876,1.087s.914-.433.915-1.136q0-1.653,0-3.305,0-3.5,0-7c0-.259-.072-.589.038-.761.207-.325.522-.77.792-.77.25,0,.633.476.716.819a7.216,7.216,0,0,1,.04,1.642c0,3.986-.02,7.972.006,11.958.023,3.423-1.276,5.8-4.047,7.132a1.174,1.174,0,0,0-.377.892c.1,2.848.245,5.695.385,8.541.256,5.24.529,10.479.772,15.72.094,2.025-1.36,3.478-3.133,3.115a5.726,5.726,0,0,1-1.649-.714,1.725,1.725,0,0,1-.823-1.748c.335-6.533.642-13.068.956-19.6C-379.894,355.584-379.8,353.581-379.719,351.857Z" transform="translate(0 0)" fill="#fff"/>
                  <path id="Path_1968" data-name="Path 1968" d="M-291.045,359.8h-6.534c0-1.813-.043-3.557.008-5.3a89.417,89.417,0,0,1,1.294-14.089c.566-2.979,1.274-5.92,3.048-8.333a4.361,4.361,0,0,1,3.189-1.958c1.067-.094,1.646.473,1.706,1.716.011.226,0,.454,0,.681q0,22.557,0,45.114a6.115,6.115,0,0,1-.068,1.158c-.162.831-.627,1.308-1.391,1.243s-1.164-.588-1.236-1.444c-.027-.321-.016-.647-.016-.971q0-8.313,0-16.626Z" transform="translate(-68.365 -0.335)" fill="#fff"/>
                </g>
              </g>
            </g>
          </g>
        </g>
      </g>
      <g id="Group_4294" data-name="Group 4294" transform="translate(145.222 147.909)">
        <g id="Group_4266" data-name="Group 4266" transform="translate(0 118.591)">
          <path id="Path_2032" data-name="Path 2032" d="M338.965,323.916h.02s-17.01-77.209-17.013-77.223c-3.239-21.5-22.069-37.318-42.929-40.634-36.794-5.847-76.47-9.931-112.192,3.349-9.89,3.678-19.193,9.451-25.338,18.2-6.519,9.28-8.827,20.551-11.041,31.453-4.129,20.344-9.224,40.555-14.49,60.631q-1.645,6.625-3.293,13.251a23.994,23.994,0,0,0,4.025,20.092,22.135,22.135,0,0,0,19.975,8.821c.277-.027,10.381-.455,23.869-1.016l-.029,1.126,130.758-.48-1.613-38.87.851.023c.115.583.223,1.142.318,1.624l.013.072c.216,1.113.378,1.948.473,2.439l.1.5c2.906,14.925,19.211,23.682,33.708,20.565C335.96,345.515,341.963,334.154,338.965,323.916Z" transform="translate(-111.982 -200.559)" fill="#4e4de6"/>
          <path id="Path_2033" data-name="Path 2033" d="M187.776,232.9l-1.419-.062,10.541,66.5-.373-17.146.786-.311L187.776,232.9" transform="translate(-18.831 -160.132)" fill="#353535" opacity="0.45"/>
          <path id="Path_2034" data-name="Path 2034" d="M144.414,228.412l-3.788,45.44,40.428,2.988-47.582,2.451Z" transform="translate(-85.068 -165.675)" fill="#353535" opacity="0.45"/>
          <path id="Path_2035" data-name="Path 2035" d="M185.059,262.36l.8,9.508-52.39,11.578.146,1.12,54.414-9.27Z" transform="translate(-85.068 -123.157)" fill="#353535" opacity="0.45"/>
          <path id="Path_2036" data-name="Path 2036" d="M198.523,226.167l22.01,36.989-2.407,1.6Z" transform="translate(-3.595 -168.487)" fill="#353535" opacity="0.45"/>
        </g>
        <g id="Group_4278" data-name="Group 4278" transform="translate(94.745 131.486)">
          <g id="Group_4271" data-name="Group 4271" transform="translate(0 69.212)">
            <g id="Group_4267" data-name="Group 4267" transform="translate(11.721)">
              <rect id="Rectangle_836" data-name="Rectangle 836" width="38.127" height="5.164" rx="1.027" transform="translate(3.518)" fill="#ff5f25"/>
              <path id="Path_2037" data-name="Path 2037" d="M193.944,297.592H167.5a3.428,3.428,0,0,1-3.419-3.18l-3.75-51.727a3.427,3.427,0,0,1,3.419-3.676h33.942a3.429,3.429,0,0,1,3.419,3.676l-3.753,51.727A3.426,3.426,0,0,1,193.944,297.592Z" transform="translate(-157.902 -234.511)" fill="#ffc34e"/>
              <path id="Path_2038" data-name="Path 2038" d="M160.811,247.291l1.462,20.156h35.683l1.461-20.156Z" transform="translate(-157.292 -224.137)" fill="#353535"/>
              <rect id="Rectangle_837" data-name="Rectangle 837" width="45.476" height="8.245" rx="1.176" transform="translate(0 2.749)" fill="#353535"/>
            </g>
            <path id="Path_2039" data-name="Path 2039" d="M154.045,255.674l10.8-8.944a8.658,8.658,0,0,1,11.341,2.1l24.385,3.631a2.467,2.467,0,0,1,2.1,2.442v1.619a5.364,5.364,0,0,1,2.5,4.536v2.761c0,.232.588.6.734.791a2.655,2.655,0,0,1,.68,1.86,5.12,5.12,0,0,1-1.955,3.741l-1.962,1.5-11.936,6.721c-6.21,3.5-13.265,6.293-20.369,6.895l-10.246,1.836Z" transform="translate(-154.045 -226.418)" fill="#efbbab"/>
            <g id="Group_4268" data-name="Group 4268" transform="translate(31.629 29.083)">
              <path id="Path_2040" data-name="Path 2040" d="M184.366,252.071H169.221a1.011,1.011,0,0,1,0-2.023h15.145a1.011,1.011,0,1,1,0,2.023Z" transform="translate(-167.93 -249.766)" fill="#ff8970"/>
              <path id="Path_2041" data-name="Path 2041" d="M184.525,252.507H169.378a1.292,1.292,0,0,1,0-2.584h15.148a1.292,1.292,0,0,1,0,2.584Zm-15.148-2.02a.73.73,0,0,0,0,1.46h15.148a.73.73,0,0,0,0-1.46Z" transform="translate(-168.087 -249.923)" fill="#efbbab"/>
            </g>
            <g id="Group_4269" data-name="Group 4269" transform="translate(33.288 36.11)">
              <path id="Path_2042" data-name="Path 2042" d="M169.957,258.028a1.011,1.011,0,0,1-.171-2.007l16.558-2.84a1.01,1.01,0,0,1,.34,1.991l-16.555,2.843A1.093,1.093,0,0,1,169.957,258.028Z" transform="translate(-168.667 -252.887)" fill="#ff8970"/>
              <path id="Path_2043" data-name="Path 2043" d="M170.113,258.465a1.285,1.285,0,0,1-1.27-1.074,1.3,1.3,0,0,1,1.052-1.491l16.555-2.84a1.294,1.294,0,0,1,1.491,1.056,1.272,1.272,0,0,1-.216.962,1.3,1.3,0,0,1-.836.527l-16.555,2.843A1.305,1.305,0,0,1,170.113,258.465Zm16.558-4.861a.837.837,0,0,0-.128.009l-16.551,2.843a.73.73,0,0,0-.595.84.728.728,0,0,0,.847.595l16.549-2.84a.726.726,0,0,0,.595-.842A.712.712,0,0,0,186.671,253.6Z" transform="translate(-168.823 -253.043)" fill="#efbbab"/>
            </g>
            <g id="Group_4270" data-name="Group 4270" transform="translate(32.13 42.934)">
              <path id="Path_2044" data-name="Path 2044" d="M169.447,263.65a1.011,1.011,0,0,1-.324-1.969l16.121-5.431a1.012,1.012,0,0,1,.649,1.917L169.769,263.6A1.014,1.014,0,0,1,169.447,263.65Z" transform="translate(-168.153 -255.915)" fill="#ff8970"/>
              <path id="Path_2045" data-name="Path 2045" d="M169.6,264.092a1.292,1.292,0,0,1-.414-2.516l16.121-5.435a1.292,1.292,0,1,1,.829,2.448l-16.123,5.435A1.329,1.329,0,0,1,169.6,264.092Zm16.118-7.456a.771.771,0,0,0-.232.038l-16.121,5.433a.729.729,0,0,0-.459.923.726.726,0,0,0,.928.457l16.118-5.431a.73.73,0,0,0,.46-.924A.734.734,0,0,0,185.722,256.637Z" transform="translate(-168.309 -256.073)" fill="#efbbab"/>
            </g>
          </g>
          <g id="Group_4277" data-name="Group 4277" transform="translate(39.226)">
            <g id="Group_4272" data-name="Group 4272" transform="translate(5.579)">
              <path id="Path_2046" data-name="Path 2046" d="M203.559,266.165,178.868,265.1a5.154,5.154,0,0,1-4.926-5.372l2.1-48.511a5.155,5.155,0,0,1,5.372-4.926l24.693,1.07a5.154,5.154,0,0,1,4.926,5.372l-2.1,48.508C208.81,264.084,203.451,265.9,203.559,266.165Z" transform="translate(-173.937 -206.284)" fill="#353535"/>
            </g>
            <g id="Group_4276" data-name="Group 4276" transform="translate(0 9.551)">
              <g id="Group_4273" data-name="Group 4273">
                <path id="Path_2047" data-name="Path 2047" d="M232.418,245.759c-3-5.48-5.507-10.048-5.509-10.055a34.092,34.092,0,0,0-5.325-11.152c-.493-.678-.98-1.354-1.48-2.038l.367-8.48a3.363,3.363,0,0,0-3.228-3.507,3.449,3.449,0,0,0-3.383,3.41l-.124,2.847A11.206,11.206,0,0,1,202.07,227.5l-9.634-.405-14.186-1.831a3.645,3.645,0,0,0-4.048,2.482,3.438,3.438,0,0,0,1.942,4.041c-.128.034-.259.07-.392.11l-.237-.032a3.541,3.541,0,0,0-3.541,1.554,3.473,3.473,0,0,0,2.5,5.268,3.405,3.405,0,0,0-1.194,2.088,3.46,3.46,0,0,0,2.876,3.94l1.518.237c.068.054.131.106.2.16,0,0,.036.077.1.2a3.053,3.053,0,0,0,.381,5.872l4.994,1.061c.273.214.552.419.84.606,2.216,1.428,11.911,5.322,22,7.005a.072.072,0,0,1,.059.056l.216,1.11c.032.167.329.1.342.088C213.258,257.418,226.656,249.665,232.418,245.759Z" transform="translate(-171.46 -210.524)" fill="#efbbab"/>
              </g>
              <g id="Group_4275" data-name="Group 4275" transform="translate(3.973 20.582)">
                <g id="Group_4274" data-name="Group 4274">
                  <path id="Path_2048" data-name="Path 2048" d="M188.531,222.568l-.045,0-14.826-1.915a.5.5,0,0,1-.428-.556.506.506,0,0,1,.554-.428l14.828,1.915a.494.494,0,0,1,.428.556A.5.5,0,0,1,188.531,222.568Z" transform="translate(-173.219 -219.662)" fill="#fb8e77"/>
                  <path id="Path_2049" data-name="Path 2049" d="M188.527,225.655l-.043,0-14.828-1.915a.5.5,0,0,1-.428-.556.5.5,0,0,1,.556-.43l14.826,1.915a.5.5,0,0,1-.083.989Z" transform="translate(-173.224 -215.795)" fill="#fb8e77"/>
                  <path id="Path_2050" data-name="Path 2050" d="M189.452,229.028l-.059-.007-14.762-2.361a.5.5,0,0,1,.155-.98l14.762,2.361a.5.5,0,0,1-.1.987Z" transform="translate(-171.987 -212.134)" fill="#fb8e77"/>
                </g>
              </g>
            </g>
          </g>
        </g>
        <g id="Group_4293" data-name="Group 4293" transform="translate(67.885)">
          <g id="Group_4279" data-name="Group 4279" transform="translate(18.706 114.771)">
            <path id="Path_2051" data-name="Path 2051" d="M168.348,220.989a1.82,1.82,0,1,1,1.82-1.82A1.823,1.823,0,0,1,168.348,220.989Zm0-2.514a.694.694,0,1,0,.694.694A.7.7,0,0,0,168.348,218.475Z" transform="translate(-130.259 -175.71)" fill="#fff"/>
            <path id="Path_2052" data-name="Path 2052" d="M166.724,226.214a1.821,1.821,0,1,1,1.82-1.822A1.824,1.824,0,0,1,166.724,226.214Zm0-2.516a.695.695,0,1,0,.694.694A.7.7,0,0,0,166.724,223.7Z" transform="translate(-132.293 -169.168)" fill="#fff"/>
            <path id="Path_2053" data-name="Path 2053" d="M205.6,206.058a32.4,32.4,0,0,0-.561-6.016c-.322-1.71-53.779-1.491-54.09.214a32.319,32.319,0,0,0-.52,5.8c0,11.846,6.39,22.051,15.632,26.874h-.074l12.028,23.736,12.026-23.736h-.072C199.2,228.109,205.6,217.9,205.6,206.058Z" transform="translate(-150.425 -198.863)" fill="#fff"/>
          </g>
          <g id="Group_4292" data-name="Group 4292">
            <g id="Group_4281" data-name="Group 4281" transform="translate(2.75 30.647)">
              <g id="Group_4280" data-name="Group 4280">
                <path id="Path_2054" data-name="Path 2054" d="M224.8,185.517a8.866,8.866,0,0,0-4.12-1.047h-4.03v-5.843a26.9,26.9,0,0,0-1.131-7.7,14.971,14.971,0,0,1-16.384-3.82,12.209,12.209,0,0,1-20.794-.392,14.8,14.8,0,0,1-15.88-5.2,26.827,26.827,0,0,0-6.131,17.112v5.843H152.3a9.041,9.041,0,0,0-8.958,8.956v4.025a8.959,8.959,0,0,0,8.958,8.958h4.03V218.1a26.882,26.882,0,0,0,9.582,20.592v15.456a20.577,20.577,0,0,0,41.154,0V238.688a26.877,26.877,0,0,0,9.584-20.592V206.408h4.03a8.957,8.957,0,0,0,8.956-8.958v-4.025A8.922,8.922,0,0,0,224.8,185.517Z" transform="translate(-143.341 -161.515)" fill="#efbbab"/>
              </g>
              <path id="Path_2055" data-name="Path 2055" d="M182.477,210.969h-6.419a26.951,26.951,0,0,1-26.95-26.95v5.892a26.933,26.933,0,0,0,14.612,23.943,15.58,15.58,0,0,0,31.095,0,26.931,26.931,0,0,0,14.614-23.943v-5.892A26.951,26.951,0,0,1,182.477,210.969Z" transform="translate(-136.119 -133.33)" fill="#ff8571" opacity="0.29"/>
            </g>
            <g id="Group_4291" data-name="Group 4291" transform="translate(7.96 50.077)">
              <path id="Path_2056" data-name="Path 2056" d="M147.566,182.719a.845.845,0,0,1-.559-1.478l2-1.764-3.147-3.6a.844.844,0,1,1,1.27-1.113l4.257,4.868-3.266,2.874A.841.841,0,0,1,147.566,182.719Z" transform="translate(-145.654 -164.711)" fill="#ff8970"/>
              <path id="Path_2057" data-name="Path 2057" d="M180.465,183.159a.849.849,0,0,1-.559-.21l-3.266-2.874,4.257-4.87a.845.845,0,0,1,1.273,1.113l-3.151,3.6,2,1.761a.846.846,0,0,1-.559,1.48Z" transform="translate(-106.846 -164.158)" fill="#ff8970"/>
              <g id="Group_4290" data-name="Group 4290" transform="translate(18.841)">
                <g id="Group_4285" data-name="Group 4285">
                  <g id="Group_4284" data-name="Group 4284">
                    <g id="Group_4282" data-name="Group 4282" transform="translate(0 1.645)">
                      <path id="Path_2058" data-name="Path 2058" d="M154.963,176.659a6.572,6.572,0,0,0,2.759-.32c.96-.246,1.928-.466,2.777-.628s1.833-.315,2.813-.441a6.594,6.594,0,0,0,2.678-.723c.671-.453.8-1.41-.266-2.347a7.553,7.553,0,0,0-6.165-1.151c-2.809.545-4.678,2.113-5.257,3.338C153.677,175.65,154.168,176.485,154.963,176.659Z" transform="translate(-154.019 -170.872)" fill="#353535"/>
                    </g>
                    <g id="Group_4283" data-name="Group 4283" transform="translate(29.444)">
                      <path id="Path_2059" data-name="Path 2059" d="M179.59,175.288a6.945,6.945,0,0,1-2.921.092c-1.036-.108-2.079-.189-2.987-.225s-1.957-.047-3-.027a6.907,6.907,0,0,1-2.9-.34c-.766-.369-1.045-1.345-.072-2.487.914-1.115,3.239-2.27,6.25-2.151,3.007.135,5.19,1.482,5.978,2.667C180.78,174.037,180.394,174.986,179.59,175.288Z" transform="translate(-167.091 -170.141)" fill="#353535"/>
                    </g>
                  </g>
                </g>
                <g id="Group_4286" data-name="Group 4286" transform="translate(16.556 4.502)">
                  <path id="Path_2060" data-name="Path 2060" d="M161.744,192.965l3.813-.023a4.984,4.984,0,0,0,4.958-5.012l0-.351a2.288,2.288,0,0,0-2.3-2.277h0a3.932,3.932,0,0,1-3.953-3.912v-8.875" transform="translate(-160.899 -171.67)" fill="#efbbab"/>
                  <path id="Path_2061" data-name="Path 2061" d="M162.214,194.279a.845.845,0,0,1,0-1.689l3.813-.023a4.147,4.147,0,0,0,4.12-4.163l0-.351a1.446,1.446,0,0,0-1.446-1.437h-.034a4.776,4.776,0,0,1-4.777-4.75v-8.881a.845.845,0,0,1,1.689,0v8.877a3.092,3.092,0,0,0,3.088,3.066.1.1,0,0,1,.036,0,3.134,3.134,0,0,1,3.133,3.117l0,.349a5.837,5.837,0,0,1-5.8,5.863l-3.813.023Z" transform="translate(-161.369 -172.14)" fill="#ff8970"/>
                </g>
                <g id="Group_4287" data-name="Group 4287" transform="translate(16.409 44.856)">
                  <path id="Path_2062" data-name="Path 2062" d="M161.678,191.708s3.025-2.874,5.3,0" transform="translate(-160.835 -189.586)" fill="#efbbab"/>
                  <path id="Path_2063" data-name="Path 2063" d="M167.444,193.023a.842.842,0,0,1-.662-.322,2.2,2.2,0,0,0-1.572-.948,3.8,3.8,0,0,0-2.482,1.041.845.845,0,0,1-1.162-1.228,5.6,5.6,0,0,1,3.757-1.5,3.845,3.845,0,0,1,2.784,1.59.844.844,0,0,1-.662,1.367Z" transform="translate(-161.304 -190.056)" fill="#ff8970"/>
                </g>
                <g id="Group_4289" data-name="Group 4289" transform="translate(6.248 29.724)">
                  <g id="Group_4288" data-name="Group 4288">
                    <path id="Path_2064" data-name="Path 2064" d="M159.371,183.339a52.23,52.23,0,0,0,12.857,1.536c6.269-.194,3.653,9.877-5.8,10.636S154.179,183.188,159.371,183.339Z" transform="translate(-156.792 -183.337)" fill="#fff"/>
                  </g>
                </g>
              </g>
              <path id="Path_2065" data-name="Path 2065" d="M161.488,177.06a2.423,2.423,0,1,1-3.225-1.155A2.422,2.422,0,0,1,161.488,177.06Z" transform="translate(-131.602 -163.215)" fill="#353535"/>
              <path id="Path_2066" data-name="Path 2066" d="M162.477,179.751a.868.868,0,0,1-.383-.09,4.425,4.425,0,0,0-4.356-.054.847.847,0,0,1-.951-1.4,6.114,6.114,0,0,1,6.073-.052.845.845,0,0,1-.383,1.6Z" transform="translate(-132.175 -161.069)" fill="#ff8970"/>
              <path id="Path_2067" data-name="Path 2067" d="M173.2,177.06a2.423,2.423,0,1,1-3.226-1.155A2.422,2.422,0,0,1,173.2,177.06Z" transform="translate(-116.928 -163.215)" fill="#353535"/>
              <path id="Path_2068" data-name="Path 2068" d="M174.194,179.751a.868.868,0,0,1-.383-.09,4.425,4.425,0,0,0-4.356-.054.847.847,0,0,1-.951-1.4,6.114,6.114,0,0,1,6.073-.052.845.845,0,0,1-.383,1.6Z" transform="translate(-117.5 -161.069)" fill="#ff8970"/>
            </g>
            <path id="Path_2069" data-name="Path 2069" d="M153.828,201.511h4.03v-5.843a26.827,26.827,0,0,1,6.131-17.112,14.8,14.8,0,0,0,15.88,5.2,12.209,12.209,0,0,0,20.794.392,14.971,14.971,0,0,0,16.384,3.82,26.9,26.9,0,0,1,1.131,7.7v5.843h4.03a8.866,8.866,0,0,1,4.12,1.047,12.684,12.684,0,0,0,1.442-20.035c1.924-1.9,2.532-4.919,2.453-8.616-.117-5.507-3.358-10.084-8.665-11.188-4.836-8.879-11.985-15.177-22.4-14.794L177,148.743a25.069,25.069,0,0,0-24.128,24.786,12.472,12.472,0,0,0-5.7,22.376,12.288,12.288,0,0,0-1.412,10.74A8.935,8.935,0,0,1,153.828,201.511Z" transform="translate(-142.12 -147.909)" fill="#353535"/>
          </g>
        </g>
      </g>
    </g>
  </g>
</svg>
