<svg xmlns="http://www.w3.org/2000/svg" width="124.119" height="106.936" viewBox="0 0 124.119 106.936">
  <g id="Group_1" data-name="Group 1" transform="translate(-125.936 -312.037)">
    <g id="Group_4215" data-name="Group 4215" transform="translate(-5167.051 -698.967)">
      <path id="Path_1987" data-name="Path 1987" d="M1160.261,1428.832q-23.169,0-46.339-.007c-9.849-.016-16.047-6.232-16.059-16.116q-.038-28.968,0-57.936c.015-9.738,6.149-16.232,15.834-15.81,9.81.427,17.9-2.542,24.247-9.955,4.562-5.325,10.063-7.67,17.142-6.979,4.689.458,9.506-.314,14.176.233,3.025.354,5.939,1.979,8.795,3.273a9.317,9.317,0,0,1,2.733,2.516c6.946,7.89,15.412,11.56,26.139,10.946,8.732-.5,14.964,6.238,14.989,15.083q.085,29.715,0,59.431c-.025,8.968-6.347,15.272-15.32,15.306C1191.154,1428.874,1175.708,1428.831,1160.261,1428.832Zm-.39-12.484a33.873,33.873,0,1,0-33.792-33.712A33.893,33.893,0,0,0,1159.871,1416.349Z" transform="translate(4195.143 -310.906)"/>
      <path id="Path_1989" data-name="Path 1989" d="M1143.5,1393.527a27.936,27.936,0,1,1,27.666,27.938A27.714,27.714,0,0,1,1143.5,1393.527Z" transform="translate(4183.626 -321.922)" stroke="#fff" stroke-width="8"/>
    </g>
    <circle id="Ellipse_110" data-name="Ellipse 110" cx="3" cy="3" r="3" transform="translate(234 340)" fill="#fff"/>
  </g>
</svg>
