<svg xmlns="http://www.w3.org/2000/svg" xmlns:xlink="http://www.w3.org/1999/xlink" width="70" height="70" viewBox="0 0 70 70">
  <defs>
    <clipPath id="clip-path">
      <path id="Path_337" data-name="Path 337" d="M221.734,139.037a35,35,0,1,1-35-35A35,35,0,0,1,221.734,139.037Z" transform="translate(-151.734 -104.037)" fill="#23ad9b"/>
    </clipPath>
  </defs>
  <g id="Group_1" data-name="Group 1" transform="translate(-151.734 -104.037)">
    <g id="Group_67" data-name="Group 67" transform="translate(151.734 104.037)">
      <path id="Path_315" data-name="Path 315" d="M221.734,139.037a35,35,0,1,1-35-35A35,35,0,0,1,221.734,139.037Z" transform="translate(-151.734 -104.037)" fill="#23ad9b"/>
      <g id="Group_66" data-name="Group 66" clip-path="url(#clip-path)">
        <g id="Group_65" data-name="Group 65" transform="translate(9.489 4.819)">
          <g id="Group_57" data-name="Group 57" transform="translate(7.606 29.745)">
            <g id="Group_55" data-name="Group 55" transform="translate(30.239)">
              <path id="Path_316" data-name="Path 316" d="M225.732,156.09a2.516,2.516,0,0,0-2.79,2.212l-.417,3.62a2.518,2.518,0,0,0,5,.579l.417-3.624A2.513,2.513,0,0,0,225.732,156.09Z" transform="translate(-222.508 -155.835)" fill="#fcb590"/>
              <path id="Path_317" data-name="Path 317" d="M225.835,155.736a2.735,2.735,0,0,0-1.6.3l-.071.611a2.273,2.273,0,0,1,3.624,2.084l-.417,3.62a2.281,2.281,0,0,1-4.191.961.235.235,0,0,0-.327-.075.239.239,0,0,0-.074.329,2.757,2.757,0,0,0,5.067-1.161l.415-3.62A2.758,2.758,0,0,0,225.835,155.736Z" transform="translate(-222.584 -155.717)" fill="#e59776"/>
              <path id="Path_318" data-name="Path 318" d="M227.357,158.66a1.767,1.767,0,0,0-.808-.238c-1.22-.082-2.2,1.964-.983,2.329a.8.8,0,0,1-.017,1.05,2.6,2.6,0,0,0-.852,1.909c.074.415.5.638.881.741.306.081.366-.179.122-.3a1.371,1.371,0,0,1-.462-.413c-.012-.025-.024-.047-.038-.071a.283.283,0,0,1-.029-.053.48.48,0,0,1-.013-.3.7.7,0,0,0,.944-.013c.231-.3.057-.776.137-1.12a2.692,2.692,0,0,1,.28-.689c.56-1.016-.448-1.187-.448-1.187a3.247,3.247,0,0,0-.369.031c-.512-.291.058-1.122.368-1.254a.915.915,0,0,1,1.065.2,1.752,1.752,0,0,1,.338,1.17,4.091,4.091,0,0,1-.334,1.408c-.109.249-.248.544-.36.8-.126.283.18.407.3.122a8.735,8.735,0,0,0,.868-2.313A1.839,1.839,0,0,0,227.357,158.66Z" transform="translate(-223.227 -156.612)" fill="#e59776"/>
            </g>
            <g id="Group_56" data-name="Group 56">
              <path id="Path_319" data-name="Path 319" d="M179.88,156.09a2.516,2.516,0,0,1,2.79,2.212l.415,3.62a2.518,2.518,0,0,1-5,.579l-.415-3.624A2.514,2.514,0,0,1,179.88,156.09Z" transform="translate(-177.413 -155.835)" fill="#fcb590"/>
              <path id="Path_320" data-name="Path 320" d="M179.736,155.736a2.735,2.735,0,0,1,1.6.3l.069.611a2.273,2.273,0,0,0-3.623,2.084l.415,3.62a2.282,2.282,0,0,0,4.194.961.236.236,0,0,1,.328-.075.239.239,0,0,1,.074.329,2.757,2.757,0,0,1-5.068-1.161l-.415-3.62A2.757,2.757,0,0,1,179.736,155.736Z" transform="translate(-177.295 -155.717)" fill="#e59776"/>
              <path id="Path_321" data-name="Path 321" d="M179.321,158.66a1.76,1.76,0,0,1,.807-.238c1.22-.082,2.2,1.964.984,2.329a.8.8,0,0,0,.016,1.05,2.606,2.606,0,0,1,.855,1.909,1.1,1.1,0,0,1-.882.741c-.307.081-.366-.179-.122-.3a1.371,1.371,0,0,0,.462-.413c.011-.025.025-.047.037-.071a.224.224,0,0,0,.029-.053.49.49,0,0,0,.014-.3.7.7,0,0,1-.946-.013c-.23-.3-.056-.776-.134-1.12a2.744,2.744,0,0,0-.281-.689c-.56-1.016.447-1.187.447-1.187a3.26,3.26,0,0,1,.37.031c.511-.291-.059-1.122-.37-1.254a.914.914,0,0,0-1.064.2,1.752,1.752,0,0,0-.338,1.17,4.167,4.167,0,0,0,.331,1.408c.112.249.25.544.363.8.127.283-.177.407-.3.122a8.736,8.736,0,0,1-.868-2.313A1.834,1.834,0,0,1,179.321,158.66Z" transform="translate(-177.76 -156.612)" fill="#e59776"/>
            </g>
          </g>
          <rect id="Rectangle_43" data-name="Rectangle 43" width="8.312" height="7.035" transform="translate(21.415 49.312)" fill="#fcb590"/>
          <path id="Path_322" data-name="Path 322" d="M206.253,187.215v-2.242h-8.312v5.4C199.323,187.4,202.9,187.33,206.253,187.215Z" transform="translate(-176.526 -135.661)" fill="#facbc8" style="mix-blend-mode: multiply;isolation: isolate"/>
          <path id="Path_323" data-name="Path 323" d="M196.9,119.213v0h-.4v0c-10.111.09-15.858,2.056-14.306,20.487l.762,16.709a4.4,4.4,0,0,0,2.245,3.622l7.539,3.617a8.04,8.04,0,0,0,7.924,0l6.537-2.957a6.1,6.1,0,0,0,3.246-4.282l.965-15.978C212.963,122,207.013,119.3,196.9,119.213Z" transform="translate(-171.228 -113.881)" fill="#fcb590"/>
          <path id="Path_324" data-name="Path 324" d="M211.609,198.545,195.4,193.171h-7.928l-16.208,5.374s-6.289,1.958-5.222,11.8h50.787C217.857,199.475,211.609,198.545,211.609,198.545Z" transform="translate(-165.922 -138.377)" fill="#fcb590"/>
          <path id="Path_325" data-name="Path 325" d="M199.055,194.982l12.554,4.163s6.248.93,5.222,11.8H166.044c-1.067-9.837,5.222-11.8,5.222-11.8l12.363-4.163S190.529,201.526,199.055,194.982Z" transform="translate(-165.922 -138.976)" fill="#1c303d"/>
          <g id="Group_64" data-name="Group 64" transform="translate(14.881 20.933)">
            <path id="Path_326" data-name="Path 326" d="M199.421,165.044l.94.121.432.053c.148.025.311.023.471.048.324.023.663.056,1,.053a8.747,8.747,0,0,0,.989-.029c.318-.023.623-.055.887-.1s.5-.08.664-.11.272-.035.272-.035-.058.08-.175.209a2.421,2.421,0,0,1-.547.471,1.941,1.941,0,0,1-.422.24,2.8,2.8,0,0,1-.51.2,3.749,3.749,0,0,1-1.176.158,4.014,4.014,0,0,1-2.085-.619A2.59,2.59,0,0,1,199.421,165.044Z" transform="translate(-191.898 -149.994)" fill="#e68e68"/>
            <g id="Group_60" data-name="Group 60" transform="translate(6.059 19.885)">
              <g id="Group_58" data-name="Group 58">
                <path id="Path_327" data-name="Path 327" d="M197.479,173.205a9.823,9.823,0,0,0,8.186,0c.584-.277.074-1.142-.507-.866a8.814,8.814,0,0,1-7.173,0c-.566-.312-1.073.554-.506.866Z" transform="translate(-197.231 -172.272)" fill="#e6836c"/>
              </g>
              <g id="Group_59" data-name="Group 59" transform="translate(3.037 2.432)">
                <path id="Path_328" data-name="Path 328" d="M202.274,176.915a4.563,4.563,0,0,0,1.736-.017.5.5,0,0,0-.266-.968,3.921,3.921,0,0,1-1.469-.018.5.5,0,0,0-.5.5.513.513,0,0,0,.5.5Z" transform="translate(-201.772 -175.909)" fill="#e98f70"/>
              </g>
            </g>
            <g id="Group_63" data-name="Group 63">
              <g id="Group_61" data-name="Group 61" transform="translate(13.292)">
                <path id="Path_329" data-name="Path 329" d="M211.967,152c0,1.207.653,2.184,1.457,2.184s1.457-.978,1.457-2.184-.651-2.184-1.457-2.184S211.967,150.8,211.967,152Z" transform="translate(-209.345 -144.951)" fill="#1b0d05"/>
                <path id="Path_330" data-name="Path 330" d="M215.073,151.559a.694.694,0,1,0,.695-.694A.693.693,0,0,0,215.073,151.559Z" transform="translate(-210.374 -145.298)" fill="#fff"/>
                <path id="Path_331" data-name="Path 331" d="M214.994,144.927a.471.471,0,0,1-.628.232,6.335,6.335,0,0,0-5.229,0,.472.472,0,0,1-.629-.232l-.424-.955a.572.572,0,0,1,.348-.714,8.039,8.039,0,0,1,6.639,0,.573.573,0,0,1,.348.714Z" transform="translate(-208.047 -142.54)" fill="#3e211d"/>
              </g>
              <g id="Group_62" data-name="Group 62">
                <path id="Path_332" data-name="Path 332" d="M193.887,152c0,1.207-.653,2.184-1.458,2.184s-1.455-.978-1.455-2.184.652-2.184,1.455-2.184S193.887,150.8,193.887,152Z" transform="translate(-189.1 -144.951)" fill="#1b0d05"/>
                <path id="Path_333" data-name="Path 333" d="M191.537,151.559a.695.695,0,1,1-.7-.694A.694.694,0,0,1,191.537,151.559Z" transform="translate(-188.827 -145.298)" fill="#fff"/>
                <path id="Path_334" data-name="Path 334" d="M188.634,144.927a.47.47,0,0,0,.627.232,6.336,6.336,0,0,1,5.23,0,.47.47,0,0,0,.628-.232l.425-.955a.572.572,0,0,0-.348-.714,8.039,8.039,0,0,0-6.638,0,.574.574,0,0,0-.348.714Q188.421,144.45,188.634,144.927Z" transform="translate(-188.172 -142.54)" fill="#3e211d"/>
              </g>
            </g>
          </g>
          <path id="Path_335" data-name="Path 335" d="M179.185,141.1l1,.068s.5-.2.794,1.317h1.251V131.6s.488-5.938,7.235-6.33c0,0,14.511,4.634,20.19-.723,0,0,3.719-3.357,1.159-9.524,0,0-2.079,4.7-6.348,1.273,0,0-7.489-10.475-21.7-1.273a9.084,9.084,0,0,0-3.142,7.736s-2.168.782-2.168,4.111Z" transform="translate(-169.74 -111.242)" fill="#3e211d"/>
          <path id="Path_336" data-name="Path 336" d="M219.192,131.906c2.243,1.126,2.348,5.173,2.348,5.173v10.878h1.253c.288-1.521.794-1.317.794-1.317l1-.068,1.732-14.223c0-3.329-2.167-4.111-2.167-4.111S219.326,125.86,219.192,131.906Z" transform="translate(-183.565 -116.718)" fill="#3e211d"/>
        </g>
      </g>
    </g>
  </g>
</svg>
