<svg xmlns="http://www.w3.org/2000/svg" width="19" height="30" viewBox="0 0 19 30">
  <g id="Group_2" data-name="Group 2" transform="translate(-917 -183)">
    <g id="Group_1" data-name="Group 1" transform="translate(1884.323 -1070.942)">
      <path id="Path_1970" data-name="Path 1970" d="M-967.323,1283.942v-30h19v30Zm18.026-3.763v-24.35h-17.087v24.35Zm-7.577,1.867a.993.993,0,0,0-.929-.953.991.991,0,0,0-.969.913,1.014,1.014,0,0,0,.926.957A1.012,1.012,0,0,0-956.875,1282.046Z" fill="#4e4de6"/>
      <path id="Path_1971" data-name="Path 1971" d="M-948.086,1331.26q0-3.128,0-6.256c0-.825.127-.95.957-.95q6.389,0,12.778,0c.772,0,.912.135.913.874q0,6.34,0,12.681c0,.734-.118.85-.864.85q-6.446,0-12.892,0c-.767,0-.89-.122-.891-.888Q-948.089,1334.417-948.086,1331.26Zm13.578,3.152v-9.3h-12.48v5.325l1.429-1.63,4.357,4.954,3.071-3.488Z" transform="translate(-17.067 -62.241)" fill="#4e4de6"/>
      <path id="Path_1972" data-name="Path 1972" d="M-940.332,1460.777q3.237,0,6.474,0c.386,0,.793.012.783.5-.009.468-.407.519-.8.519q-6.5,0-13,0c-.057,0-.134.022-.169-.005-.212-.169-.547-.323-.59-.532-.075-.365.246-.484.6-.483,1.852.005,3.7,0,5.557,0Z" transform="translate(-17.459 -183.565)" fill="#4e4de6"/>
      <path id="Path_1973" data-name="Path 1973" d="M-906.3,1289.853c-1.463,0-2.926,0-4.389,0-.366,0-.717-.037-.731-.493s.333-.51.7-.51q4.418.005,8.835,0c.372,0,.722.055.708.509s-.364.5-.735.495C-903.379,1289.849-904.842,1289.853-906.3,1289.853Z" transform="translate(-49.35 -30.973)" fill="#4e4de6"/>
      <path id="Path_1974" data-name="Path 1974" d="M-946.355,1285.817c.319,0,.64.016.958,0,.449-.028.662.14.648.613-.02.713-.017,1.428,0,2.141.009.4-.151.588-.56.583-.751-.01-1.5-.006-2.254,0-.373,0-.547-.169-.543-.549.009-.733.011-1.466,0-2.2-.008-.443.207-.6.625-.587C-947.107,1285.829-946.731,1285.817-946.355,1285.817Zm-.917.795v1.748h1.712v-1.769c-.44,0-.831,0-1.223,0C-946.93,1286.593-947.077,1286.6-947.272,1286.612Z" transform="translate(-17.048 -28.274)" fill="#4e4de6"/>
      <path id="Path_1975" data-name="Path 1975" d="M-908,1303.688c.937,0,1.875.006,2.812,0,.363,0,.661.082.652.5s-.321.514-.669.514q-2.784.005-5.567,0c-.352,0-.656-.12-.652-.53s.312-.492.669-.489C-909.833,1303.694-908.914,1303.688-908,1303.688Z" transform="translate(-49.469 -44.147)" fill="#4e4de6"/>
      <path id="Path_1976" data-name="Path 1976" d="M-903.258,1348.486a1.652,1.652,0,0,1-1.705-1.641,1.66,1.66,0,0,1,1.667-1.738,1.705,1.705,0,0,1,1.7,1.672A1.712,1.712,0,0,1-903.258,1348.486Z" transform="translate(-55.216 -80.911)" fill="#4e4de6"/>
    </g>
  </g>
</svg>
