<svg xmlns="http://www.w3.org/2000/svg" width="29.198" height="53.3" viewBox="0 0 29.198 53.3">
  <g id="Group_1" data-name="Group 1" transform="translate(371.481 -482.662)">
    <g id="Group_517" data-name="Group 517" transform="translate(-371.481 482.662)">
      <path id="Path_417" data-name="Path 417" d="M-299.082,528.878l-.367,3.409s2.363,3.448,1.749,5.16c0,0,2.564-.466,2.8-2.011a8.269,8.269,0,0,0-.739-3.7Z" transform="translate(312.448 -520.538)" fill="#262642"/>
      <path id="Path_418" data-name="Path 418" d="M-245.932,612.216l2-7.515s4.483,11.288,4.537,12.371-3.52,10.357-3.52,10.357l-1.454-4.591s1.44-5.027,1.357-5.342-1.871-3.975-1.871-3.975Z" transform="translate(268.588 -582.678)" fill="#222933"/>
      <path id="Path_419" data-name="Path 419" d="M-309.862,722.323l-.294,4.753h15.107l-1.024-7.213-6.3-4Z" transform="translate(321.223 -673.776)" fill="#20252d"/>
      <path id="Path_420" data-name="Path 420" d="M-346.82,594.569s-2.839-1.859-3.257-1.971c-2.244-.6-8.038-.029-8.038-.029a30.194,30.194,0,0,0-4.425,3.041c-.687.851-9.274,13.512-8.931,14.714s8.587,9.58,8.587,9.58l2.407-1.561c-.066,1.556-.116,2.751-.116,2.751l9.309-.245,1.206-1.975a10.408,10.408,0,0,0,.977,1.975,36.622,36.622,0,0,0,3.688-.8s-1.326-9.25-1.326-10.022c0-.276.429-3.818.408-7.774C-346.35,598.639-346.82,594.569-346.82,594.569Zm-19.327,14.638c.086-.429,5.093-4.5,5.093-4.5a64.718,64.718,0,0,1,.879,6.745c-.035.662-.144,3.193-.243,5.5C-362.1,614.8-366.215,609.548-366.146,609.207Z" transform="translate(371.481 -572.533)" fill="#2d333f"/>
      <path id="Path_421" data-name="Path 421" d="M-310.12,723.715l1.94,2.587-1.268-.778-.708-.958Z" transform="translate(321.223 -680.215)" fill="#20252d"/>
      <path id="Path_422" data-name="Path 422" d="M-295.721,589.284l-.686.3-1.009.5.848,6.175,2.384,1.1-.783,2.2,4.987,5.992,2.909-6.481-1.426-2.123,1.426-1.545-2.682-6.068Z" transform="translate(310.782 -570.043)" fill="#454e60"/>
      <path id="Path_423" data-name="Path 423" d="M-276.2,603.057h0c.106-2.7.075-5.32-.347-6.406-1.014-2.617-4.753.869-4.753.869a58.6,58.6,0,0,1,2.57,5.716Z" transform="translate(297.571 -575.282)" fill="#c9c9c9"/>
      <path id="Path_424" data-name="Path 424" d="M-265.655,612.212l-1.1.146c-.035.818-.167,2.671-.3,4.428a28.013,28.013,0,0,1,1.957,7.552s.424-3.937.574-7.73C-265.049,614.276-265.655,612.212-265.655,612.212Z" transform="translate(285.902 -588.833)" fill="#c44141"/>
      <path id="Path_425" data-name="Path 425" d="M-271.332,601.452l1.07,1.777,1.1-.147.212-2.01H-270Z" transform="translate(289.405 -579.705)" fill="#993030"/>
      <path id="Path_426" data-name="Path 426" d="M-286.962,584.559a7.3,7.3,0,0,0-3.133,3.06s-2.254-3.978-1.9-4.892c.7-1.812,2.226-1.571,4.094-1.785s2.483,1.351,2.934,2.313a14.775,14.775,0,0,1,.732,3.137S-285.755,584.651-286.962,584.559Z" transform="translate(306.37 -563.191)" fill="#fff"/>
      <path id="Path_427" data-name="Path 427" d="M-279.539,566.792c-.119.079-1.678,1.5-1.225,2.647a2.534,2.534,0,0,1-.4,2.252s-3.753-1.027-3.793-2.706a4.725,4.725,0,0,0,.2-3.225C-285.307,564.105-279.539,566.792-279.539,566.792Z" transform="translate(300.567 -550.323)" fill="#e09e63"/>
      <path id="Path_428" data-name="Path 428" d="M-305.789,485.594s-2.158.2-2.661,3,1.669,5.98,1.669,5.98l7.668.544,3.475-2.107s2.773-3.268.619-6.692l1.472-.167s-3.557-3.8-7.83-3.471C-305.838,483.022-305.789,485.594-305.789,485.594Z" transform="translate(319.886 -482.662)" fill="#303054"/>
      <path id="Path_429" data-name="Path 429" d="M-295.638,515.34a6.776,6.776,0,0,0,.9-1.51,1.688,1.688,0,0,0-.971-1.09l-.771,2.82-6.3-.876s-1.81,1-2.425-.5c-.917-2.246-1.134-2.962-1.134-2.962a5.328,5.328,0,0,0-1.262,2.459,14.919,14.919,0,0,1-.556-3.772,4.865,4.865,0,0,0-.294,1.017c-.5,2.8,1.669,5.98,1.669,5.98l7.668.544Z" transform="translate(319.886 -504.99)" fill="#262642"/>
      <path id="Path_430" data-name="Path 430" d="M-292.054,521.005c.214,2.143-.2,10.013-3.849,10.283a5.031,5.031,0,0,1-5.589-4.128c-1.9.042-3.368-2.943-2.1-3.45s1.9,1.564,1.9,1.564-.338-2.367.338-3.17a3.76,3.76,0,0,0,.676-2.113s3.762,1.9,6.8,1.141a17.014,17.014,0,0,1-1.648-1.141A14.456,14.456,0,0,1-292.054,521.005Z" transform="translate(316.232 -513.255)" fill="#ffbd7b"/>
      <path id="Path_431" data-name="Path 431" d="M-275.718,539.2a.566.566,0,0,1-.483.622.566.566,0,0,1-.483-.622.566.566,0,0,1,.483-.622A.566.566,0,0,1-275.718,539.2Z" transform="translate(293.791 -528.486)" fill="#1b152b"/>
      <path id="Path_432" data-name="Path 432" d="M-249.815,538.434a.566.566,0,0,1-.508.6.566.566,0,0,1-.457-.641.566.566,0,0,1,.508-.6A.566.566,0,0,1-249.815,538.434Z" transform="translate(272.562 -527.844)" fill="#1b152b"/>
      <path id="Path_433" data-name="Path 433" d="M-299.449,544.741a1.294,1.294,0,0,1,.959.756c.371.712-.087,1-.349.843s-.356-.639-.007-.7C-298.846,545.635-299.027,544.908-299.449,544.741Z" transform="translate(312.448 -533.538)" fill="#e09e63"/>
      <g id="Group_516" data-name="Group 516" transform="translate(13.028 11.876)">
        <g id="Group_515" data-name="Group 515" transform="translate(0.52 0.532)">
          <path id="Path_434" data-name="Path 434" d="M-292.466,555.255a9.705,9.705,0,0,1-3.573-3.19l-.366-.545.15-.1.366.545a9.522,9.522,0,0,0,3.506,3.131Z" transform="translate(296.405 -551.419)" fill="#464675"/>
        </g>
        <path id="Path_435" data-name="Path 435" d="M-275.276,570.66a.358.358,0,0,1-.358.358.358.358,0,0,1-.358-.358.358.358,0,0,1,.358-.358A.358.358,0,0,1-275.276,570.66Z" transform="translate(280.195 -566.362)" fill="#464675"/>
        <circle id="Ellipse_19" data-name="Ellipse 19" cx="0.52" cy="0.52" r="0.52" transform="translate(0.136)" fill="#262642"/>
        <path id="Path_436" data-name="Path 436" d="M-298.246,548.99a.52.52,0,0,1-.52.52.52.52,0,0,1-.52-.52.52.52,0,0,1,.52-.52A.52.52,0,0,1-298.246,548.99Z" transform="translate(299.285 -548.47)" fill="#464675"/>
        <path id="Path_437" data-name="Path 437" d="M-297.586,549.835a.333.333,0,0,1-.333.333.333.333,0,0,1-.333-.333.333.333,0,0,1,.333-.333A.333.333,0,0,1-297.586,549.835Z" transform="translate(298.439 -549.316)" fill="#262642"/>
      </g>
      <path id="Path_438" data-name="Path 438" d="M-257.451,548.679s.67,1.553-.654,1.635c0,0,1.2.1,1.119-.509A2.805,2.805,0,0,0-257.451,548.679Z" transform="translate(278.565 -536.766)" fill="#e09e63"/>
      <path id="Path_439" data-name="Path 439" d="M-267.944,562.093h0l-.32.3-2.153.04-.807-.332c-.208-.031-.333-.055-.333-.055s.354,2.6,1.94,2.584,1.85-2.584,1.85-2.584C-267.824,562.063-267.883,562.079-267.944,562.093Z" transform="translate(289.588 -547.72)" fill="#351e1e"/>
      <path id="Path_440" data-name="Path 440" d="M-280.727,532.742s1.172-1.7,2.344-.764v.374A2.537,2.537,0,0,0-280.727,532.742Z" transform="translate(297.104 -522.848)" fill="#303054"/>
      <path id="Path_441" data-name="Path 441" d="M-249.735,531.813s-1.074-1.635-2.147-.736v.36A2.23,2.23,0,0,1-249.735,531.813Z" transform="translate(273.465 -522.119)" fill="#303054"/>
      <path id="Path_442" data-name="Path 442" d="M-269.592,567.4c-.192,0-.381.008-.566.022.262.733.767,1.605,1.688,1.6a1.667,1.667,0,0,0,1.441-1.12A6.407,6.407,0,0,0-269.592,567.4Z" transform="translate(288.443 -552.108)" fill="#a83f3f"/>
      <path id="Path_443" data-name="Path 443" d="M-276.873,550.676c0,.239-.331.432-.739.432s-.739-.194-.739-.432.331-.432.739-.432S-276.873,550.438-276.873,550.676Z" transform="translate(295.157 -538.048)" fill="#ffcfa4"/>
      <path id="Path_444" data-name="Path 444" d="M-247.586,550.676c0,.239-.331.432-.739.432s-.739-.194-.739-.432.331-.432.739-.432S-247.586,550.438-247.586,550.676Z" transform="translate(271.155 -538.048)" fill="#ffcfa4"/>
      <path id="Path_445" data-name="Path 445" d="M-313.7,653.155l1.759-1.713-1.208,5.187Z" transform="translate(324.126 -620.984)" fill="#20252d"/>
      <path id="Path_446" data-name="Path 446" d="M-318.624,733.74s3.074,1.794,3.268,2.354c.212.615.57,3.423.277,3.57-.341.172-.582-.227-.582-.227s-.032.7-.278.7-.4-.4-.4-.4-.088.73-.365.73-.348-.487-.348-.487-.049.7-.437.686c-.332-.012-.633-2.028-.91-2.337s-2.107-1.116-2.415-1.517a4.65,4.65,0,0,1-.535-1.3Z" transform="translate(330.399 -688.431)" fill="#ffbd7b"/>
      <path id="Path_447" data-name="Path 447" d="M-269.713,562.315l.067.349a6.024,6.024,0,0,0,3.085.062l.127-.419A9.658,9.658,0,0,1-269.713,562.315Z" transform="translate(288.078 -547.935)" fill="#eefdff"/>
      <path id="Path_448" data-name="Path 448" d="M-256.3,679.409l.6,10.835-.6.987C-256.156,690.989-256.3,679.409-256.3,679.409Z" transform="translate(277.104 -643.904)" fill="#20252d"/>
      <path id="Path_449" data-name="Path 449" d="M-291.886,751.7s-.176-2.33-.258-2.52-.2-.479-.2-.479a2.121,2.121,0,0,1,.328.641C-291.972,749.593-291.886,751.7-291.886,751.7Z" transform="translate(306.623 -700.69)" fill="#efac73"/>
      <path id="Path_450" data-name="Path 450" d="M-296.175,754.128a17.826,17.826,0,0,0-.125-2.224,2.041,2.041,0,0,0-.445-.6S-296.175,751.96-296.175,754.128Z" transform="translate(310.232 -702.823)" fill="#efac73"/>
      <path id="Path_451" data-name="Path 451" d="M-301.072,757.322a18.192,18.192,0,0,0-.245-2.04,1.539,1.539,0,0,0-.533-.38,3.2,3.2,0,0,1,.433.533C-301.352,755.589-301.072,757.322-301.072,757.322Z" transform="translate(314.415 -705.775)" fill="#efac73"/>
    </g>
  </g>
</svg>
