<svg id="Group_1" data-name="Group 1" xmlns="http://www.w3.org/2000/svg" width="40.14" height="41.718" viewBox="0 0 40.14 41.718">
  <g id="Group_521" data-name="Group 521" transform="translate(15.358 8.25)">
    <path id="Path_452" data-name="Path 452" d="M357.982,386.45c-.479.217.208-.8-.724-.837-.3-.011-.5.614-1.27.6-.094,0-.68-.132-.732-.13-.149.012-.451.046-.839.095l.114-1.448c.655.095.891.292,1.146.154a3.06,3.06,0,0,1,2-.328A1.016,1.016,0,0,1,357.982,386.45Z" transform="translate(-342.359 -378.879)" fill="#e6b496"/>
    <path id="Path_453" data-name="Path 453" d="M359.692,376.677a2.022,2.022,0,0,0,.143.465.043.043,0,0,0-.007-.009c.03.077.071.153.106.229s.087.152.137.233c.593.892,4.359,3.42,4.932,3.642a62.7,62.7,0,0,0,7.348,1.314c.086.01.137.015.151.015l.04-.344.132-1.163.046-.426a59.325,59.325,0,0,1-6.643-1.938c-.309-.163-3.658-2.791-4.023-3.075-.421-.33-1.075-.857-1.675-.462A1.453,1.453,0,0,0,359.692,376.677Z" transform="translate(-359.667 -375.019)" fill="#f79800"/>
    <path id="Path_454" data-name="Path 454" d="M359.976,378.587c.03.077.071.153.106.229s.087.152.137.233c.593.892,4.359,3.42,4.932,3.642a62.69,62.69,0,0,0,7.348,1.314c.086.01.137.015.151.015l.036-.34h-.036c-.025,0-.061,0-.1,0-.146-.011-.382-.037-.664-.077a48.925,48.925,0,0,1-6.571-1.253C364.751,382.129,360.6,379.516,359.976,378.587Z" transform="translate(-359.815 -376.472)" opacity="0.2"/>
  </g>
  <g id="Group_523" data-name="Group 523" transform="translate(0 4.17)">
    <rect id="Rectangle_150" data-name="Rectangle 150" width="0.676" height="13.073" transform="translate(10.605)" fill="#575757"/>
    <g id="Group_522" data-name="Group 522">
      <path id="Path_455" data-name="Path 455" d="M395.447,372.76h7.21v-2.93h-7.21L396.8,371.3Z" transform="translate(-395.447 -368.824)" fill="#e46403"/>
      <path id="Path_456" data-name="Path 456" d="M395.447,368.133l3.479,1.006v2.93l-3.479-1.005Z" transform="translate(-391.717 -368.133)" fill="#cf5900"/>
      <rect id="Rectangle_151" data-name="Rectangle 151" width="7.55" height="2.93" transform="translate(3.731)" fill="#e87c00"/>
    </g>
  </g>
  <path id="Path_457" data-name="Path 457" d="M377.084,371.323a5.936,5.936,0,0,0,.485-1.424c.046-.194.088-.383.127-.564.111-.52.18-.928.18-.928s2.478,1.47,1.861,2.235a1.756,1.756,0,0,0-.114.17,1.83,1.83,0,0,0-.2.536,3.993,3.993,0,0,0,0,1.47A9.386,9.386,0,0,1,377.084,371.323Z" transform="translate(-361.744 -364.075)" fill="#ffcdaa"/>
  <path id="Path_458" data-name="Path 458" d="M378.41,362.254A2.223,2.223,0,0,1,379,363.5c.1.421.226.69.175.811a2.765,2.765,0,0,1-.115.293c-.047.08.51,1.392.454,1.5s-.362.123-.421.14c-.139.037-.134.2-.134.3s.184.261.147.322c-.095.146-.324.094-.324.094s.311.064.222.212c-.041.067-.14.059-.208.129s.133.522.036.646c-.349.456-1.42.027-2.191-.332a7.069,7.069,0,0,0-1.163-.928c-.265-.191-1.3-2.224-.945-3.124a2.535,2.535,0,0,1,1.791-1.734A2.946,2.946,0,0,1,378.41,362.254Z" transform="translate(-359.87 -361.38)" fill="#ffcdaa"/>
  <path id="Path_459" data-name="Path 459" d="M379.37,371.45a1.832,1.832,0,0,0-.2.536,7.286,7.286,0,0,1-1.724-2.013c.2.18.424.529.771.85A3.728,3.728,0,0,0,379.37,371.45Z" transform="translate(-361.491 -364.713)" opacity="0.2"/>
  <path id="Path_460" data-name="Path 460" d="M379.826,362.05a.779.779,0,0,1-.744,0,4.189,4.189,0,0,0-1.892-.918,2.424,2.424,0,0,0-2.495.982,2.894,2.894,0,0,0-.4,2.012,5.958,5.958,0,0,0,.844,1.891c.361.6.786,1.079.744,1.218a4.329,4.329,0,0,0,.373-1.82c-.149-.139-.619-1.026-.2-1.308s.882.267,1.1.921a6.867,6.867,0,0,1,.525-1.935c.264-.255,1.229-.173,1.51-.308A1.02,1.02,0,0,0,379.826,362.05Z" transform="translate(-360.057 -361.096)" fill="#575757"/>
  <path id="Path_461" data-name="Path 461" d="M379.68,385.4l-4.372.169s-.22-7.69-.3-10.078c-.037-1.1,1.18-2.6,1.263-2.838.674,1.15,1.823,1.736,2.091,1.423a8.322,8.322,0,0,1,1.541,1.85,10.729,10.729,0,0,1,.026,3.581A47.753,47.753,0,0,0,379.68,385.4Z" transform="translate(-360.743 -365.803)" fill="#e87c00"/>
  <path id="Path_462" data-name="Path 462" d="M382.227,377.424c.083,2.387.3,10.078.3,10.078l.479-.017C382.928,384.8,382.211,376.951,382.227,377.424Z" transform="translate(-367.965 -367.74)" opacity="0.2"/>
  <path id="Path_463" data-name="Path 463" d="M356.725,415.266c.058-.27.135-.558.211-.8a3.865,3.865,0,0,1,.189-.516c.053-.1.105-.164.16-.171a21.737,21.737,0,0,1,2.215,0,5.641,5.641,0,0,0,1.251,1.155,2.416,2.416,0,0,0,.914.31,3.748,3.748,0,0,0,.407.02.618.618,0,0,1,.513.212.491.491,0,0,1,.029.475.556.556,0,0,1-.041.068,2,2,0,0,1-1.18.719,1.831,1.831,0,0,1-.512.03l-.932-.086a1.406,1.406,0,0,1-.489-.14,2.647,2.647,0,0,0-.29-.151.16.16,0,0,0-.184.026c-.084.076-.148.158-.168.158a.193.193,0,0,0-.035,0l-1.163-.108a1.953,1.953,0,0,1-.959-.431,1.351,1.351,0,0,1,.016-.495C356.687,415.454,356.706,415.362,356.725,415.266Z" transform="translate(-332.458 -382.548)" fill="#2d2d2d"/>
  <path id="Path_464" data-name="Path 464" d="M373.893,395.836c-.109-.751-.553-1.713-1-1.846-1.684-.5-5.758.131-6.358.131a2.483,2.483,0,0,1-1.1-.266l-4.349.269a4.492,4.492,0,0,0,1.259,4.7c1.86.7,7.882-1.015,7.882-1.015.4,0,.248.337.3.753.415,3.677.491,7.626.491,7.626l3.225-.54A81.581,81.581,0,0,0,373.893,395.836Z" transform="translate(-346.588 -374.419)" fill="#41759d"/>
  <path id="Path_465" data-name="Path 465" d="M366.112,394.348l.039,0a5.119,5.119,0,0,0,.532,3.112,2.817,2.817,0,0,0,2.284,1.209l6.553-1.014c.4,0,.247.336.293.751.386,3.514.407,6.954.494,7.965l-.267.044s-.075-3.948-.491-7.626c-.049-.415.1-.753-.3-.753,0,0-6.022,1.712-7.882,1.015A4.492,4.492,0,0,1,366.112,394.348Z" transform="translate(-351.613 -374.643)" opacity="0.2"/>
  <g id="Group_524" data-name="Group 524" transform="translate(29.701 31.992)">
    <path id="Path_466" data-name="Path 466" d="M341.085,419.946c0,.172.01.34.025.507a4.862,4.862,0,0,0,9.671,0c.016-.167.026-.335.026-.507a4.861,4.861,0,0,0-4.857-4.861h0a4.826,4.826,0,0,0-3.466,1.461,3.813,3.813,0,0,0-.334.37,4.8,4.8,0,0,0-.818,1.5A4.919,4.919,0,0,0,341.085,419.946Z" transform="translate(-341.085 -415.085)" fill="#575757"/>
  </g>
  <g id="Group_525" data-name="Group 525" transform="translate(30.99 33.28)">
    <path id="Path_467" data-name="Path 467" d="M343.258,420.833a3.573,3.573,0,1,0,3.572-3.574A3.573,3.573,0,0,0,343.258,420.833Z" transform="translate(-343.258 -417.259)" fill="#d3d4d6"/>
  </g>
  <g id="Group_526" data-name="Group 526" transform="translate(31.885 34.179)">
    <path id="Path_468" data-name="Path 468" d="M344.769,421.451a2.677,2.677,0,1,0,2.677-2.675A2.677,2.677,0,0,0,344.769,421.451Z" transform="translate(-344.769 -418.776)" fill="#7d7d7d"/>
  </g>
  <path id="Path_469" data-name="Path 469" d="M345.865,390.358c0,1.043.366,1.888.817,1.888s.815-.845.815-1.888-.365-1.887-.815-1.887S345.865,389.315,345.865,390.358Z" transform="translate(-310.907 -372.25)" fill="#ffbe56"/>
  <path id="Path_470" data-name="Path 470" d="M350.192,388.108v4.207s-2.32.094-2.726-.838-.255-2.579.39-2.951A4.241,4.241,0,0,1,350.192,388.108Z" transform="translate(-314.417 -372.09)" fill="#575757"/>
  <path id="Path_471" data-name="Path 471" d="M371.751,405.868h6.388c.7,0,1.27-.769,1.27-1.717s-.569-1.717-1.27-1.717h-6.388c-.7,0-1.269.768-1.269,1.717S371.05,405.868,371.751,405.868Z" transform="translate(-357.405 -377.939)" fill="#575757"/>
  <path id="Path_472" data-name="Path 472" d="M378.564,404.939c0-1.137-.681-2.06-1.522-2.06h-6.56a1.107,1.107,0,0,1,.847-.446h6.388c.7,0,1.27.768,1.27,1.717a1.97,1.97,0,0,1-.487,1.342A2.632,2.632,0,0,0,378.564,404.939Z" transform="translate(-356.984 -377.939)" opacity="0.2"/>
  <path id="Path_473" data-name="Path 473" d="M355.19,406.773a3.468,3.468,0,0,1-.223.964c-.157.483-.37.979-.5,1.264v0c-.061.137-.1.223-.1.223h2.491s2.136-10.047-.4-13.01c0,0-.4.422-.853.949a5.652,5.652,0,0,0-1.238,1.812v6.449S355.19,406.093,355.19,406.773Z" transform="translate(-326.149 -375.406)" fill="#575757"/>
  <rect id="Rectangle_152" data-name="Rectangle 152" width="21.221" height="3.029" transform="translate(10.738 33.823)" fill="#504de4"/>
  <g id="Group_527" data-name="Group 527" transform="translate(3.742 31.992)">
    <path id="Path_474" data-name="Path 474" d="M384.894,419.946a4.858,4.858,0,0,0,8.875,2.74,4.855,4.855,0,0,0-.213-5.769,4.9,4.9,0,0,0-2.725-1.715,5.014,5.014,0,0,0-1.075-.116,4.851,4.851,0,0,0-4.861,4.861Z" transform="translate(-384.894 -415.085)" fill="#575757"/>
  </g>
  <g id="Group_528" data-name="Group 528" transform="translate(5.03 33.28)">
    <path id="Path_475" data-name="Path 475" d="M387.066,420.833a3.573,3.573,0,1,0,3.571-3.574A3.572,3.572,0,0,0,387.066,420.833Z" transform="translate(-387.066 -417.259)" fill="#d3d4d6"/>
  </g>
  <g id="Group_529" data-name="Group 529" transform="translate(5.926 34.179)">
    <path id="Path_476" data-name="Path 476" d="M388.578,421.451a2.677,2.677,0,1,0,2.675-2.675A2.677,2.677,0,0,0,388.578,421.451Z" transform="translate(-388.578 -418.776)" fill="#7d7d7d"/>
  </g>
  <path id="Path_477" data-name="Path 477" d="M350.661,393.957a22.922,22.922,0,0,1-.076,4.268,13.673,13.673,0,0,1-.361,2.014,5.4,5.4,0,0,1-.634,1.579,1.7,1.7,0,0,0-.268.589,1.747,1.747,0,0,0,.685,1.842c.01,0,.02.016.03.02a1.56,1.56,0,0,0,.467.223,1.772,1.772,0,0,0,.36.071,1.749,1.749,0,0,0,1.577-.731c.026-.041.057-.082.082-.123l.02-.034a7.178,7.178,0,0,0,.568-1.238,9.958,9.958,0,0,0,.345-1.218c.02-.072.034-.148.051-.219a18.194,18.194,0,0,0,.319-2.5,27.109,27.109,0,0,0-.167-4.841,24.446,24.446,0,0,0-1.041-4.729,13.255,13.255,0,0,0-2.38-4.439l-.01-.01a1.271,1.271,0,0,0-1.792-.137.439.439,0,0,0-.07.07,1.276,1.276,0,0,0-.1,1.675,10.486,10.486,0,0,1,1.7,3.658A21.525,21.525,0,0,1,350.661,393.957Z" transform="translate(-318.546 -370.445)" fill="#504de4"/>
  <path id="Path_478" data-name="Path 478" d="M360.2,377.475a.043.043,0,0,0-.007-.009c.03.077.07.153.106.229s.086.152.137.233c.593.892,4.359,3.42,4.932,3.642a62.7,62.7,0,0,0,7.348,1.314l.05-.315.005-.014.082-.494a6.48,6.48,0,0,1-.7-.187c-1.679-.5-5.332-1.8-5.825-2.09-.3-.178-3.511-2.983-3.861-3.283-.406-.35-1.03-.913-1.65-.548a1.456,1.456,0,0,0-.76,1.055A2.021,2.021,0,0,0,360.2,377.475Z" transform="translate(-344.678 -367.102)" opacity="0.2"/>
  <path id="Path_479" data-name="Path 479" d="M350.609,403.754a11.181,11.181,0,0,0,.385-1.353c.021-.079.039-.164.057-.243a20.124,20.124,0,0,0,.355-2.777,30.116,30.116,0,0,0-.187-5.383,27.12,27.12,0,0,0-1.156-5.259,16.694,16.694,0,0,0-1.721-3.688,1.18,1.18,0,0,1,.445.321l.011.009a12.614,12.614,0,0,1,2.263,4.222,23.13,23.13,0,0,1,.988,4.5,25.634,25.634,0,0,1,.161,4.6,16.967,16.967,0,0,1-.3,2.374c-.014.068-.028.14-.047.207a9.362,9.362,0,0,1-.329,1.158,6.732,6.732,0,0,1-.539,1.178l-.02.034c-.025.039-.053.076-.076.116a1.687,1.687,0,0,1-.458.435C350.5,404.055,350.558,403.9,350.609,403.754Z" transform="translate(-317.126 -370.856)" fill="#fff" opacity="0.2"/>
  <path id="Path_480" data-name="Path 480" d="M354.372,409v0a1.09,1.09,0,0,0,0,.223h2.385s2.136-10.047-.4-13.01c0,0-.4.422-.853.949.122.777.2,1.558.254,2.345a27.371,27.371,0,0,1-.076,4.653,17.037,17.037,0,0,1-.37,2.212,7.576,7.576,0,0,1-.447,1.36,3.271,3.271,0,0,1-.222.427A1.693,1.693,0,0,0,354.372,409Z" transform="translate(-326.052 -375.406)" opacity="0.2"/>
  <path id="Path_481" data-name="Path 481" d="M351.446,385.795a12.018,12.018,0,0,1,1.751,4.052,25.34,25.34,0,0,1,.7,4.6,27.786,27.786,0,0,1-.076,4.652,17.37,17.37,0,0,1-.369,2.213,6.379,6.379,0,0,1-.669,1.786,1.746,1.746,0,1,0,2.933,1.895c.023-.036.045-.073.066-.11l.011-.021a9.574,9.574,0,0,0,.954-2.844,20.563,20.563,0,0,0,.316-2.659,30.825,30.825,0,0,0-.164-5.184,28.268,28.268,0,0,0-1.035-5.083,14.644,14.644,0,0,0-2.392-4.818l-.009-.012a1.269,1.269,0,0,0-2.018,1.537Z" transform="translate(-323.681 -370.338)" fill="#999"/>
  <path id="Path_482" data-name="Path 482" d="M370.448,408.227v1.03h5.9l1.091,1.765.857,1.385,1.06,1.715h11.286a3.347,3.347,0,0,1-1.416-1.522c-.614-1.426.329-1.811.741-2.786.675-1.587-1.34-1.587-1.34-1.587Z" transform="translate(-368.614 -380.299)" fill="#504de4"/>
  <path id="Path_483" data-name="Path 483" d="M371.047,412.6c-.615-1.426.329-1.811.74-2.786.674-1.587-1.339-1.587-1.339-1.587h.507s2.015,0,1.34,1.587c-.412.974-1.355,1.359-.741,2.786a3.347,3.347,0,0,0,1.416,1.522h-.508A3.341,3.341,0,0,1,371.047,412.6Z" transform="translate(-350.946 -380.299)" opacity="0.2"/>
  <path id="Path_484" data-name="Path 484" d="M382.829,416.966l8.4,4.846a4.8,4.8,0,0,0,.847-2.74H393.3a6.356,6.356,0,0,0-.757-3.029,5.856,5.856,0,0,0-2.238-2.314,5.926,5.926,0,0,0-2.871-.787l.857,1.385a5.016,5.016,0,0,0-1.075-.116A4.873,4.873,0,0,0,382.829,416.966Z" transform="translate(-378.611 -382.221)" opacity="0.2"/>
  <path id="Path_485" data-name="Path 485" d="M383.113,403.944a4.173,4.173,0,0,0,.7,2.538h13.64l-.321-2.472s0-.02-.015-.066Z" transform="translate(-382.939 -378.554)" fill="#e6e6e6"/>
  <path id="Path_486" data-name="Path 486" d="M383.753,397.935h14.009c-.122-.72-.731-6.34-1.634-7.611a2.417,2.417,0,0,0-1.812-1.126c-.852-.01-7.7.015-8.27,0s-2.03.178-2.1.939A57.4,57.4,0,0,0,383.753,397.935Z" transform="translate(-383.579 -372.545)" fill="#504de4"/>
  <path id="Path_487" data-name="Path 487" d="M394.181,391.6a3.206,3.206,0,0,0-2.408-1.5c-.69-.009-4.34,0-7.258,0a2.781,2.781,0,0,1,1.855-.57c.539.014,7.053-.01,7.863,0a2.294,2.294,0,0,1,1.722,1.071c.859,1.208,1.439,6.552,1.554,7.237h-1.7C395.422,395.406,394.866,392.565,394.181,391.6Z" transform="translate(-383.82 -372.684)" fill="#fff" opacity="0.3"/>
  <path id="Path_488" data-name="Path 488" d="M395.281,412.967l.762.843,2.831-3.41.36-.437H396.8l-.222.437Z" transform="translate(-391.926 -381.006)" fill="#575757"/>
  <path id="Path_489" data-name="Path 489" d="M355.563,388.478a.958.958,0,1,0,.958-.959A.958.958,0,0,0,355.563,388.478Z" transform="translate(-326.636 -371.862)" fill="#575757"/>
  <path id="Path_490" data-name="Path 490" d="M383.679,416.664l9.662,5.579a5.579,5.579,0,1,0-9.662-5.579Z" transform="translate(-379.907 -382.6)" fill="#504de4"/>
  <path id="Path_491" data-name="Path 491" d="M384.574,414.817a4.886,4.886,0,0,1,1.638.587,4.942,4.942,0,0,1,1.806,6.75l-1.5-.865A5.929,5.929,0,0,0,384.574,414.817Z" transform="translate(-375.028 -382.984)" fill="#fff" opacity="0.2"/>
  <path id="Path_492" data-name="Path 492" d="M341.085,419.1H342.8c0,.172.01.34.025.507h9.671c.016-.167.026-.335.026-.507a4.861,4.861,0,0,0-4.857-4.861,9.958,9.958,0,0,0,.345-1.218c-.117,0-.229-.011-.345-.011a6.746,6.746,0,0,0-1.37.142,6.565,6.565,0,0,0-2.42,1.056,6.673,6.673,0,0,0-1.776,1.862c-.05.076-.1.153-.136.228A6.444,6.444,0,0,0,341.085,419.1Z" transform="translate(-313.095 -382.249)" opacity="0.2"/>
  <path id="Path_493" data-name="Path 493" d="M339.874,419.451h11.158a5.579,5.579,0,1,0-11.158,0Z" transform="translate(-310.892 -382.598)" fill="#504de4"/>
  <path id="Path_494" data-name="Path 494" d="M340.842,414.369a5,5,0,0,1,4.914,4.995H343.94A6.27,6.27,0,0,0,340.842,414.369Z" transform="translate(-306.189 -382.802)" fill="#fff" opacity="0.2"/>
  <path id="Path_495" data-name="Path 495" d="M360.232,377.039v2.831a1.784,1.784,0,0,1-1.973-.894,2.455,2.455,0,0,1-.223-1.937A1.465,1.465,0,0,1,360.232,377.039Z" transform="translate(-330.777 -367.386)" fill="#575757"/>
  <path id="Path_496" data-name="Path 496" d="M395.281,410.4h2.293l.36-.437H395.5Z" transform="translate(-390.625 -381.006)" opacity="0.2"/>
  <path id="Path_497" data-name="Path 497" d="M356.444,380.336l.43.338.507,4.877h-1.056Z" transform="translate(-326.989 -368.935)" fill="#575757"/>
  <path id="Path_498" data-name="Path 498" d="M358.794,389.31c-.5.174.278-.783-.648-.9-.293-.037-.553.568-1.317.485-.094-.01-.665-.191-.718-.193-.15,0-.454.006-.844.022l.238-1.433c.645.152.863.37,1.129.254a3.059,3.059,0,0,1,2.019-.152A1.016,1.016,0,0,1,358.794,389.31Z" transform="translate(-328.392 -371.766)" fill="#ffcdaa"/>
  <path id="Path_499" data-name="Path 499" d="M372.982,382.473a59.128,59.128,0,0,1-6.445-2.507c-.3-.19-3.4-3.1-3.744-3.417-.39-.366-1-.948-1.626-.606a1.61,1.61,0,0,0-.519,2.4c.511.94,4.044,3.79,4.594,4.061a63.86,63.86,0,0,0,7.354,1.98Z" transform="translate(-344.969 -367.103)" fill="#f79800"/>
  <path id="Path_500" data-name="Path 500" d="M365.868,383.466c-.546-.268-4.454-3.234-4.992-4.212a2.621,2.621,0,0,0,.2.481c.511.94,4.044,3.79,4.594,4.061a63.862,63.862,0,0,0,7.354,1.98l.068-.338A50.428,50.428,0,0,1,365.868,383.466Z" transform="translate(-345.4 -368.494)" opacity="0.2"/>
</svg>
