<svg xmlns="http://www.w3.org/2000/svg" width="14.062" height="25" viewBox="0 0 14.062 25">
  <g id="Group_2" data-name="Group 2" transform="translate(-618.145 -279.5)">
    <g id="Group_1" data-name="Group 1" transform="translate(618.145 279.5)">
      <path id="Path_569" data-name="Path 569" d="M-1552.727-191.3a44.059,44.059,0,0,1-3.7,14.219,11.478,11.478,0,0,1-1.564,2.442c-1.123,1.35-2.429,1.327-3.595.014a13.568,13.568,0,0,1-2.417-4.419,42.913,42.913,0,0,1-2.768-12.059,6.948,6.948,0,0,1,6.222-7.474,7.018,7.018,0,0,1,7.643,5.606A15.8,15.8,0,0,1-1552.727-191.3Zm-7.08-4.963a4.683,4.683,0,0,0-4.685,4.68,4.715,4.715,0,0,0,4.7,4.683,4.714,4.714,0,0,0,4.72-4.729A4.684,4.684,0,0,0-1559.807-196.267Z" transform="translate(1566.789 198.637)"/>
      <path id="Path_570" data-name="Path 570" d="M-1502.629-152.46a1.924,1.924,0,0,1,1.985-1.946,1.926,1.926,0,0,1,1.942,1.99,2.431,2.431,0,0,1-1.951,2.485C-1501.666-149.922-1502.641-151.169-1502.629-152.46Z" transform="translate(1507.67 157.882)" fill="#8492a2"/>
      <path id="Path_571" data-name="Path 571" d="M-1510.678-88.86a3.708,3.708,0,0,1-6.155.034A9.146,9.146,0,0,1-1510.678-88.86Z" transform="translate(1520.758 97.961)" />
    </g>
  </g>
</svg>
